SplineFontDB: 3.2
FontName: BastyPixel
FullName: Basty Pixel
FamilyName: BastyPixel
Weight: Regular
Copyright: Copyright (c) 2020, Sebastian Sangervasi
UComments: "2020-5-8: Created with FontForge (http://fontforge.org)"
Version: 001.000
ItalicAngle: 0
UnderlinePosition: -99.6094
UnderlineWidth: 49.8047
Ascent: 800
Descent: 200
InvalidEm: 0
LayerCount: 2
Layer: 0 0 "Back" 1
Layer: 1 0 "Fore" 0
XUID: [1021 383 -2108585231 8656]
FSType: 0
OS2Version: 0
OS2_WeightWidthSlopeOnly: 0
OS2_UseTypoMetrics: 1
CreationTime: 1588963878
ModificationTime: 1592549725
PfmFamily: 17
TTFWeight: 400
TTFWidth: 5
LineGap: 90
VLineGap: 0
OS2TypoAscent: 0
OS2TypoAOffset: 1
OS2TypoDescent: 0
OS2TypoDOffset: 1
OS2TypoLinegap: 90
OS2WinAscent: 0
OS2WinAOffset: 1
OS2WinDescent: 0
OS2WinDOffset: 1
HheadAscent: 0
HheadAOffset: 1
HheadDescent: 0
HheadDOffset: 1
OS2Vendor: 'PfEd'
MarkAttachClasses: 1
DEI: 91125
LangName: 1033
Encoding: ISO8859-1
UnicodeInterp: none
NameList: AGL For New Fonts
DisplaySize: -48
AntiAlias: 1
FitToEm: 0
WinInfo: 0 36 19
BeginPrivate: 0
EndPrivate
Grid
-1000 666.699707031 m 0
 2000 666.699707031 l 1024
  Named: "Lower"
-1000 0 m 0
 2000 0 l 1024
  Named: "Base"
-1000 800 m 0
 2000 800 l 1024
  Named: "Cap"
499.860351562 1300 m 4
 499.860351562 -700 l 1028
  Named: "center"
EndSplineSet
BeginChars: 256 95

StartChar: A
Encoding: 65 65 0
Width: 734
Flags: W
HStem: 0 267<100 234 500 634> 133 134<234 500> 647 20G<100 234 500 634> 647 20G<100 234 500 634> 667 133<234 500>
VStem: 100 134<0 133 267 667> 500 134<0 133 267 667>
LayerCount: 2
Fore
SplineSet
234 667 m 5x26
 234 800 l 5
 367 800 l 5
 367 667 l 5x0e
 234 667 l 5x26
367 667 m 5
 367 800 l 5
 500 800 l 5x0e
 500 667 l 5x26
 367 667 l 5
100 533 m 5
 100 667 l 5
 234 667 l 5x26
 234 533 l 5
 100 533 l 5
500 533 m 5
 500 667 l 5
 634 667 l 5
 634 533 l 5
 500 533 l 5
100 400 m 5
 100 533 l 5
 234 533 l 5
 234 400 l 5
 100 400 l 5
500 400 m 5
 500 533 l 5
 634 533 l 5
 634 400 l 5
 500 400 l 5
100 267 m 5x86
 100 400 l 5
 234 400 l 5
 234 267 l 5
 100 267 l 5x86
500 267 m 5
 500 400 l 5
 634 400 l 5
 634 267 l 5
 500 267 l 5
100 133 m 5x46
 100 267 l 5
 234 267 l 5x86
 234 133 l 5
 100 133 l 5x46
234 133 m 5x46
 234 267 l 5x86
 367 267 l 5
 367 133 l 5
 234 133 l 5x46
367 133 m 5x46
 367 267 l 5x46
 500 267 l 5x86
 500 133 l 5
 367 133 l 5x46
500 133 m 5
 500 267 l 5
 634 267 l 5x86
 634 133 l 5
 500 133 l 5
100 0 m 5
 100 133 l 5
 234 133 l 5x46
 234 0 l 5
 100 0 l 5
500 0 m 5x86
 500 133 l 5
 634 133 l 5x46
 634 0 l 5
 500 0 l 5x86
EndSplineSet
EndChar

StartChar: B
Encoding: 66 66 1
Width: 734
Flags: W
HStem: 0 133<234 500> 133 134<500 634> 267 133<234 500> 400 133<500 634> 533 134<500 634> 667 133<234 500>
VStem: 100 400<0 133 267 400 667 800> 100 134<133 267 400 667> 500 134<133 267 400 667>
LayerCount: 2
Fore
SplineSet
100 667 m 1x06
 100 800 l 1x06
 234 800 l 1
 234 667 l 1x05
 100 667 l 1x06
234 667 m 1x05
 234 800 l 1
 367 800 l 1
 367 667 l 1
 234 667 l 1x05
367 667 m 1
 367 800 l 1
 500 800 l 1x06
 500 667 l 1x0a
 367 667 l 1
100 533 m 1x09
 100 667 l 1x06
 234 667 l 1x05
 234 533 l 1
 100 533 l 1x09
500 533 m 1x1080
 500 667 l 1x0a
 634 667 l 1x0880
 634 533 l 1
 500 533 l 1x1080
100 400 m 1x12
 100 533 l 1
 234 533 l 1
 234 400 l 1x29
 100 400 l 1x12
500 400 m 1x22
 500 533 l 1
 634 533 l 1
 634 400 l 1x1080
 500 400 l 1x22
100 267 m 1x22
 100 400 l 1x12
 234 400 l 1
 234 267 l 1x21
 100 267 l 1x22
234 267 m 1x21
 234 400 l 1
 367 400 l 1
 367 267 l 1
 234 267 l 1x21
367 267 m 1
 367 400 l 1
 500 400 l 1x22
 500 267 l 1x42
 367 267 l 1
100 133 m 1x42
 100 267 l 1x22
 234 267 l 1
 234 133 l 1xa1
 100 133 l 1x42
500 133 m 1x82
 500 267 l 1x42
 634 267 l 1
 634 133 l 1x4080
 500 133 l 1x82
100 0 m 1x82
 100 133 l 1x42
 234 133 l 1
 234 0 l 1x81
 100 0 l 1x82
234 0 m 1x81
 234 133 l 1
 367 133 l 1
 367 0 l 1
 234 0 l 1x81
367 0 m 1
 367 133 l 1
 500 133 l 1
 500 0 l 1x82
 367 0 l 1
EndSplineSet
EndChar

StartChar: C
Encoding: 67 67 2
Width: 734
Flags: W
HStem: 0 133<234 634> 400 133<100 234> 533 134<234 367> 667 133<367 634>
VStem: 100 134<133 533> 234 133<533 667>
LayerCount: 2
Fore
SplineSet
367 667 m 1xa4
 367 800 l 1
 500 800 l 1
 500 667 l 1x94
 367 667 l 1xa4
500 667 m 1
 500 800 l 1
 634 800 l 1
 634 667 l 1
 500 667 l 1
234 533 m 1xc8
 234 667 l 1
 367 667 l 1
 367 533 l 1xa4
 234 533 l 1xc8
100 400 m 1xc8
 100 533 l 1
 234 533 l 1
 234 400 l 1
 100 400 l 1xc8
100 267 m 1
 100 400 l 1
 234 400 l 1
 234 267 l 1
 100 267 l 1
100 133 m 1
 100 267 l 1
 234 267 l 1
 234 133 l 1
 100 133 l 1
234 0 m 1x84
 234 133 l 1x88
 367 133 l 1
 367 0 l 1
 234 0 l 1x84
367 0 m 1x84
 367 133 l 1
 500 133 l 1
 500 0 l 1
 367 0 l 1x84
500 0 m 1
 500 133 l 1
 634 133 l 1
 634 0 l 1
 500 0 l 1
EndSplineSet
EndChar

StartChar: D
Encoding: 68 68 3
Width: 734
Flags: W
HStem: 0 133<234 500> 400 133<500 634> 533 134<500 634> 667 133<234 500>
VStem: 100 134<133 667> 500 134<133 667>
LayerCount: 2
Fore
SplineSet
100 667 m 5x9c
 100 800 l 5
 234 800 l 5
 234 667 l 5
 100 667 l 5x9c
234 667 m 5
 234 800 l 5
 367 800 l 5
 367 667 l 5
 234 667 l 5
367 667 m 5
 367 800 l 5
 500 800 l 5x9c
 500 667 l 5xac
 367 667 l 5
100 533 m 5xac
 100 667 l 5
 234 667 l 5x9c
 234 533 l 5
 100 533 l 5xac
500 533 m 5xcc
 500 667 l 5
 634 667 l 5xac
 634 533 l 5
 500 533 l 5xcc
100 400 m 5xcc
 100 533 l 5
 234 533 l 5xac
 234 400 l 5
 100 400 l 5xcc
500 400 m 5xcc
 500 533 l 5
 634 533 l 5
 634 400 l 5
 500 400 l 5xcc
100 267 m 5
 100 400 l 5
 234 400 l 5
 234 267 l 5
 100 267 l 5
500 267 m 5
 500 400 l 5
 634 400 l 5
 634 267 l 5
 500 267 l 5
100 133 m 5
 100 267 l 5
 234 267 l 5
 234 133 l 5
 100 133 l 5
500 133 m 5
 500 267 l 5
 634 267 l 5
 634 133 l 5
 500 133 l 5
100 0 m 5
 100 133 l 5
 234 133 l 5
 234 0 l 5
 100 0 l 5
234 0 m 5
 234 133 l 5
 367 133 l 5
 367 0 l 5
 234 0 l 5
367 0 m 5
 367 133 l 5
 500 133 l 5
 500 0 l 5
 367 0 l 5
EndSplineSet
EndChar

StartChar: E
Encoding: 69 69 4
Width: 734
Flags: W
HStem: 0 133<234 634> 267 133<234 500> 647 20G<100 234> 647 20G<100 234> 667 133<234 500>
VStem: 100 134<133 267 400 667>
LayerCount: 2
Fore
SplineSet
100 667 m 5xe4
 100 800 l 5
 234 800 l 5xcc
 234 667 l 5
 100 667 l 5xe4
234 667 m 5xe4
 234 800 l 5
 367 800 l 5
 367 667 l 5xcc
 234 667 l 5xe4
367 667 m 5
 367 800 l 5
 500 800 l 5
 500 667 l 5
 367 667 l 5
100 533 m 5
 100 667 l 5
 234 667 l 5xe4
 234 533 l 5
 100 533 l 5
100 400 m 5
 100 533 l 5
 234 533 l 5
 234 400 l 5
 100 400 l 5
100 267 m 5
 100 400 l 5
 234 400 l 5
 234 267 l 5
 100 267 l 5
234 267 m 5
 234 400 l 5
 367 400 l 5
 367 267 l 5
 234 267 l 5
367 267 m 5
 367 400 l 5
 500 400 l 5
 500 267 l 5
 367 267 l 5
100 133 m 5
 100 267 l 5
 234 267 l 5
 234 133 l 5
 100 133 l 5
100 0 m 5
 100 133 l 5
 234 133 l 5
 234 0 l 5
 100 0 l 5
234 0 m 5
 234 133 l 5
 367 133 l 5
 367 0 l 5
 234 0 l 5
367 0 m 5
 367 133 l 5
 500 133 l 5
 500 0 l 5
 367 0 l 5
500 0 m 5
 500 133 l 5
 634 133 l 5
 634 0 l 5
 500 0 l 5
EndSplineSet
EndChar

StartChar: F
Encoding: 70 70 5
Width: 734
Flags: W
HStem: 0 21G<100 234> 0 21G<100 234> 400 133<234 500> 647 20G<100 234> 647 20G<100 234> 667 133<234 634>
VStem: 100 134<0 400 533 667>
LayerCount: 2
Fore
SplineSet
234 667 m 5x32
 234 800 l 5
 367 800 l 5
 367 667 l 5x26
 234 667 l 5x32
367 667 m 5
 367 800 l 5
 500 800 l 5
 500 667 l 5
 367 667 l 5
500 667 m 5
 500 800 l 5
 634 800 l 5
 634 667 l 5
 500 667 l 5
100 533 m 5
 100 667 l 5
 234 667 l 5x32
 234 533 l 5
 100 533 l 5
100 400 m 5
 100 533 l 5
 234 533 l 5
 234 400 l 5
 100 400 l 5
234 400 m 5
 234 533 l 5
 367 533 l 5
 367 400 l 5
 234 400 l 5
367 400 m 5
 367 533 l 5
 500 533 l 5
 500 400 l 5
 367 400 l 5
100 267 m 5
 100 400 l 5
 234 400 l 5
 234 267 l 5
 100 267 l 5
100 133 m 5
 100 267 l 5
 234 267 l 5
 234 133 l 5
 100 133 l 5
100 0 m 5xa2
 100 133 l 5
 234 133 l 5
 234 0 l 5
 100 0 l 5xa2
EndSplineSet
EndChar

StartChar: G
Encoding: 71 71 6
Width: 734
Flags: W
HStem: 0 133<234 500> 267 133<367 634> 400 133<100 234> 533 134<100 234> 667 133<234 634>
VStem: 100 134<133 667> 500 134<133 267>
LayerCount: 2
Fore
SplineSet
234 667 m 5x96
 234 800 l 5
 367 800 l 5
 367 667 l 5x8e
 234 667 l 5x96
367 667 m 5
 367 800 l 5
 500 800 l 5
 500 667 l 5
 367 667 l 5
500 667 m 5
 500 800 l 5
 634 800 l 5
 634 667 l 5
 500 667 l 5
100 533 m 5xa6
 100 667 l 5
 234 667 l 5x96
 234 533 l 5
 100 533 l 5xa6
100 400 m 5xa6
 100 533 l 5
 234 533 l 5
 234 400 l 5
 100 400 l 5xa6
100 267 m 5xc6
 100 400 l 5
 234 400 l 5xa6
 234 267 l 5
 100 267 l 5xc6
367 267 m 5xc6
 367 400 l 5
 500 400 l 5
 500 267 l 5
 367 267 l 5xc6
500 267 m 5
 500 400 l 5
 634 400 l 5
 634 267 l 5
 500 267 l 5
100 133 m 5
 100 267 l 5
 234 267 l 5
 234 133 l 5
 100 133 l 5
500 133 m 5
 500 267 l 5
 634 267 l 5
 634 133 l 5
 500 133 l 5
234 0 m 5
 234 133 l 5
 367 133 l 5
 367 0 l 5
 234 0 l 5
367 0 m 5
 367 133 l 5
 500 133 l 5
 500 0 l 5
 367 0 l 5
500 0 m 5
 500 133 l 5
 634 133 l 5
 634 0 l 5
 500 0 l 5
EndSplineSet
EndChar

StartChar: H
Encoding: 72 72 7
Width: 734
Flags: W
HStem: 0 21G<100 234 500 634> 0 21G<100 234 500 634> 267 133<234 500> 647 20G<100 234 500 634> 647 20G<100 234 500 634> 667 21G<100 234 500 634> 667 21G<100 234 500 634> 780 20G<100 234 500 634>
VStem: 100 134<0 267 400 800> 500 134<0 267 400 800>
LayerCount: 2
Fore
SplineSet
100 667 m 5x31c0
 100 800 l 5
 234 800 l 5
 234 667 l 5
 100 667 l 5x31c0
500 667 m 5
 500 800 l 5
 634 800 l 5
 634 667 l 5
 500 667 l 5
100 533 m 5
 100 667 l 5
 234 667 l 5
 234 533 l 5
 100 533 l 5
500 533 m 5
 500 667 l 5
 634 667 l 5
 634 533 l 5
 500 533 l 5
100 400 m 5
 100 533 l 5
 234 533 l 5
 234 400 l 5
 100 400 l 5
500 400 m 5
 500 533 l 5
 634 533 l 5
 634 400 l 5
 500 400 l 5
100 267 m 5
 100 400 l 5
 234 400 l 5
 234 267 l 5
 100 267 l 5
234 267 m 5
 234 400 l 5
 367 400 l 5
 367 267 l 5
 234 267 l 5
367 267 m 5
 367 400 l 5
 500 400 l 5
 500 267 l 5
 367 267 l 5
500 267 m 5
 500 400 l 5
 634 400 l 5
 634 267 l 5
 500 267 l 5
100 133 m 5
 100 267 l 5
 234 267 l 5
 234 133 l 5
 100 133 l 5
500 133 m 5
 500 267 l 5
 634 267 l 5
 634 133 l 5
 500 133 l 5
100 0 m 5xa1c0
 100 133 l 5
 234 133 l 5
 234 0 l 5
 100 0 l 5xa1c0
500 0 m 5
 500 133 l 5
 634 133 l 5
 634 0 l 5
 500 0 l 5
EndSplineSet
EndChar

StartChar: I
Encoding: 73 73 8
Width: 734
Flags: W
HStem: 0 133<100 234 367 634> 647 20G<234 367> 647 20G<234 367> 667 133<100 234 367 634>
VStem: 234 133<133 667>
LayerCount: 2
Fore
SplineSet
100 667 m 5x98
 100 800 l 5
 234 800 l 5x98
 234 667 l 5xc8
 100 667 l 5x98
234 667 m 5xc8
 234 800 l 5
 367 800 l 5x98
 367 667 l 5
 234 667 l 5xc8
367 667 m 5xc8
 367 800 l 5
 500 800 l 5
 500 667 l 5x98
 367 667 l 5xc8
500 667 m 5
 500 800 l 5
 634 800 l 5
 634 667 l 5
 500 667 l 5
234 533 m 5
 234 667 l 5
 367 667 l 5xc8
 367 533 l 5
 234 533 l 5
234 400 m 5
 234 533 l 5
 367 533 l 5
 367 400 l 5
 234 400 l 5
234 267 m 5
 234 400 l 5
 367 400 l 5
 367 267 l 5
 234 267 l 5
234 133 m 5
 234 267 l 5
 367 267 l 5
 367 133 l 5
 234 133 l 5
100 0 m 5
 100 133 l 5
 234 133 l 5
 234 0 l 5
 100 0 l 5
234 0 m 5
 234 133 l 5
 367 133 l 5
 367 0 l 5
 234 0 l 5
367 0 m 5
 367 133 l 5
 500 133 l 5
 500 0 l 5
 367 0 l 5
500 0 m 5
 500 133 l 5
 634 133 l 5
 634 0 l 5
 500 0 l 5
EndSplineSet
EndChar

StartChar: J
Encoding: 74 74 9
Width: 734
Flags: W
HStem: 0 133<100 367> 133 134<100 234> 647 20G<367 500> 647 20G<367 500> 667 133<234 367 500 634>
VStem: 100 134<133 267> 367 133<133 667>
LayerCount: 2
Fore
SplineSet
234 667 m 1x0e
 234 800 l 1
 367 800 l 1x0e
 367 667 l 1x26
 234 667 l 1x0e
367 667 m 1x26
 367 800 l 1
 500 800 l 1x0e
 500 667 l 1
 367 667 l 1x26
500 667 m 1x26
 500 800 l 1
 634 800 l 1
 634 667 l 1x0e
 500 667 l 1x26
367 533 m 1
 367 667 l 1
 500 667 l 1x26
 500 533 l 1
 367 533 l 1
367 400 m 1
 367 533 l 1
 500 533 l 1
 500 400 l 1
 367 400 l 1
367 267 m 1x46
 367 400 l 1
 500 400 l 1
 500 267 l 1
 367 267 l 1x46
100 133 m 1x86
 100 267 l 1
 234 267 l 1x46
 234 133 l 1
 100 133 l 1x86
367 133 m 1x86
 367 267 l 1
 500 267 l 1
 500 133 l 1x46
 367 133 l 1x86
100 0 m 1x86
 100 133 l 1
 234 133 l 1
 234 0 l 1
 100 0 l 1x86
234 0 m 1
 234 133 l 1
 367 133 l 1
 367 0 l 1
 234 0 l 1
367 0 m 1
 367 133 l 1x86
 500 133 l 1x46
 500 0 l 1
 367 0 l 1
EndSplineSet
EndChar

StartChar: K
Encoding: 75 75 10
Width: 734
Flags: W
HStem: 0 133<500 634> 133 134<367 500> 267 133<234 367> 400 133<367 500> 533 134<500 634> 667 133<500 634>
VStem: 100 134<0 267 400 800> 367 133<133 267 400 533> 500 134<0 133 533 800>
LayerCount: 2
Fore
SplineSet
100 667 m 5x06
 100 800 l 5
 234 800 l 5
 234 667 l 5
 100 667 l 5x06
500 667 m 5x0a80
 500 800 l 5
 634 800 l 5x0680
 634 667 l 5
 500 667 l 5x0a80
100 533 m 5x0a
 100 667 l 5
 234 667 l 5x06
 234 533 l 5
 100 533 l 5x0a
500 533 m 5x13
 500 667 l 5
 634 667 l 5
 634 533 l 5x0a80
 500 533 l 5x13
100 400 m 5x12
 100 533 l 5
 234 533 l 5
 234 400 l 5x2a
 100 400 l 5x12
367 400 m 5x23
 367 533 l 5
 500 533 l 5
 500 400 l 5x13
 367 400 l 5x23
100 267 m 5x22
 100 400 l 5x12
 234 400 l 5
 234 267 l 5
 100 267 l 5x22
234 267 m 5x23
 234 400 l 5
 367 400 l 5x23
 367 267 l 5x43
 234 267 l 5x23
100 133 m 5x42
 100 267 l 5
 234 267 l 5x22
 234 133 l 5
 100 133 l 5x42
367 133 m 5x43
 367 267 l 5
 500 267 l 5x43
 500 133 l 5x83
 367 133 l 5x43
100 0 m 5x82
 100 133 l 5
 234 133 l 5x42
 234 0 l 5
 100 0 l 5x82
500 0 m 5x8280
 500 133 l 5x83
 634 133 l 5
 634 0 l 5
 500 0 l 5x8280
EndSplineSet
EndChar

StartChar: L
Encoding: 76 76 11
Width: 734
Flags: W
HStem: 0 133<234 634> 647 20G<100 234> 647 20G<100 234> 667 21G<100 234> 667 21G<100 234> 780 20G<100 234>
VStem: 100 134<133 800>
LayerCount: 2
Fore
SplineSet
100 667 m 5xc6
 100 800 l 5
 234 800 l 5
 234 667 l 5
 100 667 l 5xc6
100 533 m 5
 100 667 l 5
 234 667 l 5
 234 533 l 5
 100 533 l 5
100 400 m 5
 100 533 l 5
 234 533 l 5
 234 400 l 5
 100 400 l 5
100 267 m 5
 100 400 l 5
 234 400 l 5
 234 267 l 5
 100 267 l 5
100 133 m 5
 100 267 l 5
 234 267 l 5
 234 133 l 5
 100 133 l 5
234 0 m 5
 234 133 l 5
 367 133 l 5
 367 0 l 5
 234 0 l 5
367 0 m 5
 367 133 l 5
 500 133 l 5
 500 0 l 5
 367 0 l 5
500 0 m 5
 500 133 l 5
 634 133 l 5
 634 0 l 5
 500 0 l 5
EndSplineSet
EndChar

StartChar: M
Encoding: 77 77 12
Width: 734
Flags: W
HStem: 0 21G<100 234 500 634> 0 21G<100 234 500 634> 400 133<234 367> 533 134<234 500> 667 133<367 500>
VStem: 100 134<0 400 667 800> 500 134<0 533>
LayerCount: 2
Fore
SplineSet
100 667 m 5x0e
 100 800 l 5
 234 800 l 5x0e
 234 667 l 5x16
 100 667 l 5x0e
367 667 m 5x16
 367 800 l 5
 500 800 l 5x0e
 500 667 l 5
 367 667 l 5x16
500 667 m 5x16
 500 800 l 5
 634 800 l 5
 634 667 l 5x0e
 500 667 l 5x16
100 533 m 5x16
 100 667 l 5x0e
 234 667 l 5x16
 234 533 l 5x26
 100 533 l 5x16
234 533 m 5x26
 234 667 l 5
 367 667 l 5x16
 367 533 l 5
 234 533 l 5x26
367 533 m 5x26
 367 667 l 5
 500 667 l 5
 500 533 l 5x16
 367 533 l 5x26
500 533 m 5
 500 667 l 5x16
 634 667 l 5x0e
 634 533 l 5
 500 533 l 5
100 400 m 5x26
 100 533 l 5x16
 234 533 l 5
 234 400 l 5
 100 400 l 5x26
234 400 m 5x26
 234 533 l 5
 367 533 l 5
 367 400 l 5
 234 400 l 5x26
500 400 m 5
 500 533 l 5
 634 533 l 5x16
 634 400 l 5
 500 400 l 5
100 267 m 5
 100 400 l 5
 234 400 l 5x26
 234 267 l 5
 100 267 l 5
500 267 m 5
 500 400 l 5
 634 400 l 5
 634 267 l 5
 500 267 l 5
100 133 m 5
 100 267 l 5
 234 267 l 5
 234 133 l 5
 100 133 l 5
500 133 m 5
 500 267 l 5
 634 267 l 5
 634 133 l 5
 500 133 l 5
100 0 m 5x86
 100 133 l 5
 234 133 l 5
 234 0 l 5
 100 0 l 5x86
500 0 m 5
 500 133 l 5
 634 133 l 5
 634 0 l 5
 500 0 l 5
EndSplineSet
EndChar

StartChar: N
Encoding: 78 78 13
Width: 734
Flags: W
HStem: 0 21G<100 234 500 634> 0 21G<100 234 500 634> 267 133<367 500> 400 133<367 500> 533 134<234 367> 667 133<234 367>
VStem: 100 267<533 800> 100 134<0 533> 367 267<267 533> 500 134<0 267 533 800>
LayerCount: 2
Fore
SplineSet
100 667 m 5x06
 100 800 l 5x06
 234 800 l 5x05
 234 667 l 5x09
 100 667 l 5x06
234 667 m 5x09
 234 800 l 5x05
 367 800 l 5x06
 367 667 l 5x0a
 234 667 l 5x09
500 667 m 5x0440
 500 800 l 5
 634 800 l 5
 634 667 l 5
 500 667 l 5x0440
100 533 m 5x0a
 100 667 l 5x06
 234 667 l 5
 234 533 l 5x09
 100 533 l 5x0a
234 533 m 5x09
 234 667 l 5x09
 367 667 l 5x0a
 367 533 l 5x12
 234 533 l 5x09
500 533 m 5x1040
 500 667 l 5
 634 667 l 5x1440
 634 533 l 5x0880
 500 533 l 5x1040
100 400 m 5x11
 100 533 l 5x0a
 234 533 l 5x09
 234 400 l 5
 100 400 l 5x11
367 400 m 5x2080
 367 533 l 5
 500 533 l 5x1240
 500 400 l 5x2240
 367 400 l 5x2080
500 400 m 5x2040
 500 533 l 5x1040
 634 533 l 5x0880
 634 400 l 5x1080
 500 400 l 5x2040
100 267 m 5x21
 100 400 l 5
 234 400 l 5x11
 234 267 l 5
 100 267 l 5x21
367 267 m 5x2080
 367 400 l 5x2080
 500 400 l 5
 500 267 l 5x2040
 367 267 l 5x2080
500 267 m 5x2040
 500 400 l 5x2040
 634 400 l 5x1080
 634 267 l 5x2080
 500 267 l 5x2040
100 133 m 5x21
 100 267 l 5
 234 267 l 5
 234 133 l 5
 100 133 l 5x21
500 133 m 5x2040
 500 267 l 5x2040
 634 267 l 5x2080
 634 133 l 5
 500 133 l 5x2040
100 0 m 5x81
 100 133 l 5
 234 133 l 5
 234 0 l 5
 100 0 l 5x81
500 0 m 5x8040
 500 133 l 5
 634 133 l 5
 634 0 l 5
 500 0 l 5x8040
EndSplineSet
EndChar

StartChar: O
Encoding: 79 79 14
Width: 734
Flags: W
HStem: 0 133<234 500> 647 20G<100 234 500 634> 647 20G<100 234 500 634> 667 133<234 500>
VStem: 100 134<133 667> 500 134<133 667>
LayerCount: 2
Fore
SplineSet
234 667 m 5xcc
 234 800 l 5
 367 800 l 5
 367 667 l 5x9c
 234 667 l 5xcc
367 667 m 5
 367 800 l 5
 500 800 l 5x9c
 500 667 l 5xcc
 367 667 l 5
500 667 m 5xcc
 500 800 l 5
 634 800 l 5x9c
 634 667 l 5
 500 667 l 5xcc
100 533 m 5
 100 667 l 5
 234 667 l 5xcc
 234 533 l 5
 100 533 l 5
500 533 m 5
 500 667 l 5
 634 667 l 5
 634 533 l 5
 500 533 l 5
100 400 m 5
 100 533 l 5
 234 533 l 5
 234 400 l 5
 100 400 l 5
500 400 m 5
 500 533 l 5
 634 533 l 5
 634 400 l 5
 500 400 l 5
100 267 m 5
 100 400 l 5
 234 400 l 5
 234 267 l 5
 100 267 l 5
500 267 m 5
 500 400 l 5
 634 400 l 5
 634 267 l 5
 500 267 l 5
100 133 m 5
 100 267 l 5
 234 267 l 5
 234 133 l 5
 100 133 l 5
500 133 m 5
 500 267 l 5
 634 267 l 5
 634 133 l 5
 500 133 l 5
100 0 m 5
 100 133 l 5
 234 133 l 5
 234 0 l 5
 100 0 l 5
234 0 m 5
 234 133 l 5
 367 133 l 5
 367 0 l 5
 234 0 l 5
367 0 m 5
 367 133 l 5
 500 133 l 5
 500 0 l 5
 367 0 l 5
EndSplineSet
EndChar

StartChar: P
Encoding: 80 80 15
Width: 734
Flags: W
HStem: 0 21G<100 234> 0 21G<100 234> 400 133<234 634> 533 134<500 634> 667 133<234 500>
VStem: 100 134<0 400 533 667> 500 134<533 667>
LayerCount: 2
Fore
SplineSet
100 667 m 1x0e
 100 800 l 1
 234 800 l 1
 234 667 l 1
 100 667 l 1x0e
234 667 m 1
 234 800 l 1
 367 800 l 1
 367 667 l 1
 234 667 l 1
367 667 m 1
 367 800 l 1
 500 800 l 1x0e
 500 667 l 1x16
 367 667 l 1
100 533 m 1x16
 100 667 l 1
 234 667 l 1
 234 533 l 1x2e
 100 533 l 1x16
500 533 m 1
 500 667 l 1
 634 667 l 1x16
 634 533 l 1
 500 533 l 1
100 400 m 1x26
 100 533 l 1x16
 234 533 l 1
 234 400 l 1
 100 400 l 1x26
234 400 m 1x26
 234 533 l 1
 367 533 l 1
 367 400 l 1
 234 400 l 1x26
367 400 m 1
 367 533 l 1
 500 533 l 1
 500 400 l 1
 367 400 l 1
500 400 m 1
 500 533 l 1
 634 533 l 1
 634 400 l 1
 500 400 l 1
100 267 m 1
 100 400 l 1
 234 400 l 1
 234 267 l 1
 100 267 l 1
100 133 m 1
 100 267 l 1
 234 267 l 1
 234 133 l 1
 100 133 l 1
100 0 m 1x86
 100 133 l 1
 234 133 l 1
 234 0 l 1
 100 0 l 1x86
EndSplineSet
EndChar

StartChar: Q
Encoding: 81 81 16
Width: 734
Flags: W
HStem: 0 267<367 634> 0 133<234 367> 647 20G<100 234 500 634> 647 20G<100 234 500 634> 667 133<234 500>
VStem: 100 134<133 667> 500 134<267 667>
LayerCount: 2
Fore
SplineSet
100 667 m 5x26
 100 800 l 5
 234 800 l 5x0e
 234 667 l 5
 100 667 l 5x26
234 667 m 5x26
 234 800 l 5
 367 800 l 5
 367 667 l 5x0e
 234 667 l 5x26
367 667 m 5
 367 800 l 5
 500 800 l 5x0e
 500 667 l 5x26
 367 667 l 5
100 533 m 5
 100 667 l 5
 234 667 l 5x26
 234 533 l 5
 100 533 l 5
500 533 m 5
 500 667 l 5
 634 667 l 5
 634 533 l 5
 500 533 l 5
100 400 m 5
 100 533 l 5
 234 533 l 5
 234 400 l 5
 100 400 l 5
500 400 m 5
 500 533 l 5
 634 533 l 5
 634 400 l 5
 500 400 l 5
100 267 m 5x86
 100 400 l 5
 234 400 l 5
 234 267 l 5
 100 267 l 5x86
500 267 m 5
 500 400 l 5
 634 400 l 5
 634 267 l 5
 500 267 l 5
100 133 m 5x46
 100 267 l 5
 234 267 l 5x86
 234 133 l 5
 100 133 l 5x46
367 133 m 5x46
 367 267 l 5
 500 267 l 5x86
 500 133 l 5
 367 133 l 5x46
500 133 m 5x46
 500 267 l 5
 634 267 l 5x86
 634 133 l 5
 500 133 l 5x46
234 0 m 5x46
 234 133 l 5
 367 133 l 5x46
 367 0 l 5x86
 234 0 l 5x46
367 0 m 5x86
 367 133 l 5
 500 133 l 5x46
 500 0 l 5
 367 0 l 5x86
500 0 m 5x86
 500 133 l 5
 634 133 l 5x46
 634 0 l 5
 500 0 l 5x86
EndSplineSet
EndChar

StartChar: R
Encoding: 82 82 17
Width: 734
Flags: W
HStem: 0 21G<100 234 500 634> 0 21G<100 234 500 634> 267 133<234 500> 400 133<500 634> 533 134<500 634> 667 133<234 500>
VStem: 100 134<0 267 400 667> 500 134<0 267 400 667>
LayerCount: 2
Fore
SplineSet
100 667 m 5x07
 100 800 l 5
 234 800 l 5
 234 667 l 5
 100 667 l 5x07
234 667 m 5
 234 800 l 5
 367 800 l 5
 367 667 l 5
 234 667 l 5
367 667 m 5
 367 800 l 5
 500 800 l 5x07
 500 667 l 5x0b
 367 667 l 5
100 533 m 5x0b
 100 667 l 5
 234 667 l 5x07
 234 533 l 5
 100 533 l 5x0b
500 533 m 5x13
 500 667 l 5
 634 667 l 5x0b
 634 533 l 5
 500 533 l 5x13
100 400 m 5x13
 100 533 l 5
 234 533 l 5
 234 400 l 5x2b
 100 400 l 5x13
500 400 m 5
 500 533 l 5
 634 533 l 5
 634 400 l 5x13
 500 400 l 5
100 267 m 5x23
 100 400 l 5x13
 234 400 l 5
 234 267 l 5
 100 267 l 5x23
234 267 m 5x23
 234 400 l 5
 367 400 l 5
 367 267 l 5
 234 267 l 5x23
367 267 m 5
 367 400 l 5
 500 400 l 5
 500 267 l 5
 367 267 l 5
100 133 m 5
 100 267 l 5
 234 267 l 5
 234 133 l 5
 100 133 l 5
500 133 m 5
 500 267 l 5
 634 267 l 5
 634 133 l 5
 500 133 l 5
100 0 m 5x83
 100 133 l 5
 234 133 l 5
 234 0 l 5
 100 0 l 5x83
500 0 m 5
 500 133 l 5
 634 133 l 5
 634 0 l 5
 500 0 l 5
EndSplineSet
EndChar

StartChar: S
Encoding: 83 83 18
Width: 734
Flags: W
HStem: 0 133<100 500> 400 133<100 500> 533 134<100 234> 667 133<234 634>
VStem: 100 134<533 667> 500 134<133 400>
LayerCount: 2
Fore
SplineSet
234 667 m 5xac
 234 800 l 5
 367 800 l 5
 367 667 l 5x9c
 234 667 l 5xac
367 667 m 5
 367 800 l 5
 500 800 l 5
 500 667 l 5
 367 667 l 5
500 667 m 5
 500 800 l 5
 634 800 l 5
 634 667 l 5
 500 667 l 5
100 533 m 5xcc
 100 667 l 5
 234 667 l 5xac
 234 533 l 5
 100 533 l 5xcc
100 400 m 5xcc
 100 533 l 5
 234 533 l 5
 234 400 l 5
 100 400 l 5xcc
234 400 m 5
 234 533 l 5
 367 533 l 5
 367 400 l 5
 234 400 l 5
367 400 m 5
 367 533 l 5
 500 533 l 5
 500 400 l 5
 367 400 l 5
500 267 m 5
 500 400 l 5
 634 400 l 5
 634 267 l 5
 500 267 l 5
500 133 m 5
 500 267 l 5
 634 267 l 5
 634 133 l 5
 500 133 l 5
100 0 m 5
 100 133 l 5
 234 133 l 5
 234 0 l 5
 100 0 l 5
234 0 m 5
 234 133 l 5
 367 133 l 5
 367 0 l 5
 234 0 l 5
367 0 m 5
 367 133 l 5
 500 133 l 5
 500 0 l 5
 367 0 l 5
EndSplineSet
EndChar

StartChar: T
Encoding: 84 84 19
Width: 734
Flags: W
HStem: 0 21G<234 367> 0 21G<234 367> 647 20G<234 367> 647 20G<234 367> 667 133<100 234 367 634>
VStem: 234 133<0 667>
LayerCount: 2
Fore
SplineSet
100 667 m 5x0c
 100 800 l 5
 234 800 l 5x0c
 234 667 l 5x24
 100 667 l 5x0c
234 667 m 5x24
 234 800 l 5
 367 800 l 5x0c
 367 667 l 5
 234 667 l 5x24
367 667 m 5x24
 367 800 l 5
 500 800 l 5
 500 667 l 5x0c
 367 667 l 5x24
500 667 m 5
 500 800 l 5
 634 800 l 5
 634 667 l 5
 500 667 l 5
234 533 m 5
 234 667 l 5
 367 667 l 5x24
 367 533 l 5
 234 533 l 5
234 400 m 5
 234 533 l 5
 367 533 l 5
 367 400 l 5
 234 400 l 5
234 267 m 5
 234 400 l 5
 367 400 l 5
 367 267 l 5
 234 267 l 5
234 133 m 5
 234 267 l 5
 367 267 l 5
 367 133 l 5
 234 133 l 5
234 0 m 5x84
 234 133 l 5
 367 133 l 5
 367 0 l 5
 234 0 l 5x84
EndSplineSet
EndChar

StartChar: U
Encoding: 85 85 20
Width: 734
Flags: W
HStem: 0 133<234 500> 647 20G<100 234 500 634> 647 20G<100 234 500 634> 667 21G<100 234 500 634> 667 21G<100 234 500 634> 780 20G<100 234 500 634>
VStem: 100 134<133 800> 500 134<133 800>
LayerCount: 2
Fore
SplineSet
100 667 m 5xc7
 100 800 l 5
 234 800 l 5
 234 667 l 5
 100 667 l 5xc7
500 667 m 5
 500 800 l 5
 634 800 l 5
 634 667 l 5
 500 667 l 5
100 533 m 5
 100 667 l 5
 234 667 l 5
 234 533 l 5
 100 533 l 5
500 533 m 5
 500 667 l 5
 634 667 l 5
 634 533 l 5
 500 533 l 5
100 400 m 5
 100 533 l 5
 234 533 l 5
 234 400 l 5
 100 400 l 5
500 400 m 5
 500 533 l 5
 634 533 l 5
 634 400 l 5
 500 400 l 5
100 267 m 5
 100 400 l 5
 234 400 l 5
 234 267 l 5
 100 267 l 5
500 267 m 5
 500 400 l 5
 634 400 l 5
 634 267 l 5
 500 267 l 5
100 133 m 5
 100 267 l 5
 234 267 l 5
 234 133 l 5
 100 133 l 5
500 133 m 5
 500 267 l 5
 634 267 l 5
 634 133 l 5
 500 133 l 5
234 0 m 5
 234 133 l 5
 367 133 l 5
 367 0 l 5
 234 0 l 5
367 0 m 5
 367 133 l 5
 500 133 l 5
 500 0 l 5
 367 0 l 5
500 0 m 5
 500 133 l 5
 634 133 l 5
 634 0 l 5
 500 0 l 5
EndSplineSet
EndChar

StartChar: V
Encoding: 86 86 21
Width: 734
Flags: W
HStem: 0 133<367 500> 133 134<234 367> 533 134<100 234> 667 133<100 234>
VStem: 100 134<267 800> 234 133<133 267> 367 133<0 133> 500 134<133 800>
LayerCount: 2
Fore
SplineSet
100 667 m 5x28
 100 800 l 5
 234 800 l 5x18
 234 667 l 5
 100 667 l 5x28
500 667 m 5x11
 500 800 l 5
 634 800 l 5
 634 667 l 5
 500 667 l 5x11
100 533 m 5x28
 100 667 l 5
 234 667 l 5
 234 533 l 5
 100 533 l 5x28
500 533 m 5x21
 500 667 l 5
 634 667 l 5x11
 634 533 l 5
 500 533 l 5x21
100 400 m 5x28
 100 533 l 5
 234 533 l 5
 234 400 l 5
 100 400 l 5x28
500 400 m 5x21
 500 533 l 5
 634 533 l 5
 634 400 l 5
 500 400 l 5x21
100 267 m 5x48
 100 400 l 5
 234 400 l 5
 234 267 l 5
 100 267 l 5x48
500 267 m 5x41
 500 400 l 5
 634 400 l 5
 634 267 l 5
 500 267 l 5x41
234 133 m 5x44
 234 267 l 5x48
 367 267 l 5x44
 367 133 l 5x84
 234 133 l 5x44
500 133 m 5x82
 500 267 l 5
 634 267 l 5
 634 133 l 5x41
 500 133 l 5x82
367 0 m 5x82
 367 133 l 5x84
 500 133 l 5
 500 0 l 5
 367 0 l 5x82
EndSplineSet
EndChar

StartChar: W
Encoding: 87 87 22
Width: 734
Flags: W
HStem: 0 133<367 500> 133 134<234 500> 267 133<234 367> 647 20G<100 234 500 634> 647 20G<100 234 500 634> 667 21G<100 234 500 634> 667 21G<100 234 500 634> 780 20G<100 234 500 634>
VStem: 100 134<0 133 400 800> 500 134<267 800>
LayerCount: 2
Fore
SplineSet
100 667 m 5x11c0
 100 800 l 5
 234 800 l 5
 234 667 l 5
 100 667 l 5x11c0
500 667 m 5
 500 800 l 5
 634 800 l 5
 634 667 l 5
 500 667 l 5
100 533 m 5
 100 667 l 5
 234 667 l 5
 234 533 l 5
 100 533 l 5
500 533 m 5
 500 667 l 5
 634 667 l 5
 634 533 l 5
 500 533 l 5
100 400 m 5x21c0
 100 533 l 5
 234 533 l 5
 234 400 l 5
 100 400 l 5x21c0
500 400 m 5
 500 533 l 5
 634 533 l 5
 634 400 l 5
 500 400 l 5
100 267 m 5
 100 400 l 5
 234 400 l 5x21c0
 234 267 l 5x41c0
 100 267 l 5
234 267 m 5x41c0
 234 400 l 5
 367 400 l 5x21c0
 367 267 l 5
 234 267 l 5x41c0
500 267 m 5x41c0
 500 400 l 5
 634 400 l 5
 634 267 l 5x21c0
 500 267 l 5x41c0
100 133 m 5x41c0
 100 267 l 5x21c0
 234 267 l 5
 234 133 l 5
 100 133 l 5x41c0
234 133 m 5x41c0
 234 267 l 5
 367 267 l 5x41c0
 367 133 l 5x81c0
 234 133 l 5x41c0
367 133 m 5x81c0
 367 267 l 5
 500 267 l 5x41c0
 500 133 l 5
 367 133 l 5x81c0
500 133 m 5x81c0
 500 267 l 5x41c0
 634 267 l 5x21c0
 634 133 l 5x41c0
 500 133 l 5x81c0
100 0 m 5x81c0
 100 133 l 5
 234 133 l 5x41c0
 234 0 l 5
 100 0 l 5x81c0
367 0 m 5x81c0
 367 133 l 5
 500 133 l 5
 500 0 l 5
 367 0 l 5x81c0
500 0 m 5
 500 133 l 5x81c0
 634 133 l 5x41c0
 634 0 l 5
 500 0 l 5
EndSplineSet
EndChar

StartChar: X
Encoding: 88 88 23
Width: 734
Flags: W
HStem: 0.00976562 266.66<100.34 233.67 500.33 633.66> 266.67 133.33<233.67 500.33> 400 133.33<233.67 500.33> 533.33 133.33<100.34 233.67 500.33 633.66> 666.66 133.33<100.34 233.67 500.33 633.66>
VStem: 100.34 133.33<0.00976562 266.67 533.33 799.99> 233.67 266.66<266.67 533.33> 500.33 133.33<0.00976562 266.67 533.33 799.99>
LayerCount: 2
Fore
SplineSet
100.33984375 666.66015625 m 1x14
 100.33984375 799.990234375 l 1
 233.669921875 799.990234375 l 1x0c
 233.669921875 666.66015625 l 1
 100.33984375 666.66015625 l 1x14
500.330078125 666.66015625 m 1x11
 500.330078125 799.990234375 l 1
 633.66015625 799.990234375 l 1x09
 633.66015625 666.66015625 l 1
 500.330078125 666.66015625 l 1x11
100.33984375 533.330078125 m 1x14
 100.33984375 666.66015625 l 1
 233.669921875 666.66015625 l 1x14
 233.669921875 533.330078125 l 1x24
 100.33984375 533.330078125 l 1x14
500.330078125 533.330078125 m 1x22
 500.330078125 666.66015625 l 1
 633.66015625 666.66015625 l 1
 633.66015625 533.330078125 l 1x11
 500.330078125 533.330078125 l 1x22
233.669921875 400 m 1x42
 233.669921875 533.330078125 l 1
 367 533.330078125 l 1x24
 367 400 l 1
 233.669921875 400 l 1x42
367 400 m 1x42
 367 533.330078125 l 1
 500.330078125 533.330078125 l 1x22
 500.330078125 400 l 1
 367 400 l 1x42
233.669921875 266.669921875 m 1x84
 233.669921875 400 l 1
 367 400 l 1
 367 266.669921875 l 1x42
 233.669921875 266.669921875 l 1x84
367 266.669921875 m 1
 367 400 l 1
 500.330078125 400 l 1x42
 500.330078125 266.669921875 l 1x82
 367 266.669921875 l 1
100.33984375 133.33984375 m 1x84
 100.33984375 266.669921875 l 1
 233.669921875 266.669921875 l 1
 233.669921875 133.33984375 l 1
 100.33984375 133.33984375 l 1x84
500.330078125 133.33984375 m 1x81
 500.330078125 266.669921875 l 1x82
 633.66015625 266.669921875 l 1
 633.66015625 133.33984375 l 1
 500.330078125 133.33984375 l 1x81
100.33984375 0.009765625 m 1x84
 100.33984375 133.33984375 l 1
 233.669921875 133.33984375 l 1
 233.669921875 0.009765625 l 1
 100.33984375 0.009765625 l 1x84
500.330078125 0.009765625 m 1x81
 500.330078125 133.33984375 l 1
 633.66015625 133.33984375 l 1
 633.66015625 0.009765625 l 1
 500.330078125 0.009765625 l 1x81
EndSplineSet
EndChar

StartChar: Y
Encoding: 89 89 24
Width: 734
Flags: W
HStem: 0 21G<234 367> 0 21G<234 367> 267 133<234 367> 400 267<100 234 500 634> 400 133<234 500> 667 133<100 234 500 634>
VStem: 100 134<533 800> 234 133<0 400> 500 134<533 800>
LayerCount: 2
Fore
SplineSet
100 667 m 5x1280
 100 800 l 5
 234 800 l 5x0680
 234 667 l 5
 100 667 l 5x1280
500 667 m 5x1080
 500 800 l 5
 634 800 l 5x0480
 634 667 l 5
 500 667 l 5x1080
100 533 m 5x0a80
 100 667 l 5
 234 667 l 5x1280
 234 533 l 5
 100 533 l 5x0a80
500 533 m 5x0880
 500 667 l 5
 634 667 l 5x1080
 634 533 l 5
 500 533 l 5x0880
100 400 m 5x1280
 100 533 l 5
 234 533 l 5x0a80
 234 400 l 5x2180
 100 400 l 5x1280
234 400 m 5x2180
 234 533 l 5x0a80
 367 533 l 5x0980
 367 400 l 5
 234 400 l 5x2180
367 400 m 5x2180
 367 533 l 5
 500 533 l 5x0980
 500 400 l 5x1180
 367 400 l 5x2180
500 400 m 5x1080
 500 533 l 5
 634 533 l 5x0880
 634 400 l 5
 500 400 l 5x1080
234 267 m 5x2180
 234 400 l 5
 367 400 l 5
 367 267 l 5
 234 267 l 5x2180
234 133 m 5
 234 267 l 5
 367 267 l 5
 367 133 l 5
 234 133 l 5
234 0 m 5x8180
 234 133 l 5
 367 133 l 5
 367 0 l 5
 234 0 l 5x8180
EndSplineSet
EndChar

StartChar: Z
Encoding: 90 90 25
Width: 734
Flags: W
HStem: 0 133<100 634> 133 134<100 234> 267 133<234 367> 400 133<367 500> 533 134<500 634> 667 133<234 634>
VStem: 100 134<133 267> 234 133<267 400> 367 133<400 533> 500 134<533 667>
LayerCount: 2
Fore
SplineSet
234 667 m 1x05
 234 800 l 1x05
 367 800 l 1
 367 667 l 1x0480
 234 667 l 1x05
367 667 m 1x0480
 367 800 l 1x0480
 500 800 l 1x0440
 500 667 l 1x0840
 367 667 l 1x0480
500 667 m 1x0840
 500 800 l 1
 634 800 l 1x0440
 634 667 l 1
 500 667 l 1x0840
500 533 m 1x1080
 500 667 l 1
 634 667 l 1
 634 533 l 1x0840
 500 533 l 1x1080
367 400 m 1x21
 367 533 l 1
 500 533 l 1
 500 400 l 1x1080
 367 400 l 1x21
234 267 m 1x42
 234 400 l 1
 367 400 l 1
 367 267 l 1x21
 234 267 l 1x42
100 133 m 1x82
 100 267 l 1
 234 267 l 1x42
 234 133 l 1
 100 133 l 1x82
100 0 m 1x82
 100 133 l 1
 234 133 l 1x82
 234 0 l 1x81
 100 0 l 1x82
234 0 m 1x81
 234 133 l 1
 367 133 l 1
 367 0 l 1x8280
 234 0 l 1x81
367 0 m 1
 367 133 l 1x8080
 500 133 l 1
 500 0 l 1x8040
 367 0 l 1
500 0 m 1x8040
 500 133 l 1
 634 133 l 1
 634 0 l 1
 500 0 l 1x8040
EndSplineSet
EndChar

StartChar: a
Encoding: 97 97 26
Width: 734
Flags: W
HStem: 0.0195312 222.491<144.509 256.171 477.829 589.491> 110.849 111.662<256.171 477.829> 222.511 333.32<144.509 256.171 477.829 589.491> 555.831 110.829<256.171 477.829>
VStem: 144.509 111.662<0.0195312 110.849 222.511 555.831> 477.829 111.662<0.0195312 110.849 222.511 555.831>
LayerCount: 2
Fore
SplineSet
256.170898438 555.831054688 m 1x2c
 256.170898438 666.66015625 l 1
 367 666.66015625 l 1
 367 555.831054688 l 1x1c
 256.170898438 555.831054688 l 1x2c
367 555.831054688 m 1
 367 666.66015625 l 1
 477.829101562 666.66015625 l 1x1c
 477.829101562 555.831054688 l 1x2c
 367 555.831054688 l 1
144.508789062 444.168945312 m 1
 144.508789062 555.831054688 l 1
 256.170898438 555.831054688 l 1x2c
 256.170898438 444.168945312 l 1
 144.508789062 444.168945312 l 1
477.829101562 444.168945312 m 1
 477.829101562 555.831054688 l 1
 589.491210938 555.831054688 l 1
 589.491210938 444.168945312 l 1
 477.829101562 444.168945312 l 1
144.508789062 333.33984375 m 1
 144.508789062 444.168945312 l 1
 256.170898438 444.168945312 l 1
 256.170898438 333.33984375 l 1
 144.508789062 333.33984375 l 1
477.829101562 333.33984375 m 1
 477.829101562 444.168945312 l 1
 589.491210938 444.168945312 l 1
 589.491210938 333.33984375 l 1
 477.829101562 333.33984375 l 1
144.508789062 222.510742188 m 1x8c
 144.508789062 333.33984375 l 1
 256.170898438 333.33984375 l 1
 256.170898438 222.510742188 l 1
 144.508789062 222.510742188 l 1x8c
477.829101562 222.510742188 m 1
 477.829101562 333.33984375 l 1
 589.491210938 333.33984375 l 1
 589.491210938 222.510742188 l 1
 477.829101562 222.510742188 l 1
144.508789062 110.848632812 m 1x4c
 144.508789062 222.510742188 l 1
 256.170898438 222.510742188 l 1x8c
 256.170898438 110.848632812 l 1
 144.508789062 110.848632812 l 1x4c
256.170898438 110.848632812 m 1x4c
 256.170898438 222.510742188 l 1x8c
 367 222.510742188 l 1
 367 110.848632812 l 1
 256.170898438 110.848632812 l 1x4c
367 110.848632812 m 1x4c
 367 222.510742188 l 1x4c
 477.829101562 222.510742188 l 1x8c
 477.829101562 110.848632812 l 1
 367 110.848632812 l 1x4c
477.829101562 110.848632812 m 1
 477.829101562 222.510742188 l 1
 589.491210938 222.510742188 l 1x8c
 589.491210938 110.848632812 l 1
 477.829101562 110.848632812 l 1
144.508789062 0.01953125 m 1
 144.508789062 110.848632812 l 1
 256.170898438 110.848632812 l 1x4c
 256.170898438 0.01953125 l 1
 144.508789062 0.01953125 l 1
477.829101562 0.01953125 m 1x8c
 477.829101562 110.848632812 l 1
 589.491210938 110.848632812 l 1x4c
 589.491210938 0.01953125 l 1
 477.829101562 0.01953125 l 1x8c
EndSplineSet
EndChar

StartChar: b
Encoding: 98 98 27
Width: 734
Flags: W
HStem: 0.0195312 110.829<256.171 477.829> 110.849 111.662<477.829 589.491> 222.511 110.829<256.171 477.829> 333.34 110.829<477.829 589.491> 444.169 111.662<477.829 589.491> 555.831 110.829<256.171 477.829>
VStem: 144.509 333.32<0.0195312 110.849 222.511 333.34 555.831 666.66> 144.509 111.662<110.849 222.511 333.34 555.831> 477.829 111.662<110.849 222.511 333.34 555.831>
LayerCount: 2
Fore
SplineSet
144.508789062 555.831054688 m 1x06
 144.508789062 666.66015625 l 1x06
 256.170898438 666.66015625 l 1
 256.170898438 555.831054688 l 1x05
 144.508789062 555.831054688 l 1x06
256.170898438 555.831054688 m 1x05
 256.170898438 666.66015625 l 1
 367 666.66015625 l 1
 367 555.831054688 l 1
 256.170898438 555.831054688 l 1x05
367 555.831054688 m 1
 367 666.66015625 l 1
 477.829101562 666.66015625 l 1x06
 477.829101562 555.831054688 l 1x0a
 367 555.831054688 l 1
144.508789062 444.168945312 m 1x09
 144.508789062 555.831054688 l 1x06
 256.170898438 555.831054688 l 1x05
 256.170898438 444.168945312 l 1
 144.508789062 444.168945312 l 1x09
477.829101562 444.168945312 m 1x1080
 477.829101562 555.831054688 l 1x0a
 589.491210938 555.831054688 l 1x0880
 589.491210938 444.168945312 l 1
 477.829101562 444.168945312 l 1x1080
144.508789062 333.33984375 m 1x12
 144.508789062 444.168945312 l 1
 256.170898438 444.168945312 l 1
 256.170898438 333.33984375 l 1x29
 144.508789062 333.33984375 l 1x12
477.829101562 333.33984375 m 1x22
 477.829101562 444.168945312 l 1
 589.491210938 444.168945312 l 1
 589.491210938 333.33984375 l 1x1080
 477.829101562 333.33984375 l 1x22
144.508789062 222.510742188 m 1x22
 144.508789062 333.33984375 l 1x12
 256.170898438 333.33984375 l 1
 256.170898438 222.510742188 l 1x21
 144.508789062 222.510742188 l 1x22
256.170898438 222.510742188 m 1x21
 256.170898438 333.33984375 l 1
 367 333.33984375 l 1
 367 222.510742188 l 1
 256.170898438 222.510742188 l 1x21
367 222.510742188 m 1
 367 333.33984375 l 1
 477.829101562 333.33984375 l 1x22
 477.829101562 222.510742188 l 1x42
 367 222.510742188 l 1
144.508789062 110.848632812 m 1x42
 144.508789062 222.510742188 l 1x22
 256.170898438 222.510742188 l 1
 256.170898438 110.848632812 l 1xa1
 144.508789062 110.848632812 l 1x42
477.829101562 110.848632812 m 1x82
 477.829101562 222.510742188 l 1x42
 589.491210938 222.510742188 l 1
 589.491210938 110.848632812 l 1x4080
 477.829101562 110.848632812 l 1x82
144.508789062 0.01953125 m 1x82
 144.508789062 110.848632812 l 1x42
 256.170898438 110.848632812 l 1
 256.170898438 0.01953125 l 1x81
 144.508789062 0.01953125 l 1x82
256.170898438 0.01953125 m 1x81
 256.170898438 110.848632812 l 1
 367 110.848632812 l 1
 367 0.01953125 l 1
 256.170898438 0.01953125 l 1x81
367 0.01953125 m 1
 367 110.848632812 l 1
 477.829101562 110.848632812 l 1
 477.829101562 0.01953125 l 1x82
 367 0.01953125 l 1
EndSplineSet
EndChar

StartChar: c
Encoding: 99 99 28
Width: 734
Flags: W
HStem: 0.0195312 110.829<256.171 589.491> 333.34 110.829<144.509 256.171> 444.169 111.662<256.171 367> 555.831 110.829<367 589.491>
VStem: 144.509 111.662<110.849 444.169> 256.171 110.829<444.169 555.831>
LayerCount: 2
Fore
SplineSet
367 555.831054688 m 1xa4
 367 666.66015625 l 1
 477.829101562 666.66015625 l 1
 477.829101562 555.831054688 l 1x94
 367 555.831054688 l 1xa4
477.829101562 555.831054688 m 1
 477.829101562 666.66015625 l 1
 589.491210938 666.66015625 l 1
 589.491210938 555.831054688 l 1
 477.829101562 555.831054688 l 1
256.170898438 444.168945312 m 1xc8
 256.170898438 555.831054688 l 1
 367 555.831054688 l 1
 367 444.168945312 l 1xa4
 256.170898438 444.168945312 l 1xc8
144.508789062 333.33984375 m 1xc8
 144.508789062 444.168945312 l 1
 256.170898438 444.168945312 l 1
 256.170898438 333.33984375 l 1
 144.508789062 333.33984375 l 1xc8
144.508789062 222.510742188 m 1
 144.508789062 333.33984375 l 1
 256.170898438 333.33984375 l 1
 256.170898438 222.510742188 l 1
 144.508789062 222.510742188 l 1
144.508789062 110.848632812 m 1
 144.508789062 222.510742188 l 1
 256.170898438 222.510742188 l 1
 256.170898438 110.848632812 l 1
 144.508789062 110.848632812 l 1
256.170898438 0.01953125 m 1x84
 256.170898438 110.848632812 l 1x88
 367 110.848632812 l 1
 367 0.01953125 l 1
 256.170898438 0.01953125 l 1x84
367 0.01953125 m 1x84
 367 110.848632812 l 1
 477.829101562 110.848632812 l 1
 477.829101562 0.01953125 l 1
 367 0.01953125 l 1x84
477.829101562 0.01953125 m 1
 477.829101562 110.848632812 l 1
 589.491210938 110.848632812 l 1
 589.491210938 0.01953125 l 1
 477.829101562 0.01953125 l 1
EndSplineSet
EndChar

StartChar: d
Encoding: 100 100 29
Width: 734
Flags: W
HStem: 0.0195312 110.829<256.171 477.829> 333.34 110.829<477.829 589.491> 444.169 111.662<477.829 589.491> 555.831 110.829<256.171 477.829>
VStem: 144.509 111.662<110.849 555.831> 477.829 111.662<110.849 555.831>
LayerCount: 2
Fore
SplineSet
144.508789062 555.831054688 m 5x9c
 144.508789062 666.66015625 l 5
 256.170898438 666.66015625 l 5
 256.170898438 555.831054688 l 5
 144.508789062 555.831054688 l 5x9c
256.170898438 555.831054688 m 5
 256.170898438 666.66015625 l 5
 367 666.66015625 l 5
 367 555.831054688 l 5
 256.170898438 555.831054688 l 5
367 555.831054688 m 5
 367 666.66015625 l 5
 477.829101562 666.66015625 l 5x9c
 477.829101562 555.831054688 l 5xac
 367 555.831054688 l 5
144.508789062 444.168945312 m 5xac
 144.508789062 555.831054688 l 5
 256.170898438 555.831054688 l 5x9c
 256.170898438 444.168945312 l 5
 144.508789062 444.168945312 l 5xac
477.829101562 444.168945312 m 5xcc
 477.829101562 555.831054688 l 5
 589.491210938 555.831054688 l 5xac
 589.491210938 444.168945312 l 5
 477.829101562 444.168945312 l 5xcc
144.508789062 333.33984375 m 5xcc
 144.508789062 444.168945312 l 5
 256.170898438 444.168945312 l 5xac
 256.170898438 333.33984375 l 5
 144.508789062 333.33984375 l 5xcc
477.829101562 333.33984375 m 5xcc
 477.829101562 444.168945312 l 5
 589.491210938 444.168945312 l 5
 589.491210938 333.33984375 l 5
 477.829101562 333.33984375 l 5xcc
144.508789062 222.510742188 m 5
 144.508789062 333.33984375 l 5
 256.170898438 333.33984375 l 5
 256.170898438 222.510742188 l 5
 144.508789062 222.510742188 l 5
477.829101562 222.510742188 m 5
 477.829101562 333.33984375 l 5
 589.491210938 333.33984375 l 5
 589.491210938 222.510742188 l 5
 477.829101562 222.510742188 l 5
144.508789062 110.848632812 m 5
 144.508789062 222.510742188 l 5
 256.170898438 222.510742188 l 5
 256.170898438 110.848632812 l 5
 144.508789062 110.848632812 l 5
477.829101562 110.848632812 m 5
 477.829101562 222.510742188 l 5
 589.491210938 222.510742188 l 5
 589.491210938 110.848632812 l 5
 477.829101562 110.848632812 l 5
144.508789062 0.01953125 m 5
 144.508789062 110.848632812 l 5
 256.170898438 110.848632812 l 5
 256.170898438 0.01953125 l 5
 144.508789062 0.01953125 l 5
256.170898438 0.01953125 m 5
 256.170898438 110.848632812 l 5
 367 110.848632812 l 5
 367 0.01953125 l 5
 256.170898438 0.01953125 l 5
367 0.01953125 m 5
 367 110.848632812 l 5
 477.829101562 110.848632812 l 5
 477.829101562 0.01953125 l 5
 367 0.01953125 l 5
EndSplineSet
EndChar

StartChar: e
Encoding: 101 101 30
Width: 734
Flags: W
HStem: 0.0195312 110.829<256.171 589.491> 222.511 110.829<256.171 477.829> 555.831 110.829<256.171 477.829>
VStem: 144.509 111.662<110.849 222.511 333.34 555.831>
LayerCount: 2
Fore
SplineSet
144.508789062 555.831054688 m 5
 144.508789062 666.66015625 l 5
 256.170898438 666.66015625 l 5
 256.170898438 555.831054688 l 5
 144.508789062 555.831054688 l 5
256.170898438 555.831054688 m 5
 256.170898438 666.66015625 l 5
 367 666.66015625 l 5
 367 555.831054688 l 5
 256.170898438 555.831054688 l 5
367 555.831054688 m 5
 367 666.66015625 l 5
 477.829101562 666.66015625 l 5
 477.829101562 555.831054688 l 5
 367 555.831054688 l 5
144.508789062 444.168945312 m 5
 144.508789062 555.831054688 l 5
 256.170898438 555.831054688 l 5
 256.170898438 444.168945312 l 5
 144.508789062 444.168945312 l 5
144.508789062 333.33984375 m 5
 144.508789062 444.168945312 l 5
 256.170898438 444.168945312 l 5
 256.170898438 333.33984375 l 5
 144.508789062 333.33984375 l 5
144.508789062 222.510742188 m 5
 144.508789062 333.33984375 l 5
 256.170898438 333.33984375 l 5
 256.170898438 222.510742188 l 5
 144.508789062 222.510742188 l 5
256.170898438 222.510742188 m 5
 256.170898438 333.33984375 l 5
 367 333.33984375 l 5
 367 222.510742188 l 5
 256.170898438 222.510742188 l 5
367 222.510742188 m 5
 367 333.33984375 l 5
 477.829101562 333.33984375 l 5
 477.829101562 222.510742188 l 5
 367 222.510742188 l 5
144.508789062 110.848632812 m 5
 144.508789062 222.510742188 l 5
 256.170898438 222.510742188 l 5
 256.170898438 110.848632812 l 5
 144.508789062 110.848632812 l 5
144.508789062 0.01953125 m 5
 144.508789062 110.848632812 l 5
 256.170898438 110.848632812 l 5
 256.170898438 0.01953125 l 5
 144.508789062 0.01953125 l 5
256.170898438 0.01953125 m 5
 256.170898438 110.848632812 l 5
 367 110.848632812 l 5
 367 0.01953125 l 5
 256.170898438 0.01953125 l 5
367 0.01953125 m 5
 367 110.848632812 l 5
 477.829101562 110.848632812 l 5
 477.829101562 0.01953125 l 5
 367 0.01953125 l 5
477.829101562 0.01953125 m 5
 477.829101562 110.848632812 l 5
 589.491210938 110.848632812 l 5
 589.491210938 0.01953125 l 5
 477.829101562 0.01953125 l 5
EndSplineSet
EndChar

StartChar: f
Encoding: 102 102 31
Width: 734
Flags: W
HStem: 0.0195312 21G<144.509 256.171> 0.0195312 21G<144.509 256.171> 333.34 110.829<256.171 477.829> 555.831 110.829<256.171 589.491>
VStem: 144.509 111.662<0.0195312 333.34 444.169 555.831>
LayerCount: 2
Fore
SplineSet
256.170898438 555.831054688 m 5x38
 256.170898438 666.66015625 l 5
 367 666.66015625 l 5
 367 555.831054688 l 5
 256.170898438 555.831054688 l 5x38
367 555.831054688 m 5
 367 666.66015625 l 5
 477.829101562 666.66015625 l 5
 477.829101562 555.831054688 l 5
 367 555.831054688 l 5
477.829101562 555.831054688 m 5
 477.829101562 666.66015625 l 5
 589.491210938 666.66015625 l 5
 589.491210938 555.831054688 l 5
 477.829101562 555.831054688 l 5
144.508789062 444.168945312 m 5
 144.508789062 555.831054688 l 5
 256.170898438 555.831054688 l 5
 256.170898438 444.168945312 l 5
 144.508789062 444.168945312 l 5
144.508789062 333.33984375 m 5
 144.508789062 444.168945312 l 5
 256.170898438 444.168945312 l 5
 256.170898438 333.33984375 l 5
 144.508789062 333.33984375 l 5
256.170898438 333.33984375 m 5
 256.170898438 444.168945312 l 5
 367 444.168945312 l 5
 367 333.33984375 l 5
 256.170898438 333.33984375 l 5
367 333.33984375 m 5
 367 444.168945312 l 5
 477.829101562 444.168945312 l 5
 477.829101562 333.33984375 l 5
 367 333.33984375 l 5
144.508789062 222.510742188 m 5
 144.508789062 333.33984375 l 5
 256.170898438 333.33984375 l 5
 256.170898438 222.510742188 l 5
 144.508789062 222.510742188 l 5
144.508789062 110.848632812 m 5
 144.508789062 222.510742188 l 5
 256.170898438 222.510742188 l 5
 256.170898438 110.848632812 l 5
 144.508789062 110.848632812 l 5
144.508789062 0.01953125 m 5xb8
 144.508789062 110.848632812 l 5
 256.170898438 110.848632812 l 5
 256.170898438 0.01953125 l 5
 144.508789062 0.01953125 l 5xb8
EndSplineSet
EndChar

StartChar: g
Encoding: 103 103 32
Width: 734
Flags: W
HStem: 0.0195312 110.829<256.171 477.829> 222.511 110.829<367 589.491> 333.34 110.829<144.509 256.171> 444.169 111.662<144.509 256.171> 555.831 110.829<256.171 589.491>
VStem: 144.509 111.662<110.849 555.831> 477.829 111.662<110.849 222.511>
LayerCount: 2
Fore
SplineSet
256.170898438 555.831054688 m 5x96
 256.170898438 666.66015625 l 5
 367 666.66015625 l 5
 367 555.831054688 l 5x8e
 256.170898438 555.831054688 l 5x96
367 555.831054688 m 5
 367 666.66015625 l 5
 477.829101562 666.66015625 l 5
 477.829101562 555.831054688 l 5
 367 555.831054688 l 5
477.829101562 555.831054688 m 5
 477.829101562 666.66015625 l 5
 589.491210938 666.66015625 l 5
 589.491210938 555.831054688 l 5
 477.829101562 555.831054688 l 5
144.508789062 444.168945312 m 5xa6
 144.508789062 555.831054688 l 5
 256.170898438 555.831054688 l 5x96
 256.170898438 444.168945312 l 5
 144.508789062 444.168945312 l 5xa6
144.508789062 333.33984375 m 5xa6
 144.508789062 444.168945312 l 5
 256.170898438 444.168945312 l 5
 256.170898438 333.33984375 l 5
 144.508789062 333.33984375 l 5xa6
144.508789062 222.510742188 m 5xc6
 144.508789062 333.33984375 l 5
 256.170898438 333.33984375 l 5xa6
 256.170898438 222.510742188 l 5
 144.508789062 222.510742188 l 5xc6
367 222.510742188 m 5xc6
 367 333.33984375 l 5
 477.829101562 333.33984375 l 5
 477.829101562 222.510742188 l 5
 367 222.510742188 l 5xc6
477.829101562 222.510742188 m 5
 477.829101562 333.33984375 l 5
 589.491210938 333.33984375 l 5
 589.491210938 222.510742188 l 5
 477.829101562 222.510742188 l 5
144.508789062 110.848632812 m 5
 144.508789062 222.510742188 l 5
 256.170898438 222.510742188 l 5
 256.170898438 110.848632812 l 5
 144.508789062 110.848632812 l 5
477.829101562 110.848632812 m 5
 477.829101562 222.510742188 l 5
 589.491210938 222.510742188 l 5
 589.491210938 110.848632812 l 5
 477.829101562 110.848632812 l 5
256.170898438 0.01953125 m 5
 256.170898438 110.848632812 l 5
 367 110.848632812 l 5
 367 0.01953125 l 5
 256.170898438 0.01953125 l 5
367 0.01953125 m 5
 367 110.848632812 l 5
 477.829101562 110.848632812 l 5
 477.829101562 0.01953125 l 5
 367 0.01953125 l 5
477.829101562 0.01953125 m 5
 477.829101562 110.848632812 l 5
 589.491210938 110.848632812 l 5
 589.491210938 0.01953125 l 5
 477.829101562 0.01953125 l 5
EndSplineSet
EndChar

StartChar: h
Encoding: 104 104 33
Width: 734
Flags: W
HStem: 0.0195312 21G<144.509 256.171 477.829 589.491> 0.0195312 21G<144.509 256.171 477.829 589.491> 222.511 110.829<256.171 477.829> 646.66 20G<144.509 256.171 477.829 589.491> 646.66 20G<144.509 256.171 477.829 589.491>
VStem: 144.509 111.662<0.0195312 222.511 333.34 666.66> 477.829 111.662<0.0195312 222.511 333.34 666.66>
LayerCount: 2
Fore
SplineSet
144.508789062 555.831054688 m 5x36
 144.508789062 666.66015625 l 5
 256.170898438 666.66015625 l 5
 256.170898438 555.831054688 l 5
 144.508789062 555.831054688 l 5x36
477.829101562 555.831054688 m 5
 477.829101562 666.66015625 l 5
 589.491210938 666.66015625 l 5
 589.491210938 555.831054688 l 5
 477.829101562 555.831054688 l 5
144.508789062 444.168945312 m 5
 144.508789062 555.831054688 l 5
 256.170898438 555.831054688 l 5
 256.170898438 444.168945312 l 5
 144.508789062 444.168945312 l 5
477.829101562 444.168945312 m 5
 477.829101562 555.831054688 l 5
 589.491210938 555.831054688 l 5
 589.491210938 444.168945312 l 5
 477.829101562 444.168945312 l 5
144.508789062 333.33984375 m 5
 144.508789062 444.168945312 l 5
 256.170898438 444.168945312 l 5
 256.170898438 333.33984375 l 5
 144.508789062 333.33984375 l 5
477.829101562 333.33984375 m 5
 477.829101562 444.168945312 l 5
 589.491210938 444.168945312 l 5
 589.491210938 333.33984375 l 5
 477.829101562 333.33984375 l 5
144.508789062 222.510742188 m 5
 144.508789062 333.33984375 l 5
 256.170898438 333.33984375 l 5
 256.170898438 222.510742188 l 5
 144.508789062 222.510742188 l 5
256.170898438 222.510742188 m 5
 256.170898438 333.33984375 l 5
 367 333.33984375 l 5
 367 222.510742188 l 5
 256.170898438 222.510742188 l 5
367 222.510742188 m 5
 367 333.33984375 l 5
 477.829101562 333.33984375 l 5
 477.829101562 222.510742188 l 5
 367 222.510742188 l 5
477.829101562 222.510742188 m 5
 477.829101562 333.33984375 l 5
 589.491210938 333.33984375 l 5
 589.491210938 222.510742188 l 5
 477.829101562 222.510742188 l 5
144.508789062 110.848632812 m 5
 144.508789062 222.510742188 l 5
 256.170898438 222.510742188 l 5
 256.170898438 110.848632812 l 5
 144.508789062 110.848632812 l 5
477.829101562 110.848632812 m 5
 477.829101562 222.510742188 l 5
 589.491210938 222.510742188 l 5
 589.491210938 110.848632812 l 5
 477.829101562 110.848632812 l 5
144.508789062 0.01953125 m 5xa6
 144.508789062 110.848632812 l 5
 256.170898438 110.848632812 l 5
 256.170898438 0.01953125 l 5
 144.508789062 0.01953125 l 5xa6
477.829101562 0.01953125 m 5
 477.829101562 110.848632812 l 5
 589.491210938 110.848632812 l 5
 589.491210938 0.01953125 l 5
 477.829101562 0.01953125 l 5
EndSplineSet
EndChar

StartChar: i
Encoding: 105 105 34
Width: 734
Flags: W
HStem: 0.0195312 110.829<144.509 256.171 367 589.491> 555.831 110.829<144.509 256.171 367 589.491>
VStem: 256.171 110.829<110.849 555.831>
LayerCount: 2
Fore
SplineSet
144.508789062 555.831054688 m 5
 144.508789062 666.66015625 l 5
 256.170898438 666.66015625 l 5
 256.170898438 555.831054688 l 5
 144.508789062 555.831054688 l 5
256.170898438 555.831054688 m 5
 256.170898438 666.66015625 l 5
 367 666.66015625 l 5
 367 555.831054688 l 5
 256.170898438 555.831054688 l 5
367 555.831054688 m 5
 367 666.66015625 l 5
 477.829101562 666.66015625 l 5
 477.829101562 555.831054688 l 5
 367 555.831054688 l 5
477.829101562 555.831054688 m 5
 477.829101562 666.66015625 l 5
 589.491210938 666.66015625 l 5
 589.491210938 555.831054688 l 5
 477.829101562 555.831054688 l 5
256.170898438 444.168945312 m 5
 256.170898438 555.831054688 l 5
 367 555.831054688 l 5
 367 444.168945312 l 5
 256.170898438 444.168945312 l 5
256.170898438 333.33984375 m 5
 256.170898438 444.168945312 l 5
 367 444.168945312 l 5
 367 333.33984375 l 5
 256.170898438 333.33984375 l 5
256.170898438 222.510742188 m 5
 256.170898438 333.33984375 l 5
 367 333.33984375 l 5
 367 222.510742188 l 5
 256.170898438 222.510742188 l 5
256.170898438 110.848632812 m 5
 256.170898438 222.510742188 l 5
 367 222.510742188 l 5
 367 110.848632812 l 5
 256.170898438 110.848632812 l 5
144.508789062 0.01953125 m 5
 144.508789062 110.848632812 l 5
 256.170898438 110.848632812 l 5
 256.170898438 0.01953125 l 5
 144.508789062 0.01953125 l 5
256.170898438 0.01953125 m 5
 256.170898438 110.848632812 l 5
 367 110.848632812 l 5
 367 0.01953125 l 5
 256.170898438 0.01953125 l 5
367 0.01953125 m 5
 367 110.848632812 l 5
 477.829101562 110.848632812 l 5
 477.829101562 0.01953125 l 5
 367 0.01953125 l 5
477.829101562 0.01953125 m 5
 477.829101562 110.848632812 l 5
 589.491210938 110.848632812 l 5
 589.491210938 0.01953125 l 5
 477.829101562 0.01953125 l 5
EndSplineSet
EndChar

StartChar: j
Encoding: 106 106 35
Width: 734
Flags: W
HStem: 0.0195312 110.829<144.509 367> 110.849 111.662<144.509 256.171> 555.831 110.829<256.171 367 477.829 589.491>
VStem: 144.509 111.662<110.849 222.511> 367 110.829<110.849 555.831>
LayerCount: 2
Fore
SplineSet
256.170898438 555.831054688 m 1x38
 256.170898438 666.66015625 l 1
 367 666.66015625 l 1
 367 555.831054688 l 1
 256.170898438 555.831054688 l 1x38
367 555.831054688 m 1
 367 666.66015625 l 1
 477.829101562 666.66015625 l 1
 477.829101562 555.831054688 l 1
 367 555.831054688 l 1
477.829101562 555.831054688 m 1
 477.829101562 666.66015625 l 1
 589.491210938 666.66015625 l 1
 589.491210938 555.831054688 l 1
 477.829101562 555.831054688 l 1
367 444.168945312 m 1
 367 555.831054688 l 1
 477.829101562 555.831054688 l 1
 477.829101562 444.168945312 l 1
 367 444.168945312 l 1
367 333.33984375 m 1
 367 444.168945312 l 1
 477.829101562 444.168945312 l 1
 477.829101562 333.33984375 l 1
 367 333.33984375 l 1
367 222.510742188 m 1x78
 367 333.33984375 l 1
 477.829101562 333.33984375 l 1
 477.829101562 222.510742188 l 1
 367 222.510742188 l 1x78
144.508789062 110.848632812 m 1xb8
 144.508789062 222.510742188 l 1
 256.170898438 222.510742188 l 1x78
 256.170898438 110.848632812 l 1
 144.508789062 110.848632812 l 1xb8
367 110.848632812 m 1xb8
 367 222.510742188 l 1
 477.829101562 222.510742188 l 1
 477.829101562 110.848632812 l 1x78
 367 110.848632812 l 1xb8
144.508789062 0.01953125 m 1xb8
 144.508789062 110.848632812 l 1
 256.170898438 110.848632812 l 1
 256.170898438 0.01953125 l 1
 144.508789062 0.01953125 l 1xb8
256.170898438 0.01953125 m 1
 256.170898438 110.848632812 l 1
 367 110.848632812 l 1
 367 0.01953125 l 1
 256.170898438 0.01953125 l 1
367 0.01953125 m 1
 367 110.848632812 l 1xb8
 477.829101562 110.848632812 l 1x78
 477.829101562 0.01953125 l 1
 367 0.01953125 l 1
EndSplineSet
EndChar

StartChar: k
Encoding: 107 107 36
Width: 734
Flags: W
HStem: 0.0195312 110.829<477.829 589.491> 110.849 111.662<367 477.829> 222.511 110.829<256.171 367> 333.34 110.829<367 477.829> 444.169 111.662<477.829 589.491> 555.831 110.829<477.829 589.491>
VStem: 144.509 111.662<0.0195312 222.511 333.34 666.66> 367 110.829<110.849 222.511 333.34 444.169> 477.829 111.662<0.0195312 110.849 444.169 666.66>
LayerCount: 2
Fore
SplineSet
144.508789062 555.831054688 m 5x06
 144.508789062 666.66015625 l 5
 256.170898438 666.66015625 l 5
 256.170898438 555.831054688 l 5
 144.508789062 555.831054688 l 5x06
477.829101562 555.831054688 m 5x0a80
 477.829101562 666.66015625 l 5
 589.491210938 666.66015625 l 5x0680
 589.491210938 555.831054688 l 5
 477.829101562 555.831054688 l 5x0a80
144.508789062 444.168945312 m 5x0a
 144.508789062 555.831054688 l 5
 256.170898438 555.831054688 l 5x06
 256.170898438 444.168945312 l 5
 144.508789062 444.168945312 l 5x0a
477.829101562 444.168945312 m 5x13
 477.829101562 555.831054688 l 5
 589.491210938 555.831054688 l 5
 589.491210938 444.168945312 l 5x0a80
 477.829101562 444.168945312 l 5x13
144.508789062 333.33984375 m 5x12
 144.508789062 444.168945312 l 5
 256.170898438 444.168945312 l 5
 256.170898438 333.33984375 l 5x2a
 144.508789062 333.33984375 l 5x12
367 333.33984375 m 5x23
 367 444.168945312 l 5
 477.829101562 444.168945312 l 5
 477.829101562 333.33984375 l 5x13
 367 333.33984375 l 5x23
144.508789062 222.510742188 m 5x22
 144.508789062 333.33984375 l 5x12
 256.170898438 333.33984375 l 5
 256.170898438 222.510742188 l 5
 144.508789062 222.510742188 l 5x22
256.170898438 222.510742188 m 5x23
 256.170898438 333.33984375 l 5
 367 333.33984375 l 5x23
 367 222.510742188 l 5x43
 256.170898438 222.510742188 l 5x23
144.508789062 110.848632812 m 5x42
 144.508789062 222.510742188 l 5
 256.170898438 222.510742188 l 5x22
 256.170898438 110.848632812 l 5
 144.508789062 110.848632812 l 5x42
367 110.848632812 m 5x43
 367 222.510742188 l 5
 477.829101562 222.510742188 l 5x43
 477.829101562 110.848632812 l 5x83
 367 110.848632812 l 5x43
144.508789062 0.01953125 m 5x82
 144.508789062 110.848632812 l 5
 256.170898438 110.848632812 l 5x42
 256.170898438 0.01953125 l 5
 144.508789062 0.01953125 l 5x82
477.829101562 0.01953125 m 5x8280
 477.829101562 110.848632812 l 5x83
 589.491210938 110.848632812 l 5
 589.491210938 0.01953125 l 5
 477.829101562 0.01953125 l 5x8280
EndSplineSet
EndChar

StartChar: l
Encoding: 108 108 37
Width: 734
Flags: W
HStem: 0.0195312 110.829<256.171 589.491> 646.66 20G<144.509 256.171> 646.66 20G<144.509 256.171>
VStem: 144.509 111.662<110.849 666.66>
LayerCount: 2
Fore
SplineSet
144.508789062 555.831054688 m 5xd0
 144.508789062 666.66015625 l 5
 256.170898438 666.66015625 l 5
 256.170898438 555.831054688 l 5
 144.508789062 555.831054688 l 5xd0
144.508789062 444.168945312 m 5
 144.508789062 555.831054688 l 5
 256.170898438 555.831054688 l 5
 256.170898438 444.168945312 l 5
 144.508789062 444.168945312 l 5
144.508789062 333.33984375 m 5
 144.508789062 444.168945312 l 5
 256.170898438 444.168945312 l 5
 256.170898438 333.33984375 l 5
 144.508789062 333.33984375 l 5
144.508789062 222.510742188 m 5
 144.508789062 333.33984375 l 5
 256.170898438 333.33984375 l 5
 256.170898438 222.510742188 l 5
 144.508789062 222.510742188 l 5
144.508789062 110.848632812 m 5
 144.508789062 222.510742188 l 5
 256.170898438 222.510742188 l 5
 256.170898438 110.848632812 l 5
 144.508789062 110.848632812 l 5
256.170898438 0.01953125 m 5
 256.170898438 110.848632812 l 5
 367 110.848632812 l 5
 367 0.01953125 l 5
 256.170898438 0.01953125 l 5
367 0.01953125 m 5
 367 110.848632812 l 5
 477.829101562 110.848632812 l 5
 477.829101562 0.01953125 l 5
 367 0.01953125 l 5
477.829101562 0.01953125 m 5
 477.829101562 110.848632812 l 5
 589.491210938 110.848632812 l 5
 589.491210938 0.01953125 l 5
 477.829101562 0.01953125 l 5
EndSplineSet
EndChar

StartChar: m
Encoding: 109 109 38
Width: 734
Flags: W
HStem: 0.0195312 21G<144.509 256.171 477.829 589.491> 0.0195312 21G<144.509 256.171 477.829 589.491> 333.34 110.829<256.171 367> 444.169 111.662<256.171 477.829> 555.831 110.829<367 477.829>
VStem: 144.509 111.662<0.0195312 333.34 555.831 666.66> 477.829 111.662<0.0195312 444.169>
LayerCount: 2
Fore
SplineSet
144.508789062 555.831054688 m 5x0e
 144.508789062 666.66015625 l 5
 256.170898438 666.66015625 l 5x0e
 256.170898438 555.831054688 l 5x16
 144.508789062 555.831054688 l 5x0e
367 555.831054688 m 5x16
 367 666.66015625 l 5
 477.829101562 666.66015625 l 5x0e
 477.829101562 555.831054688 l 5
 367 555.831054688 l 5x16
477.829101562 555.831054688 m 5x16
 477.829101562 666.66015625 l 5
 589.491210938 666.66015625 l 5
 589.491210938 555.831054688 l 5x0e
 477.829101562 555.831054688 l 5x16
144.508789062 444.168945312 m 5x16
 144.508789062 555.831054688 l 5x0e
 256.170898438 555.831054688 l 5x16
 256.170898438 444.168945312 l 5x26
 144.508789062 444.168945312 l 5x16
256.170898438 444.168945312 m 5x26
 256.170898438 555.831054688 l 5
 367 555.831054688 l 5x16
 367 444.168945312 l 5
 256.170898438 444.168945312 l 5x26
367 444.168945312 m 5x26
 367 555.831054688 l 5
 477.829101562 555.831054688 l 5
 477.829101562 444.168945312 l 5x16
 367 444.168945312 l 5x26
477.829101562 444.168945312 m 5
 477.829101562 555.831054688 l 5x16
 589.491210938 555.831054688 l 5x0e
 589.491210938 444.168945312 l 5
 477.829101562 444.168945312 l 5
144.508789062 333.33984375 m 5x26
 144.508789062 444.168945312 l 5x16
 256.170898438 444.168945312 l 5
 256.170898438 333.33984375 l 5
 144.508789062 333.33984375 l 5x26
256.170898438 333.33984375 m 5x26
 256.170898438 444.168945312 l 5
 367 444.168945312 l 5
 367 333.33984375 l 5
 256.170898438 333.33984375 l 5x26
477.829101562 333.33984375 m 5
 477.829101562 444.168945312 l 5
 589.491210938 444.168945312 l 5x16
 589.491210938 333.33984375 l 5
 477.829101562 333.33984375 l 5
144.508789062 222.510742188 m 5
 144.508789062 333.33984375 l 5
 256.170898438 333.33984375 l 5x26
 256.170898438 222.510742188 l 5
 144.508789062 222.510742188 l 5
477.829101562 222.510742188 m 5
 477.829101562 333.33984375 l 5
 589.491210938 333.33984375 l 5
 589.491210938 222.510742188 l 5
 477.829101562 222.510742188 l 5
144.508789062 110.848632812 m 5
 144.508789062 222.510742188 l 5
 256.170898438 222.510742188 l 5
 256.170898438 110.848632812 l 5
 144.508789062 110.848632812 l 5
477.829101562 110.848632812 m 5
 477.829101562 222.510742188 l 5
 589.491210938 222.510742188 l 5
 589.491210938 110.848632812 l 5
 477.829101562 110.848632812 l 5
144.508789062 0.01953125 m 5x86
 144.508789062 110.848632812 l 5
 256.170898438 110.848632812 l 5
 256.170898438 0.01953125 l 5
 144.508789062 0.01953125 l 5x86
477.829101562 0.01953125 m 5
 477.829101562 110.848632812 l 5
 589.491210938 110.848632812 l 5
 589.491210938 0.01953125 l 5
 477.829101562 0.01953125 l 5
EndSplineSet
EndChar

StartChar: n
Encoding: 110 110 39
Width: 734
Flags: W
HStem: 0.0195312 21G<144.509 256.171 477.829 589.491> 0.0195312 21G<144.509 256.171 477.829 589.491> 222.511 110.829<367 477.829> 333.34 110.829<367 477.829> 444.169 111.662<256.171 367> 555.831 110.829<256.171 367>
VStem: 144.509 222.491<444.169 666.66> 144.509 111.662<0.0195312 444.169> 367 222.491<222.511 444.169> 477.829 111.662<0.0195312 222.511 444.169 666.66>
LayerCount: 2
Fore
SplineSet
144.508789062 555.831054688 m 5x06
 144.508789062 666.66015625 l 5x06
 256.170898438 666.66015625 l 5x05
 256.170898438 555.831054688 l 5x09
 144.508789062 555.831054688 l 5x06
256.170898438 555.831054688 m 5x09
 256.170898438 666.66015625 l 5x05
 367 666.66015625 l 5x06
 367 555.831054688 l 5x0a
 256.170898438 555.831054688 l 5x09
477.829101562 555.831054688 m 5x0440
 477.829101562 666.66015625 l 5
 589.491210938 666.66015625 l 5
 589.491210938 555.831054688 l 5
 477.829101562 555.831054688 l 5x0440
144.508789062 444.168945312 m 5x0a
 144.508789062 555.831054688 l 5x06
 256.170898438 555.831054688 l 5
 256.170898438 444.168945312 l 5x09
 144.508789062 444.168945312 l 5x0a
256.170898438 444.168945312 m 5x09
 256.170898438 555.831054688 l 5x09
 367 555.831054688 l 5x0a
 367 444.168945312 l 5x12
 256.170898438 444.168945312 l 5x09
477.829101562 444.168945312 m 5x1040
 477.829101562 555.831054688 l 5
 589.491210938 555.831054688 l 5x1440
 589.491210938 444.168945312 l 5x0880
 477.829101562 444.168945312 l 5x1040
144.508789062 333.33984375 m 5x11
 144.508789062 444.168945312 l 5x0a
 256.170898438 444.168945312 l 5x09
 256.170898438 333.33984375 l 5
 144.508789062 333.33984375 l 5x11
367 333.33984375 m 5x2080
 367 444.168945312 l 5
 477.829101562 444.168945312 l 5x1240
 477.829101562 333.33984375 l 5x2240
 367 333.33984375 l 5x2080
477.829101562 333.33984375 m 5x2040
 477.829101562 444.168945312 l 5x1040
 589.491210938 444.168945312 l 5x0880
 589.491210938 333.33984375 l 5x1080
 477.829101562 333.33984375 l 5x2040
144.508789062 222.510742188 m 5x21
 144.508789062 333.33984375 l 5
 256.170898438 333.33984375 l 5x11
 256.170898438 222.510742188 l 5
 144.508789062 222.510742188 l 5x21
367 222.510742188 m 5x2080
 367 333.33984375 l 5x2080
 477.829101562 333.33984375 l 5
 477.829101562 222.510742188 l 5x2040
 367 222.510742188 l 5x2080
477.829101562 222.510742188 m 5x2040
 477.829101562 333.33984375 l 5x2040
 589.491210938 333.33984375 l 5x1080
 589.491210938 222.510742188 l 5x2080
 477.829101562 222.510742188 l 5x2040
144.508789062 110.848632812 m 5x21
 144.508789062 222.510742188 l 5
 256.170898438 222.510742188 l 5
 256.170898438 110.848632812 l 5
 144.508789062 110.848632812 l 5x21
477.829101562 110.848632812 m 5x2040
 477.829101562 222.510742188 l 5x2040
 589.491210938 222.510742188 l 5x2080
 589.491210938 110.848632812 l 5
 477.829101562 110.848632812 l 5x2040
144.508789062 0.01953125 m 5x81
 144.508789062 110.848632812 l 5
 256.170898438 110.848632812 l 5
 256.170898438 0.01953125 l 5
 144.508789062 0.01953125 l 5x81
477.829101562 0.01953125 m 5x8040
 477.829101562 110.848632812 l 5
 589.491210938 110.848632812 l 5
 589.491210938 0.01953125 l 5
 477.829101562 0.01953125 l 5x8040
EndSplineSet
EndChar

StartChar: o
Encoding: 111 111 40
Width: 734
Flags: W
HStem: 0.0195312 110.829<256.171 477.829> 555.831 110.829<256.171 477.829>
VStem: 144.509 111.662<110.849 555.831> 477.829 111.662<110.849 555.831>
LayerCount: 2
Fore
SplineSet
256.170898438 555.831054688 m 5
 256.170898438 666.66015625 l 5
 367 666.66015625 l 5
 367 555.831054688 l 5
 256.170898438 555.831054688 l 5
367 555.831054688 m 5
 367 666.66015625 l 5
 477.829101562 666.66015625 l 5
 477.829101562 555.831054688 l 5
 367 555.831054688 l 5
477.829101562 555.831054688 m 5
 477.829101562 666.66015625 l 5
 589.491210938 666.66015625 l 5
 589.491210938 555.831054688 l 5
 477.829101562 555.831054688 l 5
144.508789062 444.168945312 m 5
 144.508789062 555.831054688 l 5
 256.170898438 555.831054688 l 5
 256.170898438 444.168945312 l 5
 144.508789062 444.168945312 l 5
477.829101562 444.168945312 m 5
 477.829101562 555.831054688 l 5
 589.491210938 555.831054688 l 5
 589.491210938 444.168945312 l 5
 477.829101562 444.168945312 l 5
144.508789062 333.33984375 m 5
 144.508789062 444.168945312 l 5
 256.170898438 444.168945312 l 5
 256.170898438 333.33984375 l 5
 144.508789062 333.33984375 l 5
477.829101562 333.33984375 m 5
 477.829101562 444.168945312 l 5
 589.491210938 444.168945312 l 5
 589.491210938 333.33984375 l 5
 477.829101562 333.33984375 l 5
144.508789062 222.510742188 m 5
 144.508789062 333.33984375 l 5
 256.170898438 333.33984375 l 5
 256.170898438 222.510742188 l 5
 144.508789062 222.510742188 l 5
477.829101562 222.510742188 m 5
 477.829101562 333.33984375 l 5
 589.491210938 333.33984375 l 5
 589.491210938 222.510742188 l 5
 477.829101562 222.510742188 l 5
144.508789062 110.848632812 m 5
 144.508789062 222.510742188 l 5
 256.170898438 222.510742188 l 5
 256.170898438 110.848632812 l 5
 144.508789062 110.848632812 l 5
477.829101562 110.848632812 m 5
 477.829101562 222.510742188 l 5
 589.491210938 222.510742188 l 5
 589.491210938 110.848632812 l 5
 477.829101562 110.848632812 l 5
144.508789062 0.01953125 m 5
 144.508789062 110.848632812 l 5
 256.170898438 110.848632812 l 5
 256.170898438 0.01953125 l 5
 144.508789062 0.01953125 l 5
256.170898438 0.01953125 m 5
 256.170898438 110.848632812 l 5
 367 110.848632812 l 5
 367 0.01953125 l 5
 256.170898438 0.01953125 l 5
367 0.01953125 m 5
 367 110.848632812 l 5
 477.829101562 110.848632812 l 5
 477.829101562 0.01953125 l 5
 367 0.01953125 l 5
EndSplineSet
EndChar

StartChar: p
Encoding: 112 112 41
Width: 734
Flags: W
HStem: 0.0195312 21G<144.509 256.171> 0.0195312 21G<144.509 256.171> 333.34 110.829<256.171 589.491> 444.169 111.662<477.829 589.491> 555.831 110.829<256.171 477.829>
VStem: 144.509 111.662<0.0195312 333.34 444.169 555.831> 477.829 111.662<444.169 555.831>
LayerCount: 2
Fore
SplineSet
144.508789062 555.831054688 m 1x0e
 144.508789062 666.66015625 l 1
 256.170898438 666.66015625 l 1
 256.170898438 555.831054688 l 1
 144.508789062 555.831054688 l 1x0e
256.170898438 555.831054688 m 1
 256.170898438 666.66015625 l 1
 367 666.66015625 l 1
 367 555.831054688 l 1
 256.170898438 555.831054688 l 1
367 555.831054688 m 1
 367 666.66015625 l 1
 477.829101562 666.66015625 l 1x0e
 477.829101562 555.831054688 l 1x16
 367 555.831054688 l 1
144.508789062 444.168945312 m 1x16
 144.508789062 555.831054688 l 1
 256.170898438 555.831054688 l 1
 256.170898438 444.168945312 l 1x2e
 144.508789062 444.168945312 l 1x16
477.829101562 444.168945312 m 1
 477.829101562 555.831054688 l 1
 589.491210938 555.831054688 l 1x16
 589.491210938 444.168945312 l 1
 477.829101562 444.168945312 l 1
144.508789062 333.33984375 m 1x26
 144.508789062 444.168945312 l 1x16
 256.170898438 444.168945312 l 1
 256.170898438 333.33984375 l 1
 144.508789062 333.33984375 l 1x26
256.170898438 333.33984375 m 1x26
 256.170898438 444.168945312 l 1
 367 444.168945312 l 1
 367 333.33984375 l 1
 256.170898438 333.33984375 l 1x26
367 333.33984375 m 1
 367 444.168945312 l 1
 477.829101562 444.168945312 l 1
 477.829101562 333.33984375 l 1
 367 333.33984375 l 1
477.829101562 333.33984375 m 1
 477.829101562 444.168945312 l 1
 589.491210938 444.168945312 l 1
 589.491210938 333.33984375 l 1
 477.829101562 333.33984375 l 1
144.508789062 222.510742188 m 1
 144.508789062 333.33984375 l 1
 256.170898438 333.33984375 l 1
 256.170898438 222.510742188 l 1
 144.508789062 222.510742188 l 1
144.508789062 110.848632812 m 1
 144.508789062 222.510742188 l 1
 256.170898438 222.510742188 l 1
 256.170898438 110.848632812 l 1
 144.508789062 110.848632812 l 1
144.508789062 0.01953125 m 1x86
 144.508789062 110.848632812 l 1
 256.170898438 110.848632812 l 1
 256.170898438 0.01953125 l 1
 144.508789062 0.01953125 l 1x86
EndSplineSet
EndChar

StartChar: q
Encoding: 113 113 42
Width: 734
Flags: W
HStem: 0.0195312 222.491<367 589.491> 0.0195312 110.829<256.171 367> 555.831 110.829<256.171 477.829>
VStem: 144.509 111.662<110.849 555.831> 477.829 111.662<222.511 555.831>
LayerCount: 2
Fore
SplineSet
144.508789062 555.831054688 m 5x38
 144.508789062 666.66015625 l 5
 256.170898438 666.66015625 l 5
 256.170898438 555.831054688 l 5
 144.508789062 555.831054688 l 5x38
256.170898438 555.831054688 m 5
 256.170898438 666.66015625 l 5
 367 666.66015625 l 5
 367 555.831054688 l 5
 256.170898438 555.831054688 l 5
367 555.831054688 m 5
 367 666.66015625 l 5
 477.829101562 666.66015625 l 5
 477.829101562 555.831054688 l 5
 367 555.831054688 l 5
144.508789062 444.168945312 m 5
 144.508789062 555.831054688 l 5
 256.170898438 555.831054688 l 5
 256.170898438 444.168945312 l 5
 144.508789062 444.168945312 l 5
477.829101562 444.168945312 m 5
 477.829101562 555.831054688 l 5
 589.491210938 555.831054688 l 5
 589.491210938 444.168945312 l 5
 477.829101562 444.168945312 l 5
144.508789062 333.33984375 m 5
 144.508789062 444.168945312 l 5
 256.170898438 444.168945312 l 5
 256.170898438 333.33984375 l 5
 144.508789062 333.33984375 l 5
477.829101562 333.33984375 m 5
 477.829101562 444.168945312 l 5
 589.491210938 444.168945312 l 5
 589.491210938 333.33984375 l 5
 477.829101562 333.33984375 l 5
144.508789062 222.510742188 m 5xb8
 144.508789062 333.33984375 l 5
 256.170898438 333.33984375 l 5
 256.170898438 222.510742188 l 5
 144.508789062 222.510742188 l 5xb8
477.829101562 222.510742188 m 5
 477.829101562 333.33984375 l 5
 589.491210938 333.33984375 l 5
 589.491210938 222.510742188 l 5
 477.829101562 222.510742188 l 5
144.508789062 110.848632812 m 5x78
 144.508789062 222.510742188 l 5
 256.170898438 222.510742188 l 5xb8
 256.170898438 110.848632812 l 5
 144.508789062 110.848632812 l 5x78
367 110.848632812 m 5x78
 367 222.510742188 l 5
 477.829101562 222.510742188 l 5xb8
 477.829101562 110.848632812 l 5
 367 110.848632812 l 5x78
477.829101562 110.848632812 m 5x78
 477.829101562 222.510742188 l 5
 589.491210938 222.510742188 l 5xb8
 589.491210938 110.848632812 l 5
 477.829101562 110.848632812 l 5x78
256.170898438 0.01953125 m 5x78
 256.170898438 110.848632812 l 5
 367 110.848632812 l 5x78
 367 0.01953125 l 5xb8
 256.170898438 0.01953125 l 5x78
367 0.01953125 m 5xb8
 367 110.848632812 l 5
 477.829101562 110.848632812 l 5x78
 477.829101562 0.01953125 l 5
 367 0.01953125 l 5xb8
477.829101562 0.01953125 m 5xb8
 477.829101562 110.848632812 l 5
 589.491210938 110.848632812 l 5x78
 589.491210938 0.01953125 l 5
 477.829101562 0.01953125 l 5xb8
EndSplineSet
EndChar

StartChar: r
Encoding: 114 114 43
Width: 734
Flags: W
HStem: 0.0195312 21G<144.509 256.171 477.829 589.491> 0.0195312 21G<144.509 256.171 477.829 589.491> 222.511 110.829<256.171 477.829> 333.34 110.829<477.829 589.491> 444.169 111.662<477.829 589.491> 555.831 110.829<256.171 477.829>
VStem: 144.509 111.662<0.0195312 222.511 333.34 555.831> 477.829 111.662<0.0195312 222.511 333.34 555.831>
LayerCount: 2
Fore
SplineSet
144.508789062 555.831054688 m 5x07
 144.508789062 666.66015625 l 5
 256.170898438 666.66015625 l 5
 256.170898438 555.831054688 l 5
 144.508789062 555.831054688 l 5x07
256.170898438 555.831054688 m 5
 256.170898438 666.66015625 l 5
 367 666.66015625 l 5
 367 555.831054688 l 5
 256.170898438 555.831054688 l 5
367 555.831054688 m 5
 367 666.66015625 l 5
 477.829101562 666.66015625 l 5x07
 477.829101562 555.831054688 l 5x0b
 367 555.831054688 l 5
144.508789062 444.168945312 m 5x0b
 144.508789062 555.831054688 l 5
 256.170898438 555.831054688 l 5x07
 256.170898438 444.168945312 l 5
 144.508789062 444.168945312 l 5x0b
477.829101562 444.168945312 m 5x13
 477.829101562 555.831054688 l 5
 589.491210938 555.831054688 l 5x0b
 589.491210938 444.168945312 l 5
 477.829101562 444.168945312 l 5x13
144.508789062 333.33984375 m 5x13
 144.508789062 444.168945312 l 5
 256.170898438 444.168945312 l 5
 256.170898438 333.33984375 l 5x2b
 144.508789062 333.33984375 l 5x13
477.829101562 333.33984375 m 5
 477.829101562 444.168945312 l 5
 589.491210938 444.168945312 l 5
 589.491210938 333.33984375 l 5x13
 477.829101562 333.33984375 l 5
144.508789062 222.510742188 m 5x23
 144.508789062 333.33984375 l 5x13
 256.170898438 333.33984375 l 5
 256.170898438 222.510742188 l 5
 144.508789062 222.510742188 l 5x23
256.170898438 222.510742188 m 5x23
 256.170898438 333.33984375 l 5
 367 333.33984375 l 5
 367 222.510742188 l 5
 256.170898438 222.510742188 l 5x23
367 222.510742188 m 5
 367 333.33984375 l 5
 477.829101562 333.33984375 l 5
 477.829101562 222.510742188 l 5
 367 222.510742188 l 5
144.508789062 110.848632812 m 5
 144.508789062 222.510742188 l 5
 256.170898438 222.510742188 l 5
 256.170898438 110.848632812 l 5
 144.508789062 110.848632812 l 5
477.829101562 110.848632812 m 5
 477.829101562 222.510742188 l 5
 589.491210938 222.510742188 l 5
 589.491210938 110.848632812 l 5
 477.829101562 110.848632812 l 5
144.508789062 0.01953125 m 5x83
 144.508789062 110.848632812 l 5
 256.170898438 110.848632812 l 5
 256.170898438 0.01953125 l 5
 144.508789062 0.01953125 l 5x83
477.829101562 0.01953125 m 5
 477.829101562 110.848632812 l 5
 589.491210938 110.848632812 l 5
 589.491210938 0.01953125 l 5
 477.829101562 0.01953125 l 5
EndSplineSet
EndChar

StartChar: s
Encoding: 115 115 44
Width: 734
Flags: W
HStem: 0.0195312 110.829<144.509 477.829> 333.34 110.829<144.509 477.829> 444.169 111.662<144.509 256.171> 555.831 110.829<256.171 589.491>
VStem: 144.509 111.662<444.169 555.831> 477.829 111.662<110.849 333.34>
LayerCount: 2
Fore
SplineSet
256.170898438 555.831054688 m 5xac
 256.170898438 666.66015625 l 5
 367 666.66015625 l 5
 367 555.831054688 l 5x9c
 256.170898438 555.831054688 l 5xac
367 555.831054688 m 5
 367 666.66015625 l 5
 477.829101562 666.66015625 l 5
 477.829101562 555.831054688 l 5
 367 555.831054688 l 5
477.829101562 555.831054688 m 5
 477.829101562 666.66015625 l 5
 589.491210938 666.66015625 l 5
 589.491210938 555.831054688 l 5
 477.829101562 555.831054688 l 5
144.508789062 444.168945312 m 5xcc
 144.508789062 555.831054688 l 5
 256.170898438 555.831054688 l 5xac
 256.170898438 444.168945312 l 5
 144.508789062 444.168945312 l 5xcc
144.508789062 333.33984375 m 5xcc
 144.508789062 444.168945312 l 5
 256.170898438 444.168945312 l 5
 256.170898438 333.33984375 l 5
 144.508789062 333.33984375 l 5xcc
256.170898438 333.33984375 m 5
 256.170898438 444.168945312 l 5
 367 444.168945312 l 5
 367 333.33984375 l 5
 256.170898438 333.33984375 l 5
367 333.33984375 m 5
 367 444.168945312 l 5
 477.829101562 444.168945312 l 5
 477.829101562 333.33984375 l 5
 367 333.33984375 l 5
477.829101562 222.510742188 m 5
 477.829101562 333.33984375 l 5
 589.491210938 333.33984375 l 5
 589.491210938 222.510742188 l 5
 477.829101562 222.510742188 l 5
477.829101562 110.848632812 m 5
 477.829101562 222.510742188 l 5
 589.491210938 222.510742188 l 5
 589.491210938 110.848632812 l 5
 477.829101562 110.848632812 l 5
144.508789062 0.01953125 m 5
 144.508789062 110.848632812 l 5
 256.170898438 110.848632812 l 5
 256.170898438 0.01953125 l 5
 144.508789062 0.01953125 l 5
256.170898438 0.01953125 m 5
 256.170898438 110.848632812 l 5
 367 110.848632812 l 5
 367 0.01953125 l 5
 256.170898438 0.01953125 l 5
367 0.01953125 m 5
 367 110.848632812 l 5
 477.829101562 110.848632812 l 5
 477.829101562 0.01953125 l 5
 367 0.01953125 l 5
EndSplineSet
EndChar

StartChar: t
Encoding: 116 116 45
Width: 734
Flags: W
HStem: 0.0195312 21G<256.171 367> 0.0195312 21G<256.171 367> 555.831 110.829<144.509 256.171 367 589.491>
VStem: 256.171 110.829<0.0195312 555.831>
LayerCount: 2
Fore
SplineSet
144.508789062 555.831054688 m 5x30
 144.508789062 666.66015625 l 5
 256.170898438 666.66015625 l 5
 256.170898438 555.831054688 l 5
 144.508789062 555.831054688 l 5x30
256.170898438 555.831054688 m 5
 256.170898438 666.66015625 l 5
 367 666.66015625 l 5
 367 555.831054688 l 5
 256.170898438 555.831054688 l 5
367 555.831054688 m 5
 367 666.66015625 l 5
 477.829101562 666.66015625 l 5
 477.829101562 555.831054688 l 5
 367 555.831054688 l 5
477.829101562 555.831054688 m 5
 477.829101562 666.66015625 l 5
 589.491210938 666.66015625 l 5
 589.491210938 555.831054688 l 5
 477.829101562 555.831054688 l 5
256.170898438 444.168945312 m 5
 256.170898438 555.831054688 l 5
 367 555.831054688 l 5
 367 444.168945312 l 5
 256.170898438 444.168945312 l 5
256.170898438 333.33984375 m 5
 256.170898438 444.168945312 l 5
 367 444.168945312 l 5
 367 333.33984375 l 5
 256.170898438 333.33984375 l 5
256.170898438 222.510742188 m 5
 256.170898438 333.33984375 l 5
 367 333.33984375 l 5
 367 222.510742188 l 5
 256.170898438 222.510742188 l 5
256.170898438 110.848632812 m 5
 256.170898438 222.510742188 l 5
 367 222.510742188 l 5
 367 110.848632812 l 5
 256.170898438 110.848632812 l 5
256.170898438 0.01953125 m 5xb0
 256.170898438 110.848632812 l 5
 367 110.848632812 l 5
 367 0.01953125 l 5
 256.170898438 0.01953125 l 5xb0
EndSplineSet
EndChar

StartChar: u
Encoding: 117 117 46
Width: 734
Flags: W
HStem: 0.0195312 110.829<256.171 477.829> 646.66 20G<144.509 256.171 477.829 589.491> 646.66 20G<144.509 256.171 477.829 589.491>
VStem: 144.509 111.662<110.849 666.66> 477.829 111.662<110.849 666.66>
LayerCount: 2
Fore
SplineSet
144.508789062 555.831054688 m 5xd8
 144.508789062 666.66015625 l 5
 256.170898438 666.66015625 l 5
 256.170898438 555.831054688 l 5
 144.508789062 555.831054688 l 5xd8
477.829101562 555.831054688 m 5
 477.829101562 666.66015625 l 5
 589.491210938 666.66015625 l 5
 589.491210938 555.831054688 l 5
 477.829101562 555.831054688 l 5
144.508789062 444.168945312 m 5
 144.508789062 555.831054688 l 5
 256.170898438 555.831054688 l 5
 256.170898438 444.168945312 l 5
 144.508789062 444.168945312 l 5
477.829101562 444.168945312 m 5
 477.829101562 555.831054688 l 5
 589.491210938 555.831054688 l 5
 589.491210938 444.168945312 l 5
 477.829101562 444.168945312 l 5
144.508789062 333.33984375 m 5
 144.508789062 444.168945312 l 5
 256.170898438 444.168945312 l 5
 256.170898438 333.33984375 l 5
 144.508789062 333.33984375 l 5
477.829101562 333.33984375 m 5
 477.829101562 444.168945312 l 5
 589.491210938 444.168945312 l 5
 589.491210938 333.33984375 l 5
 477.829101562 333.33984375 l 5
144.508789062 222.510742188 m 5
 144.508789062 333.33984375 l 5
 256.170898438 333.33984375 l 5
 256.170898438 222.510742188 l 5
 144.508789062 222.510742188 l 5
477.829101562 222.510742188 m 5
 477.829101562 333.33984375 l 5
 589.491210938 333.33984375 l 5
 589.491210938 222.510742188 l 5
 477.829101562 222.510742188 l 5
144.508789062 110.848632812 m 5
 144.508789062 222.510742188 l 5
 256.170898438 222.510742188 l 5
 256.170898438 110.848632812 l 5
 144.508789062 110.848632812 l 5
477.829101562 110.848632812 m 5
 477.829101562 222.510742188 l 5
 589.491210938 222.510742188 l 5
 589.491210938 110.848632812 l 5
 477.829101562 110.848632812 l 5
256.170898438 0.01953125 m 5
 256.170898438 110.848632812 l 5
 367 110.848632812 l 5
 367 0.01953125 l 5
 256.170898438 0.01953125 l 5
367 0.01953125 m 5
 367 110.848632812 l 5
 477.829101562 110.848632812 l 5
 477.829101562 0.01953125 l 5
 367 0.01953125 l 5
477.829101562 0.01953125 m 5
 477.829101562 110.848632812 l 5
 589.491210938 110.848632812 l 5
 589.491210938 0.01953125 l 5
 477.829101562 0.01953125 l 5
EndSplineSet
EndChar

StartChar: v
Encoding: 118 118 47
Width: 734
Flags: W
HStem: 0.0195312 110.829<367 477.829> 110.849 111.662<256.171 367> 444.169 111.662<144.509 256.171> 555.831 110.829<144.509 256.171>
VStem: 144.509 111.662<222.511 666.66> 256.171 110.829<110.849 222.511> 367 110.829<0.0195312 110.849> 477.829 111.662<110.849 666.66>
LayerCount: 2
Fore
SplineSet
144.508789062 555.831054688 m 5x28
 144.508789062 666.66015625 l 5
 256.170898438 666.66015625 l 5x18
 256.170898438 555.831054688 l 5
 144.508789062 555.831054688 l 5x28
477.829101562 555.831054688 m 5x11
 477.829101562 666.66015625 l 5
 589.491210938 666.66015625 l 5
 589.491210938 555.831054688 l 5
 477.829101562 555.831054688 l 5x11
144.508789062 444.168945312 m 5x28
 144.508789062 555.831054688 l 5
 256.170898438 555.831054688 l 5
 256.170898438 444.168945312 l 5
 144.508789062 444.168945312 l 5x28
477.829101562 444.168945312 m 5x21
 477.829101562 555.831054688 l 5
 589.491210938 555.831054688 l 5x11
 589.491210938 444.168945312 l 5
 477.829101562 444.168945312 l 5x21
144.508789062 333.33984375 m 5x28
 144.508789062 444.168945312 l 5
 256.170898438 444.168945312 l 5
 256.170898438 333.33984375 l 5
 144.508789062 333.33984375 l 5x28
477.829101562 333.33984375 m 5x21
 477.829101562 444.168945312 l 5
 589.491210938 444.168945312 l 5
 589.491210938 333.33984375 l 5
 477.829101562 333.33984375 l 5x21
144.508789062 222.510742188 m 5x48
 144.508789062 333.33984375 l 5
 256.170898438 333.33984375 l 5
 256.170898438 222.510742188 l 5
 144.508789062 222.510742188 l 5x48
477.829101562 222.510742188 m 5x41
 477.829101562 333.33984375 l 5
 589.491210938 333.33984375 l 5
 589.491210938 222.510742188 l 5
 477.829101562 222.510742188 l 5x41
256.170898438 110.848632812 m 5x44
 256.170898438 222.510742188 l 5x48
 367 222.510742188 l 5x44
 367 110.848632812 l 5x84
 256.170898438 110.848632812 l 5x44
477.829101562 110.848632812 m 5x82
 477.829101562 222.510742188 l 5
 589.491210938 222.510742188 l 5
 589.491210938 110.848632812 l 5x41
 477.829101562 110.848632812 l 5x82
367 0.01953125 m 5x82
 367 110.848632812 l 5x84
 477.829101562 110.848632812 l 5
 477.829101562 0.01953125 l 5
 367 0.01953125 l 5x82
EndSplineSet
EndChar

StartChar: w
Encoding: 119 119 48
Width: 734
Flags: W
HStem: 0.0195312 110.829<367 477.829> 110.849 111.662<256.171 477.829> 222.511 110.829<256.171 367> 646.66 20G<144.509 256.171 477.829 589.491> 646.66 20G<144.509 256.171 477.829 589.491>
VStem: 144.509 111.662<0.0195312 110.849 333.34 666.66> 477.829 111.662<222.511 666.66>
LayerCount: 2
Fore
SplineSet
144.508789062 555.831054688 m 5x16
 144.508789062 666.66015625 l 5
 256.170898438 666.66015625 l 5
 256.170898438 555.831054688 l 5
 144.508789062 555.831054688 l 5x16
477.829101562 555.831054688 m 5
 477.829101562 666.66015625 l 5
 589.491210938 666.66015625 l 5
 589.491210938 555.831054688 l 5
 477.829101562 555.831054688 l 5
144.508789062 444.168945312 m 5
 144.508789062 555.831054688 l 5
 256.170898438 555.831054688 l 5
 256.170898438 444.168945312 l 5
 144.508789062 444.168945312 l 5
477.829101562 444.168945312 m 5
 477.829101562 555.831054688 l 5
 589.491210938 555.831054688 l 5
 589.491210938 444.168945312 l 5
 477.829101562 444.168945312 l 5
144.508789062 333.33984375 m 5x26
 144.508789062 444.168945312 l 5
 256.170898438 444.168945312 l 5
 256.170898438 333.33984375 l 5
 144.508789062 333.33984375 l 5x26
477.829101562 333.33984375 m 5
 477.829101562 444.168945312 l 5
 589.491210938 444.168945312 l 5
 589.491210938 333.33984375 l 5
 477.829101562 333.33984375 l 5
144.508789062 222.510742188 m 5
 144.508789062 333.33984375 l 5
 256.170898438 333.33984375 l 5x26
 256.170898438 222.510742188 l 5x46
 144.508789062 222.510742188 l 5
256.170898438 222.510742188 m 5x46
 256.170898438 333.33984375 l 5
 367 333.33984375 l 5x26
 367 222.510742188 l 5
 256.170898438 222.510742188 l 5x46
477.829101562 222.510742188 m 5x46
 477.829101562 333.33984375 l 5
 589.491210938 333.33984375 l 5
 589.491210938 222.510742188 l 5x26
 477.829101562 222.510742188 l 5x46
144.508789062 110.848632812 m 5x46
 144.508789062 222.510742188 l 5x26
 256.170898438 222.510742188 l 5
 256.170898438 110.848632812 l 5
 144.508789062 110.848632812 l 5x46
256.170898438 110.848632812 m 5x46
 256.170898438 222.510742188 l 5
 367 222.510742188 l 5x46
 367 110.848632812 l 5x86
 256.170898438 110.848632812 l 5x46
367 110.848632812 m 5x86
 367 222.510742188 l 5
 477.829101562 222.510742188 l 5x46
 477.829101562 110.848632812 l 5
 367 110.848632812 l 5x86
477.829101562 110.848632812 m 5x86
 477.829101562 222.510742188 l 5x46
 589.491210938 222.510742188 l 5x26
 589.491210938 110.848632812 l 5x46
 477.829101562 110.848632812 l 5x86
144.508789062 0.01953125 m 5x86
 144.508789062 110.848632812 l 5
 256.170898438 110.848632812 l 5x46
 256.170898438 0.01953125 l 5
 144.508789062 0.01953125 l 5x86
367 0.01953125 m 5x86
 367 110.848632812 l 5
 477.829101562 110.848632812 l 5
 477.829101562 0.01953125 l 5
 367 0.01953125 l 5x86
477.829101562 0.01953125 m 5
 477.829101562 110.848632812 l 5x86
 589.491210938 110.848632812 l 5x46
 589.491210938 0.01953125 l 5
 477.829101562 0.01953125 l 5
EndSplineSet
EndChar

StartChar: x
Encoding: 120 120 49
Width: 734
Flags: W
HStem: 0.0283203 222.208<144.792 255.896 478.104 589.208> 222.236 111.104<255.896 478.104> 333.34 111.104<255.896 478.104> 444.444 111.104<144.792 255.896 478.104 589.208> 555.548 111.104<144.792 255.896 478.104 589.208>
VStem: 144.792 111.104<0.0283203 222.236 444.444 666.652> 255.896 222.207<222.236 444.444> 478.104 111.104<0.0283203 222.236 444.444 666.652>
LayerCount: 2
Fore
SplineSet
144.791992188 555.547851562 m 1x14
 144.791992188 666.65234375 l 1
 255.896484375 666.65234375 l 1x0c
 255.896484375 555.547851562 l 1
 144.791992188 555.547851562 l 1x14
478.103515625 555.547851562 m 1x11
 478.103515625 666.65234375 l 1
 589.208007812 666.65234375 l 1x09
 589.208007812 555.547851562 l 1
 478.103515625 555.547851562 l 1x11
144.791992188 444.444335938 m 1x14
 144.791992188 555.547851562 l 1
 255.896484375 555.547851562 l 1x14
 255.896484375 444.444335938 l 1x24
 144.791992188 444.444335938 l 1x14
478.103515625 444.444335938 m 1x22
 478.103515625 555.547851562 l 1
 589.208007812 555.547851562 l 1
 589.208007812 444.444335938 l 1x11
 478.103515625 444.444335938 l 1x22
255.896484375 333.33984375 m 1x42
 255.896484375 444.444335938 l 1
 367 444.444335938 l 1x24
 367 333.33984375 l 1
 255.896484375 333.33984375 l 1x42
367 333.33984375 m 1x42
 367 444.444335938 l 1
 478.103515625 444.444335938 l 1x22
 478.103515625 333.33984375 l 1
 367 333.33984375 l 1x42
255.896484375 222.236328125 m 1x84
 255.896484375 333.33984375 l 1
 367 333.33984375 l 1
 367 222.236328125 l 1x42
 255.896484375 222.236328125 l 1x84
367 222.236328125 m 1
 367 333.33984375 l 1
 478.103515625 333.33984375 l 1x42
 478.103515625 222.236328125 l 1x82
 367 222.236328125 l 1
144.791992188 111.131835938 m 1x84
 144.791992188 222.236328125 l 1
 255.896484375 222.236328125 l 1
 255.896484375 111.131835938 l 1
 144.791992188 111.131835938 l 1x84
478.103515625 111.131835938 m 1x81
 478.103515625 222.236328125 l 1x82
 589.208007812 222.236328125 l 1
 589.208007812 111.131835938 l 1
 478.103515625 111.131835938 l 1x81
144.791992188 0.0283203125 m 1x84
 144.791992188 111.131835938 l 1
 255.896484375 111.131835938 l 1
 255.896484375 0.0283203125 l 1
 144.791992188 0.0283203125 l 1x84
478.103515625 0.0283203125 m 1x81
 478.103515625 111.131835938 l 1
 589.208007812 111.131835938 l 1
 589.208007812 0.0283203125 l 1
 478.103515625 0.0283203125 l 1x81
EndSplineSet
EndChar

StartChar: y
Encoding: 121 121 50
Width: 734
Flags: W
HStem: 0.0195312 21G<256.171 367> 0.0195312 21G<256.171 367> 222.511 110.829<256.171 367> 333.34 222.491<144.509 256.171 477.829 589.491> 333.34 110.829<256.171 477.829> 555.831 110.829<144.509 256.171 477.829 589.491>
VStem: 144.509 111.662<444.169 666.66> 256.171 110.829<0.0195312 333.34> 477.829 111.662<444.169 666.66>
LayerCount: 2
Fore
SplineSet
144.508789062 555.831054688 m 5x1280
 144.508789062 666.66015625 l 5
 256.170898438 666.66015625 l 5x0680
 256.170898438 555.831054688 l 5
 144.508789062 555.831054688 l 5x1280
477.829101562 555.831054688 m 5x1080
 477.829101562 666.66015625 l 5
 589.491210938 666.66015625 l 5x0480
 589.491210938 555.831054688 l 5
 477.829101562 555.831054688 l 5x1080
144.508789062 444.168945312 m 5x0a80
 144.508789062 555.831054688 l 5
 256.170898438 555.831054688 l 5x1280
 256.170898438 444.168945312 l 5
 144.508789062 444.168945312 l 5x0a80
477.829101562 444.168945312 m 5x0880
 477.829101562 555.831054688 l 5
 589.491210938 555.831054688 l 5x1080
 589.491210938 444.168945312 l 5
 477.829101562 444.168945312 l 5x0880
144.508789062 333.33984375 m 5x1280
 144.508789062 444.168945312 l 5
 256.170898438 444.168945312 l 5x0a80
 256.170898438 333.33984375 l 5x2180
 144.508789062 333.33984375 l 5x1280
256.170898438 333.33984375 m 5x2180
 256.170898438 444.168945312 l 5x0a80
 367 444.168945312 l 5x0980
 367 333.33984375 l 5
 256.170898438 333.33984375 l 5x2180
367 333.33984375 m 5x2180
 367 444.168945312 l 5
 477.829101562 444.168945312 l 5x0980
 477.829101562 333.33984375 l 5x1180
 367 333.33984375 l 5x2180
477.829101562 333.33984375 m 5x1080
 477.829101562 444.168945312 l 5
 589.491210938 444.168945312 l 5x0880
 589.491210938 333.33984375 l 5
 477.829101562 333.33984375 l 5x1080
256.170898438 222.510742188 m 5x2180
 256.170898438 333.33984375 l 5
 367 333.33984375 l 5
 367 222.510742188 l 5
 256.170898438 222.510742188 l 5x2180
256.170898438 110.848632812 m 5
 256.170898438 222.510742188 l 5
 367 222.510742188 l 5
 367 110.848632812 l 5
 256.170898438 110.848632812 l 5
256.170898438 0.01953125 m 5x8180
 256.170898438 110.848632812 l 5
 367 110.848632812 l 5
 367 0.01953125 l 5
 256.170898438 0.01953125 l 5x8180
EndSplineSet
EndChar

StartChar: z
Encoding: 122 122 51
Width: 734
Flags: W
HStem: 0.0195312 110.829<144.509 589.491> 110.849 111.662<144.509 256.171> 222.511 110.829<256.171 367> 333.34 110.829<367 477.829> 444.169 111.662<477.829 589.491> 555.831 110.829<256.171 589.491>
VStem: 144.509 111.662<110.849 222.511> 256.171 110.829<222.511 333.34> 367 110.829<333.34 444.169> 477.829 111.662<444.169 555.831>
LayerCount: 2
Fore
SplineSet
256.170898438 555.831054688 m 1x05
 256.170898438 666.66015625 l 1x05
 367 666.66015625 l 1
 367 555.831054688 l 1x0480
 256.170898438 555.831054688 l 1x05
367 555.831054688 m 1x0480
 367 666.66015625 l 1x0480
 477.829101562 666.66015625 l 1x0440
 477.829101562 555.831054688 l 1x0840
 367 555.831054688 l 1x0480
477.829101562 555.831054688 m 1x0840
 477.829101562 666.66015625 l 1
 589.491210938 666.66015625 l 1x0440
 589.491210938 555.831054688 l 1
 477.829101562 555.831054688 l 1x0840
477.829101562 444.168945312 m 1x1080
 477.829101562 555.831054688 l 1
 589.491210938 555.831054688 l 1
 589.491210938 444.168945312 l 1x0840
 477.829101562 444.168945312 l 1x1080
367 333.33984375 m 1x21
 367 444.168945312 l 1
 477.829101562 444.168945312 l 1
 477.829101562 333.33984375 l 1x1080
 367 333.33984375 l 1x21
256.170898438 222.510742188 m 1x42
 256.170898438 333.33984375 l 1
 367 333.33984375 l 1
 367 222.510742188 l 1x21
 256.170898438 222.510742188 l 1x42
144.508789062 110.848632812 m 1x82
 144.508789062 222.510742188 l 1
 256.170898438 222.510742188 l 1x42
 256.170898438 110.848632812 l 1
 144.508789062 110.848632812 l 1x82
144.508789062 0.01953125 m 1x82
 144.508789062 110.848632812 l 1
 256.170898438 110.848632812 l 1x82
 256.170898438 0.01953125 l 1x81
 144.508789062 0.01953125 l 1x82
256.170898438 0.01953125 m 1x81
 256.170898438 110.848632812 l 1
 367 110.848632812 l 1
 367 0.01953125 l 1x8280
 256.170898438 0.01953125 l 1x81
367 0.01953125 m 1
 367 110.848632812 l 1x8080
 477.829101562 110.848632812 l 1
 477.829101562 0.01953125 l 1x8040
 367 0.01953125 l 1
477.829101562 0.01953125 m 1x8040
 477.829101562 110.848632812 l 1
 589.491210938 110.848632812 l 1
 589.491210938 0.01953125 l 1
 477.829101562 0.01953125 l 1x8040
EndSplineSet
EndChar

StartChar: zero
Encoding: 48 48 52
Width: 734
VWidth: 27465
Flags: HW
HStem: 0.00976562 133.33<233.67 500.33> 133.34 266.66<100.34 233.67 500.33 633.66> 400 133.33<100.34 233.67 500.33 633.66> 533.33 133.33<100.34 233.67 500.33 633.66> 666.66 133.33<233.67 500.33>
VStem: 100.34 133.33<133.34 666.66> 233.67 266.66<0.00976562 133.34 666.66 799.99> 500.33 133.33<133.34 666.66>
LayerCount: 2
Fore
SplineSet
233.669921875 666.66015625 m 1x14
 233.669921875 799.990234375 l 1
 367 799.990234375 l 1
 367 666.66015625 l 1x0a
 233.669921875 666.66015625 l 1x14
367 666.66015625 m 1
 367 799.990234375 l 1
 500.330078125 799.990234375 l 1x0a
 500.330078125 666.66015625 l 1x12
 367 666.66015625 l 1
100.33984375 533.330078125 m 1x24
 100.33984375 666.66015625 l 1
 233.669921875 666.66015625 l 1x14
 233.669921875 533.330078125 l 1
 100.33984375 533.330078125 l 1x24
500.330078125 533.330078125 m 1x21
 500.330078125 666.66015625 l 1x12
 633.66015625 666.66015625 l 1x11
 633.66015625 533.330078125 l 1
 500.330078125 533.330078125 l 1x21
100.33984375 400 m 1x44
 100.33984375 533.330078125 l 1
 233.669921875 533.330078125 l 1x24
 233.669921875 400 l 1
 100.33984375 400 l 1x44
500.330078125 400 m 1x41
 500.330078125 533.330078125 l 1
 633.66015625 533.330078125 l 1x21
 633.66015625 400 l 1
 500.330078125 400 l 1x41
100.33984375 266.669921875 m 1x44
 100.33984375 400 l 1
 233.669921875 400 l 1
 233.669921875 266.669921875 l 1
 100.33984375 266.669921875 l 1x44
500.330078125 266.669921875 m 1x41
 500.330078125 400 l 1
 633.66015625 400 l 1
 633.66015625 266.669921875 l 1
 500.330078125 266.669921875 l 1x41
100.33984375 133.33984375 m 1x44
 100.33984375 266.669921875 l 1
 233.669921875 266.669921875 l 1
 233.669921875 133.33984375 l 1x84
 100.33984375 133.33984375 l 1x44
500.330078125 133.33984375 m 1x82
 500.330078125 266.669921875 l 1
 633.66015625 266.669921875 l 1
 633.66015625 133.33984375 l 1x41
 500.330078125 133.33984375 l 1x82
233.669921875 0.009765625 m 1x82
 233.669921875 133.33984375 l 1x84
 367 133.33984375 l 1
 367 0.009765625 l 1
 233.669921875 0.009765625 l 1x82
367 0.009765625 m 1
 367 133.33984375 l 1
 500.330078125 133.33984375 l 1
 500.330078125 0.009765625 l 1x82
 367 0.009765625 l 1
EndSplineSet
EndChar

StartChar: one
Encoding: 49 49 53
Width: 734
VWidth: 27465
Flags: HW
HStem: 0.00976562 133.33<167.005 300.335 433.665 566.995> 533.33 133.33<167.005 300.335> 666.66 21G<300.335 433.665> 666.66 21G<300.335 433.665> 779.99 20G<300.335 433.665>
VStem: 300.335 133.33<133.34 533.33 666.66 799.99>
LayerCount: 2
Fore
SplineSet
300.334960938 666.66015625 m 1xcc
 300.334960938 799.990234375 l 1
 433.665039062 799.990234375 l 1
 433.665039062 666.66015625 l 1xac
 300.334960938 666.66015625 l 1xcc
167.004882812 533.330078125 m 1xcc
 167.004882812 666.66015625 l 1
 300.334960938 666.66015625 l 1
 300.334960938 533.330078125 l 1
 167.004882812 533.330078125 l 1xcc
300.334960938 533.330078125 m 1
 300.334960938 666.66015625 l 1xcc
 433.665039062 666.66015625 l 1xac
 433.665039062 533.330078125 l 1
 300.334960938 533.330078125 l 1
300.334960938 400 m 1
 300.334960938 533.330078125 l 1
 433.665039062 533.330078125 l 1
 433.665039062 400 l 1
 300.334960938 400 l 1
300.334960938 266.669921875 m 1
 300.334960938 400 l 1
 433.665039062 400 l 1
 433.665039062 266.669921875 l 1
 300.334960938 266.669921875 l 1
300.334960938 133.33984375 m 1
 300.334960938 266.669921875 l 1
 433.665039062 266.669921875 l 1
 433.665039062 133.33984375 l 1
 300.334960938 133.33984375 l 1
167.004882812 0.009765625 m 1
 167.004882812 133.33984375 l 1
 300.334960938 133.33984375 l 1
 300.334960938 0.009765625 l 1
 167.004882812 0.009765625 l 1
300.334960938 0.009765625 m 1
 300.334960938 133.33984375 l 1
 433.665039062 133.33984375 l 1
 433.665039062 0.009765625 l 1
 300.334960938 0.009765625 l 1
433.665039062 0.009765625 m 1
 433.665039062 133.33984375 l 1
 566.995117188 133.33984375 l 1
 566.995117188 0.009765625 l 1
 433.665039062 0.009765625 l 1
EndSplineSet
EndChar

StartChar: two
Encoding: 50 50 54
Width: 734
VWidth: 27465
Flags: HW
HStem: 0.00976562 133.33<233.67 633.66> 266.67 133.33<233.67 500.33> 400 133.33<500.33 633.66> 533.33 133.33<100.34 233.67 500.33 633.66> 666.66 133.33<233.67 500.33>
VStem: 100.34 133.33<133.34 266.67 533.33 666.66> 233.67 266.66<266.67 400 666.66 799.99> 500.33 133.33<400 666.66>
LayerCount: 2
Fore
SplineSet
233.669921875 666.66015625 m 1x94
 233.669921875 799.990234375 l 1
 367 799.990234375 l 1
 367 666.66015625 l 1x8a
 233.669921875 666.66015625 l 1x94
367 666.66015625 m 1
 367 799.990234375 l 1
 500.330078125 799.990234375 l 1x8a
 500.330078125 666.66015625 l 1x92
 367 666.66015625 l 1
100.33984375 533.330078125 m 1x94
 100.33984375 666.66015625 l 1
 233.669921875 666.66015625 l 1
 233.669921875 533.330078125 l 1
 100.33984375 533.330078125 l 1x94
500.330078125 533.330078125 m 1xa1
 500.330078125 666.66015625 l 1x92
 633.66015625 666.66015625 l 1x91
 633.66015625 533.330078125 l 1
 500.330078125 533.330078125 l 1xa1
500.330078125 400 m 1xc2
 500.330078125 533.330078125 l 1
 633.66015625 533.330078125 l 1
 633.66015625 400 l 1xa1
 500.330078125 400 l 1xc2
233.669921875 266.669921875 m 1xc4
 233.669921875 400 l 1xc2
 367 400 l 1
 367 266.669921875 l 1
 233.669921875 266.669921875 l 1xc4
367 266.669921875 m 1
 367 400 l 1
 500.330078125 400 l 1
 500.330078125 266.669921875 l 1
 367 266.669921875 l 1
100.33984375 133.33984375 m 1xc4
 100.33984375 266.669921875 l 1
 233.669921875 266.669921875 l 1
 233.669921875 133.33984375 l 1
 100.33984375 133.33984375 l 1xc4
100.33984375 0.009765625 m 1
 100.33984375 133.33984375 l 1
 233.669921875 133.33984375 l 1x84
 233.669921875 0.009765625 l 1x82
 100.33984375 0.009765625 l 1
233.669921875 0.009765625 m 1x82
 233.669921875 133.33984375 l 1x84
 367 133.33984375 l 1
 367 0.009765625 l 1
 233.669921875 0.009765625 l 1x82
367 0.009765625 m 1
 367 133.33984375 l 1
 500.330078125 133.33984375 l 1
 500.330078125 0.009765625 l 1x81
 367 0.009765625 l 1
500.330078125 0.009765625 m 1
 500.330078125 133.33984375 l 1
 633.66015625 133.33984375 l 1
 633.66015625 0.009765625 l 1
 500.330078125 0.009765625 l 1
EndSplineSet
EndChar

StartChar: three
Encoding: 51 51 55
Width: 734
VWidth: 27465
Flags: HW
HStem: 0.00976562 133.33<233.67 500.33> 133.34 133.33<100.34 233.67> 400 133.33<367 500.33> 533.33 133.33<100.34 233.67 500.33 633.66> 666.66 133.33<233.67 500.33>
VStem: 100.34 133.33<133.34 266.67 533.33 666.66> 233.67 266.66<0.00976562 133.34 666.66 799.99> 367 133.33<400 533.33> 500.33 133.33<133.34 400 533.33 666.66>
LayerCount: 2
Fore
SplineSet
233.669921875 666.66015625 m 1x15
 233.669921875 799.990234375 l 1x0a
 367 799.990234375 l 1
 367 666.66015625 l 1x09
 233.669921875 666.66015625 l 1x15
367 666.66015625 m 1x09
 367 799.990234375 l 1x09
 500.330078125 799.990234375 l 1x0a
 500.330078125 666.66015625 l 1x12
 367 666.66015625 l 1x09
100.33984375 533.330078125 m 1x14
 100.33984375 666.66015625 l 1
 233.669921875 666.66015625 l 1
 233.669921875 533.330078125 l 1
 100.33984375 533.330078125 l 1x14
500.330078125 533.330078125 m 1x21
 500.330078125 666.66015625 l 1x12
 633.66015625 666.66015625 l 1
 633.66015625 533.330078125 l 1x1080
 500.330078125 533.330078125 l 1x21
367 400 m 1x21
 367 533.330078125 l 1
 500.330078125 533.330078125 l 1
 500.330078125 400 l 1
 367 400 l 1x21
500.330078125 266.669921875 m 1x6080
 500.330078125 400 l 1x61
 633.66015625 400 l 1
 633.66015625 266.669921875 l 1
 500.330078125 266.669921875 l 1x6080
100.33984375 133.33984375 m 1x44
 100.33984375 266.669921875 l 1
 233.669921875 266.669921875 l 1x44
 233.669921875 133.33984375 l 1x84
 100.33984375 133.33984375 l 1x44
500.330078125 133.33984375 m 1x82
 500.330078125 266.669921875 l 1
 633.66015625 266.669921875 l 1
 633.66015625 133.33984375 l 1x4080
 500.330078125 133.33984375 l 1x82
233.669921875 0.009765625 m 1x82
 233.669921875 133.33984375 l 1
 367 133.33984375 l 1
 367 0.009765625 l 1x85
 233.669921875 0.009765625 l 1x82
367 0.009765625 m 1
 367 133.33984375 l 1x81
 500.330078125 133.33984375 l 1
 500.330078125 0.009765625 l 1x82
 367 0.009765625 l 1
EndSplineSet
EndChar

StartChar: four
Encoding: 52 52 56
Width: 734
VWidth: 27465
Flags: HW
HStem: 0.00976562 21G<500.33 633.66> 0.00976562 21G<500.33 633.66> 266.67 133.33<233.67 500.33> 400 133.33<100.34 233.67> 533.33 133.33<233.67 367> 666.66 133.33<367 500.33>
VStem: 100.34 133.33<400 533.33> 233.67 133.33<533.33 666.66> 500.33 133.33<0.00976562 266.67 400 666.66>
LayerCount: 2
Fore
SplineSet
367 666.66015625 m 1x0980
 367 799.990234375 l 1
 500.330078125 799.990234375 l 1
 500.330078125 666.66015625 l 1x0580
 367 666.66015625 l 1x0980
500.330078125 666.66015625 m 1
 500.330078125 799.990234375 l 1
 633.66015625 799.990234375 l 1
 633.66015625 666.66015625 l 1
 500.330078125 666.66015625 l 1
233.669921875 533.330078125 m 1x1280
 233.669921875 666.66015625 l 1
 367 666.66015625 l 1
 367 533.330078125 l 1x0980
 233.669921875 533.330078125 l 1x1280
500.330078125 533.330078125 m 1
 500.330078125 666.66015625 l 1
 633.66015625 666.66015625 l 1x0480
 633.66015625 533.330078125 l 1
 500.330078125 533.330078125 l 1
100.33984375 400 m 1x1280
 100.33984375 533.330078125 l 1
 233.669921875 533.330078125 l 1x1280
 233.669921875 400 l 1x2280
 100.33984375 400 l 1x1280
500.330078125 400 m 1x2080
 500.330078125 533.330078125 l 1
 633.66015625 533.330078125 l 1x2880
 633.66015625 400 l 1x1080
 500.330078125 400 l 1x2080
233.669921875 266.669921875 m 1x2180
 233.669921875 400 l 1x2280
 367 400 l 1
 367 266.669921875 l 1
 233.669921875 266.669921875 l 1x2180
367 266.669921875 m 1x2180
 367 400 l 1
 500.330078125 400 l 1
 500.330078125 266.669921875 l 1
 367 266.669921875 l 1x2180
500.330078125 266.669921875 m 1
 500.330078125 400 l 1x2080
 633.66015625 400 l 1x1080
 633.66015625 266.669921875 l 1
 500.330078125 266.669921875 l 1
500.330078125 133.33984375 m 1
 500.330078125 266.669921875 l 1
 633.66015625 266.669921875 l 1
 633.66015625 133.33984375 l 1
 500.330078125 133.33984375 l 1
500.330078125 0.009765625 m 1x8080
 500.330078125 133.33984375 l 1
 633.66015625 133.33984375 l 1
 633.66015625 0.009765625 l 1
 500.330078125 0.009765625 l 1x8080
EndSplineSet
EndChar

StartChar: five
Encoding: 53 53 57
Width: 734
VWidth: 27465
Flags: HW
HStem: 0.00976562 133.33<233.67 500.33> 133.34 133.33<100.34 233.67> 400 133.33<100.34 500.33> 533.33 133.33<100.34 233.67> 666.66 133.33<100.34 633.66>
VStem: 100.34 133.33<133.34 266.67 533.33 666.66> 500.33 133.33<133.34 400>
LayerCount: 2
Fore
SplineSet
100.33984375 666.66015625 m 1x16
 100.33984375 799.990234375 l 1
 233.669921875 799.990234375 l 1x0e
 233.669921875 666.66015625 l 1
 100.33984375 666.66015625 l 1x16
233.669921875 666.66015625 m 1x16
 233.669921875 799.990234375 l 1
 367 799.990234375 l 1
 367 666.66015625 l 1x0e
 233.669921875 666.66015625 l 1x16
367 666.66015625 m 1
 367 799.990234375 l 1
 500.330078125 799.990234375 l 1
 500.330078125 666.66015625 l 1
 367 666.66015625 l 1
500.330078125 666.66015625 m 1
 500.330078125 799.990234375 l 1
 633.66015625 799.990234375 l 1
 633.66015625 666.66015625 l 1
 500.330078125 666.66015625 l 1
100.33984375 533.330078125 m 1x26
 100.33984375 666.66015625 l 1
 233.669921875 666.66015625 l 1x16
 233.669921875 533.330078125 l 1
 100.33984375 533.330078125 l 1x26
100.33984375 400 m 1x26
 100.33984375 533.330078125 l 1
 233.669921875 533.330078125 l 1
 233.669921875 400 l 1
 100.33984375 400 l 1x26
233.669921875 400 m 1
 233.669921875 533.330078125 l 1
 367 533.330078125 l 1
 367 400 l 1
 233.669921875 400 l 1
367 400 m 1
 367 533.330078125 l 1
 500.330078125 533.330078125 l 1
 500.330078125 400 l 1
 367 400 l 1
500.330078125 266.669921875 m 1x66
 500.330078125 400 l 1
 633.66015625 400 l 1
 633.66015625 266.669921875 l 1
 500.330078125 266.669921875 l 1x66
100.33984375 133.33984375 m 1
 100.33984375 266.669921875 l 1
 233.669921875 266.669921875 l 1x46
 233.669921875 133.33984375 l 1x86
 100.33984375 133.33984375 l 1
500.330078125 133.33984375 m 1x86
 500.330078125 266.669921875 l 1
 633.66015625 266.669921875 l 1
 633.66015625 133.33984375 l 1x46
 500.330078125 133.33984375 l 1x86
233.669921875 0.009765625 m 1x86
 233.669921875 133.33984375 l 1
 367 133.33984375 l 1
 367 0.009765625 l 1
 233.669921875 0.009765625 l 1x86
367 0.009765625 m 1
 367 133.33984375 l 1
 500.330078125 133.33984375 l 1
 500.330078125 0.009765625 l 1
 367 0.009765625 l 1
EndSplineSet
EndChar

StartChar: six
Encoding: 54 54 58
Width: 734
VWidth: 27465
Flags: HW
HStem: 0.00976562 133.33<233.67 500.33> 133.34 133.33<500.33 633.66> 266.67 133.33<500.33 633.66> 400 133.33<100.34 500.33> 533.33 133.33<100.34 233.67> 666.66 133.33<233.67 500.33>
VStem: 100.34 133.33<133.34 400 533.33 666.66> 233.67 266.66<0.00976562 133.34 666.66 799.99> 500.33 133.33<133.34 400>
LayerCount: 2
Fore
SplineSet
233.669921875 666.66015625 m 1x0a
 233.669921875 799.990234375 l 1
 367 799.990234375 l 1
 367 666.66015625 l 1x05
 233.669921875 666.66015625 l 1x0a
367 666.66015625 m 1
 367 799.990234375 l 1
 500.330078125 799.990234375 l 1
 500.330078125 666.66015625 l 1
 367 666.66015625 l 1
100.33984375 533.330078125 m 1x12
 100.33984375 666.66015625 l 1
 233.669921875 666.66015625 l 1x0a
 233.669921875 533.330078125 l 1
 100.33984375 533.330078125 l 1x12
100.33984375 400 m 1x12
 100.33984375 533.330078125 l 1
 233.669921875 533.330078125 l 1
 233.669921875 400 l 1
 100.33984375 400 l 1x12
233.669921875 400 m 1
 233.669921875 533.330078125 l 1
 367 533.330078125 l 1
 367 400 l 1
 233.669921875 400 l 1
367 400 m 1
 367 533.330078125 l 1
 500.330078125 533.330078125 l 1x1080
 500.330078125 400 l 1x2080
 367 400 l 1
100.33984375 266.669921875 m 1x22
 100.33984375 400 l 1
 233.669921875 400 l 1x12
 233.669921875 266.669921875 l 1
 100.33984375 266.669921875 l 1x22
500.330078125 266.669921875 m 1x4080
 500.330078125 400 l 1
 633.66015625 400 l 1x2080
 633.66015625 266.669921875 l 1
 500.330078125 266.669921875 l 1x4080
100.33984375 133.33984375 m 1x42
 100.33984375 266.669921875 l 1
 233.669921875 266.669921875 l 1
 233.669921875 133.33984375 l 1xa2
 100.33984375 133.33984375 l 1x42
500.330078125 133.33984375 m 1x81
 500.330078125 266.669921875 l 1
 633.66015625 266.669921875 l 1
 633.66015625 133.33984375 l 1x4080
 500.330078125 133.33984375 l 1x81
233.669921875 0.009765625 m 1x81
 233.669921875 133.33984375 l 1x82
 367 133.33984375 l 1
 367 0.009765625 l 1
 233.669921875 0.009765625 l 1x81
367 0.009765625 m 1
 367 133.33984375 l 1
 500.330078125 133.33984375 l 1
 500.330078125 0.009765625 l 1x81
 367 0.009765625 l 1
EndSplineSet
EndChar

StartChar: seven
Encoding: 55 55 59
Width: 734
VWidth: 27465
Flags: HW
HStem: 0.00976562 21G<233.67 367> 0.00976562 21G<233.67 367> 533.33 133.33<500.33 633.66> 666.66 133.33<100.34 633.66>
VStem: 233.67 133.33<0.00976562 266.67> 367 133.33<266.67 533.33> 500.33 133.33<533.33 666.66>
LayerCount: 2
Fore
SplineSet
100.33984375 666.66015625 m 1x18
 100.33984375 799.990234375 l 1
 233.669921875 799.990234375 l 1
 233.669921875 666.66015625 l 1
 100.33984375 666.66015625 l 1x18
233.669921875 666.66015625 m 1
 233.669921875 799.990234375 l 1x18
 367 799.990234375 l 1
 367 666.66015625 l 1x14
 233.669921875 666.66015625 l 1
367 666.66015625 m 1x14
 367 799.990234375 l 1x14
 500.330078125 799.990234375 l 1x12
 500.330078125 666.66015625 l 1x22
 367 666.66015625 l 1x14
500.330078125 666.66015625 m 1x22
 500.330078125 799.990234375 l 1
 633.66015625 799.990234375 l 1x12
 633.66015625 666.66015625 l 1
 500.330078125 666.66015625 l 1x22
500.330078125 533.330078125 m 1x24
 500.330078125 666.66015625 l 1
 633.66015625 666.66015625 l 1
 633.66015625 533.330078125 l 1x22
 500.330078125 533.330078125 l 1x24
367 400 m 1x24
 367 533.330078125 l 1
 500.330078125 533.330078125 l 1
 500.330078125 400 l 1
 367 400 l 1x24
367 266.669921875 m 1x08
 367 400 l 1
 500.330078125 400 l 1
 500.330078125 266.669921875 l 1x04
 367 266.669921875 l 1x08
233.669921875 133.33984375 m 1x08
 233.669921875 266.669921875 l 1
 367 266.669921875 l 1
 367 133.33984375 l 1
 233.669921875 133.33984375 l 1x08
233.669921875 0.009765625 m 1x88
 233.669921875 133.33984375 l 1
 367 133.33984375 l 1
 367 0.009765625 l 1
 233.669921875 0.009765625 l 1x88
EndSplineSet
EndChar

StartChar: eight
Encoding: 56 56 60
Width: 734
VWidth: 27465
Flags: HW
HStem: 0.00976562 133.33<233.67 500.33> 133.34 266.66<100.34 233.67 500.33 633.66> 400 133.33<233.67 500.33> 533.33 133.33<100.34 233.67 500.33 633.66> 666.66 133.33<233.67 500.33>
VStem: 100.34 133.33<133.34 400 533.33 666.66> 233.67 266.66<0.00976562 133.34 400 533.33 666.66 799.99> 500.33 133.33<133.34 400 533.33 666.66>
LayerCount: 2
Fore
SplineSet
233.669921875 666.66015625 m 1x14
 233.669921875 799.990234375 l 1
 367 799.990234375 l 1
 367 666.66015625 l 1x0a
 233.669921875 666.66015625 l 1x14
367 666.66015625 m 1
 367 799.990234375 l 1
 500.330078125 799.990234375 l 1x0a
 500.330078125 666.66015625 l 1x12
 367 666.66015625 l 1
100.33984375 533.330078125 m 1x14
 100.33984375 666.66015625 l 1
 233.669921875 666.66015625 l 1x14
 233.669921875 533.330078125 l 1x24
 100.33984375 533.330078125 l 1x14
500.330078125 533.330078125 m 1x22
 500.330078125 666.66015625 l 1x12
 633.66015625 666.66015625 l 1
 633.66015625 533.330078125 l 1x11
 500.330078125 533.330078125 l 1x22
233.669921875 400 m 1x44
 233.669921875 533.330078125 l 1
 367 533.330078125 l 1
 367 400 l 1x24
 233.669921875 400 l 1x44
367 400 m 1
 367 533.330078125 l 1
 500.330078125 533.330078125 l 1x22
 500.330078125 400 l 1x42
 367 400 l 1
100.33984375 266.669921875 m 1x44
 100.33984375 400 l 1
 233.669921875 400 l 1
 233.669921875 266.669921875 l 1
 100.33984375 266.669921875 l 1x44
500.330078125 266.669921875 m 1x41
 500.330078125 400 l 1x42
 633.66015625 400 l 1
 633.66015625 266.669921875 l 1
 500.330078125 266.669921875 l 1x41
100.33984375 133.33984375 m 1x44
 100.33984375 266.669921875 l 1
 233.669921875 266.669921875 l 1
 233.669921875 133.33984375 l 1x84
 100.33984375 133.33984375 l 1x44
500.330078125 133.33984375 m 1x82
 500.330078125 266.669921875 l 1
 633.66015625 266.669921875 l 1
 633.66015625 133.33984375 l 1x41
 500.330078125 133.33984375 l 1x82
233.669921875 0.009765625 m 1x82
 233.669921875 133.33984375 l 1x84
 367 133.33984375 l 1
 367 0.009765625 l 1
 233.669921875 0.009765625 l 1x82
367 0.009765625 m 1
 367 133.33984375 l 1
 500.330078125 133.33984375 l 1
 500.330078125 0.009765625 l 1x82
 367 0.009765625 l 1
EndSplineSet
EndChar

StartChar: exclam
Encoding: 33 33 61
Width: 734
VWidth: 27465
Flags: HW
HStem: 0.00976562 133.33<233.67 500.33> 266.67 133.33<233.67 500.33> 400 399.99<233.67 500.33> 646.66 20G<233.67 367 367 500.33> 646.66 20G<233.67 367 367 500.33> 666.66 21G<233.67 367 367 500.33> 666.66 21G<233.67 367 367 500.33>
VStem: 233.67 266.66<0.00976562 133.34 266.67 799.99>
LayerCount: 2
Fore
SplineSet
233.669921875 666.66015625 m 1x91
 233.669921875 799.990234375 l 1
 367 799.990234375 l 1xa1
 367 666.66015625 l 1
 233.669921875 666.66015625 l 1x91
367 666.66015625 m 1x91
 367 799.990234375 l 1
 500.330078125 799.990234375 l 1xa1
 500.330078125 666.66015625 l 1
 367 666.66015625 l 1x91
233.669921875 533.330078125 m 1
 233.669921875 666.66015625 l 1
 367 666.66015625 l 1x91
 367 533.330078125 l 1
 233.669921875 533.330078125 l 1
367 533.330078125 m 1
 367 666.66015625 l 1
 500.330078125 666.66015625 l 1
 500.330078125 533.330078125 l 1
 367 533.330078125 l 1
233.669921875 400 m 1xc1
 233.669921875 533.330078125 l 1
 367 533.330078125 l 1
 367 400 l 1
 233.669921875 400 l 1xc1
367 400 m 1
 367 533.330078125 l 1
 500.330078125 533.330078125 l 1
 500.330078125 400 l 1
 367 400 l 1
233.669921875 266.669921875 m 1
 233.669921875 400 l 1
 367 400 l 1
 367 266.669921875 l 1
 233.669921875 266.669921875 l 1
367 266.669921875 m 1
 367 400 l 1
 500.330078125 400 l 1
 500.330078125 266.669921875 l 1
 367 266.669921875 l 1
233.669921875 0.009765625 m 1
 233.669921875 133.33984375 l 1
 367 133.33984375 l 1
 367 0.009765625 l 1
 233.669921875 0.009765625 l 1
367 0.009765625 m 1
 367 133.33984375 l 1
 500.330078125 133.33984375 l 1
 500.330078125 0.009765625 l 1
 367 0.009765625 l 1
EndSplineSet
EndChar

StartChar: quotedbl
Encoding: 34 34 62
Width: 400
VWidth: 27466
Flags: HW
HStem: 401.455 133.33<66.84 200.17> 534.785 133.33<-66.49 66.84 333.5 466.83> 668.115 133.33<200.17 333.5>
VStem: -66.49 133.33<534.785 668.115> 66.84 133.33<401.455 534.785> 200.17 133.33<668.115 801.445> 333.5 133.33<534.785 668.115>
LayerCount: 2
Fore
SplineSet
200.16015625 667.114257812 m 1x24
 200.16015625 800.444335938 l 1
 333.490234375 800.444335938 l 1x24
 333.490234375 667.114257812 l 1x44
 200.16015625 667.114257812 l 1x24
-66.5 533.784179688 m 1x50
 -66.5 667.114257812 l 1
 66.830078125 667.114257812 l 1x50
 66.830078125 533.784179688 l 1x90
 -66.5 533.784179688 l 1x50
333.490234375 533.784179688 m 1x42
 333.490234375 667.114257812 l 1x44
 466.8203125 667.114257812 l 1
 466.8203125 533.784179688 l 1
 333.490234375 533.784179688 l 1x42
66.830078125 400.454101562 m 1x88
 66.830078125 533.784179688 l 1x90
 200.16015625 533.784179688 l 1
 200.16015625 400.454101562 l 1
 66.830078125 400.454101562 l 1x88
EndSplineSet
EndChar

StartChar: quotesingle
Encoding: 39 39 63
Width: 300
VWidth: 27599
Flags: HW
HStem: 534.27 133.33<16.6705 150> 667.6 133.33<150 283.33>
VStem: 16.6705 133.33<534.27 667.6> 150 133.33<667.6 800.93>
LayerCount: 2
Fore
SplineSet
150 667.599609375 m 1xa0
 150 800.9296875 l 1
 283.330078125 800.9296875 l 1
 283.330078125 667.599609375 l 1x50
 150 667.599609375 l 1xa0
16.669921875 534.26953125 m 1xa0
 16.669921875 667.599609375 l 1
 150 667.599609375 l 1
 150 534.26953125 l 1
 16.669921875 534.26953125 l 1xa0
EndSplineSet
EndChar

StartChar: numbersign
Encoding: 35 35 64
Width: 734
VWidth: 27532
Flags: HW
HStem: 66.1748 266.66<233.67 500.33> 199.505 133.33<100.34 233.67 500.33 633.66> 332.835 399.99<233.67 500.33> 466.165 133.33<100.34 233.67 500.33 633.66>
VStem: 233.67 266.66<66.1748 199.505 332.835 466.165 599.495 732.825>
LayerCount: 2
Fore
SplineSet
233.669921875 599.495117188 m 1x18
 233.669921875 732.825195312 l 1
 367 732.825195312 l 1x28
 367 599.495117188 l 1
 233.669921875 599.495117188 l 1x18
367 599.495117188 m 1x18
 367 732.825195312 l 1
 500.330078125 732.825195312 l 1x28
 500.330078125 599.495117188 l 1
 367 599.495117188 l 1x18
100.33984375 466.165039062 m 1x18
 100.33984375 599.495117188 l 1
 233.669921875 599.495117188 l 1
 233.669921875 466.165039062 l 1
 100.33984375 466.165039062 l 1x18
233.669921875 466.165039062 m 1
 233.669921875 599.495117188 l 1
 367 599.495117188 l 1
 367 466.165039062 l 1
 233.669921875 466.165039062 l 1
367 466.165039062 m 1
 367 599.495117188 l 1
 500.330078125 599.495117188 l 1
 500.330078125 466.165039062 l 1
 367 466.165039062 l 1
500.330078125 466.165039062 m 1
 500.330078125 599.495117188 l 1
 633.66015625 599.495117188 l 1
 633.66015625 466.165039062 l 1
 500.330078125 466.165039062 l 1
233.669921875 332.834960938 m 1x98
 233.669921875 466.165039062 l 1
 367 466.165039062 l 1
 367 332.834960938 l 1
 233.669921875 332.834960938 l 1x98
367 332.834960938 m 1
 367 466.165039062 l 1
 500.330078125 466.165039062 l 1
 500.330078125 332.834960938 l 1
 367 332.834960938 l 1
100.33984375 199.504882812 m 1x48
 100.33984375 332.834960938 l 1x48
 233.669921875 332.834960938 l 1x88
 233.669921875 199.504882812 l 1
 100.33984375 199.504882812 l 1x48
233.669921875 199.504882812 m 1
 233.669921875 332.834960938 l 1
 367 332.834960938 l 1x88
 367 199.504882812 l 1
 233.669921875 199.504882812 l 1
367 199.504882812 m 1x48
 367 332.834960938 l 1
 500.330078125 332.834960938 l 1x88
 500.330078125 199.504882812 l 1
 367 199.504882812 l 1x48
500.330078125 199.504882812 m 1x48
 500.330078125 332.834960938 l 1x88
 633.66015625 332.834960938 l 1
 633.66015625 199.504882812 l 1
 500.330078125 199.504882812 l 1x48
233.669921875 66.1748046875 m 1
 233.669921875 199.504882812 l 1
 367 199.504882812 l 1x48
 367 66.1748046875 l 1
 233.669921875 66.1748046875 l 1
367 66.1748046875 m 1x88
 367 199.504882812 l 1
 500.330078125 199.504882812 l 1x48
 500.330078125 66.1748046875 l 1
 367 66.1748046875 l 1x88
EndSplineSet
EndChar

StartChar: dollar
Encoding: 36 36 65
Width: 734
VWidth: 27465
Flags: HW
HStem: 0.00976562 133.33<100.34 233.67 367 500.33> 266.67 133.33<100.34 500.33> 400 133.33<100.34 233.67> 533.33 133.33<233.67 367 500.33 633.66> 666.66 21G<367 500.33> 666.66 21G<367 500.33> 779.99 20G<367 500.33>
VStem: 100.34 133.33<400 533.33> 233.67 133.33<133.34 266.67> 367 133.33<400 533.33 666.66 799.99> 500.33 133.33<133.34 266.67>
LayerCount: 2
Fore
SplineSet
367 666.66015625 m 1x9240
 367 799.990234375 l 1
 500.330078125 799.990234375 l 1
 500.330078125 666.66015625 l 1
 367 666.66015625 l 1x9240
233.669921875 533.330078125 m 1xa340
 233.669921875 666.66015625 l 1x9280
 367 666.66015625 l 1
 367 533.330078125 l 1x9240
 233.669921875 533.330078125 l 1xa340
367 533.330078125 m 1x9240
 367 666.66015625 l 1
 500.330078125 666.66015625 l 1
 500.330078125 533.330078125 l 1
 367 533.330078125 l 1x9240
500.330078125 533.330078125 m 1
 500.330078125 666.66015625 l 1x9240
 633.66015625 666.66015625 l 1
 633.66015625 533.330078125 l 1x9220
 500.330078125 533.330078125 l 1
100.33984375 400 m 1xc3
 100.33984375 533.330078125 l 1
 233.669921875 533.330078125 l 1xa3
 233.669921875 400 l 1
 100.33984375 400 l 1xc3
367 400 m 1xd240
 367 533.330078125 l 1
 500.330078125 533.330078125 l 1
 500.330078125 400 l 1
 367 400 l 1xd240
100.33984375 266.669921875 m 1xc3
 100.33984375 400 l 1
 233.669921875 400 l 1xc3
 233.669921875 266.669921875 l 1xc280
 100.33984375 266.669921875 l 1xc3
233.669921875 266.669921875 m 1xc280
 233.669921875 400 l 1
 367 400 l 1xc340
 367 266.669921875 l 1
 233.669921875 266.669921875 l 1xc280
367 266.669921875 m 1xc2a0
 367 400 l 1
 500.330078125 400 l 1xc240
 500.330078125 266.669921875 l 1
 367 266.669921875 l 1xc2a0
500.330078125 266.669921875 m 1xc220
 500.330078125 400 l 1xc240
 633.66015625 400 l 1xa220
 633.66015625 266.669921875 l 1
 500.330078125 266.669921875 l 1xc220
233.669921875 133.33984375 m 1xc280
 233.669921875 266.669921875 l 1
 367 266.669921875 l 1
 367 133.33984375 l 1
 233.669921875 133.33984375 l 1xc280
500.330078125 133.33984375 m 1xc220
 500.330078125 266.669921875 l 1
 633.66015625 266.669921875 l 1
 633.66015625 133.33984375 l 1
 500.330078125 133.33984375 l 1xc220
100.33984375 0.009765625 m 1x83
 100.33984375 133.33984375 l 1x83
 233.669921875 133.33984375 l 1
 233.669921875 0.009765625 l 1x8280
 100.33984375 0.009765625 l 1x83
233.669921875 0.009765625 m 1x8280
 233.669921875 133.33984375 l 1
 367 133.33984375 l 1x8280
 367 0.009765625 l 1x8240
 233.669921875 0.009765625 l 1x8280
367 0.009765625 m 1x8240
 367 133.33984375 l 1
 500.330078125 133.33984375 l 1
 500.330078125 0.009765625 l 1x82a0
 367 0.009765625 l 1x8240
EndSplineSet
EndChar

StartChar: percent
Encoding: 37 37 66
Width: 734
VWidth: 27465
Flags: HW
HStem: 133.34 133.33<100.34 233.67 500.33 633.66> 266.67 133.33<233.67 367> 400 133.33<367 500.33> 533.33 133.33<100.34 233.67 500.33 633.66>
VStem: 100.34 133.33<133.34 266.67 533.33 666.66> 233.67 133.33<266.67 400> 367 133.33<400 533.33> 500.33 133.33<133.34 266.67 533.33 666.66>
LayerCount: 2
Fore
SplineSet
100.33984375 533.330078125 m 1x18
 100.33984375 666.66015625 l 1
 233.669921875 666.66015625 l 1
 233.669921875 533.330078125 l 1
 100.33984375 533.330078125 l 1x18
500.330078125 533.330078125 m 1x22
 500.330078125 666.66015625 l 1
 633.66015625 666.66015625 l 1
 633.66015625 533.330078125 l 1x11
 500.330078125 533.330078125 l 1x22
367 400 m 1x44
 367 533.330078125 l 1
 500.330078125 533.330078125 l 1
 500.330078125 400 l 1x22
 367 400 l 1x44
233.669921875 266.669921875 m 1x88
 233.669921875 400 l 1
 367 400 l 1
 367 266.669921875 l 1x44
 233.669921875 266.669921875 l 1x88
100.33984375 133.33984375 m 1x88
 100.33984375 266.669921875 l 1
 233.669921875 266.669921875 l 1
 233.669921875 133.33984375 l 1
 100.33984375 133.33984375 l 1x88
500.330078125 133.33984375 m 1x81
 500.330078125 266.669921875 l 1
 633.66015625 266.669921875 l 1
 633.66015625 133.33984375 l 1
 500.330078125 133.33984375 l 1x81
EndSplineSet
EndChar

StartChar: ampersand
Encoding: 38 38 67
Width: 734
VWidth: 27465
Flags: HW
HStem: 0.00976562 133.33<233.67 367 500.33 633.66> 133.34 133.33<100.34 233.67 367 500.33> 266.67 133.33<233.67 367 500.33 633.66> 400 133.33<233.67 367> 533.33 133.33<100.34 233.67 367 500.33> 666.66 133.33<233.67 367>
VStem: 100.34 133.33<133.34 266.67 533.33 666.66> 233.67 133.33<0.00976562 133.34 266.67 533.33 666.66 799.99> 367 133.33<133.34 266.67 533.33 666.66> 500.33 133.33<0.00976562 133.34 266.67 400>
LayerCount: 2
Fore
SplineSet
233.669921875 666.66015625 m 1x0a
 233.669921875 799.990234375 l 1
 367 799.990234375 l 1x05
 367 666.66015625 l 1x09
 233.669921875 666.66015625 l 1x0a
100.33984375 533.330078125 m 1x0a
 100.33984375 666.66015625 l 1
 233.669921875 666.66015625 l 1x0a
 233.669921875 533.330078125 l 1x12
 100.33984375 533.330078125 l 1x0a
367 533.330078125 m 1x11
 367 666.66015625 l 1x09
 500.330078125 666.66015625 l 1
 500.330078125 533.330078125 l 1x0880
 367 533.330078125 l 1x11
233.669921875 400 m 1x21
 233.669921875 533.330078125 l 1x12
 367 533.330078125 l 1x11
 367 400 l 1
 233.669921875 400 l 1x21
233.669921875 266.669921875 m 1x42
 233.669921875 400 l 1
 367 400 l 1x21
 367 266.669921875 l 1x41
 233.669921875 266.669921875 l 1x42
500.330078125 266.669921875 m 1x4080
 500.330078125 400 l 1
 633.66015625 400 l 1
 633.66015625 266.669921875 l 1x2040
 500.330078125 266.669921875 l 1x4080
100.33984375 133.33984375 m 1x42
 100.33984375 266.669921875 l 1
 233.669921875 266.669921875 l 1x42
 233.669921875 133.33984375 l 1x82
 100.33984375 133.33984375 l 1x42
367 133.33984375 m 1x81
 367 266.669921875 l 1x41
 500.330078125 266.669921875 l 1x4080
 500.330078125 133.33984375 l 1x8080
 367 133.33984375 l 1x81
233.669921875 0.009765625 m 1x81
 233.669921875 133.33984375 l 1x82
 367 133.33984375 l 1
 367 0.009765625 l 1
 233.669921875 0.009765625 l 1x81
500.330078125 0.009765625 m 1x8040
 500.330078125 133.33984375 l 1x8080
 633.66015625 133.33984375 l 1
 633.66015625 0.009765625 l 1
 500.330078125 0.009765625 l 1x8040
EndSplineSet
EndChar

StartChar: parenleft
Encoding: 40 40 68
Width: 734
VWidth: 27465
Flags: HW
HStem: 0.00976562 133.33<433.665 566.995> 133.34 133.33<300.335 433.665> 266.67 133.33<167.005 300.335> 400 133.33<167.005 300.335> 533.33 133.33<300.335 433.665> 666.66 133.33<433.665 566.995>
VStem: 167.005 133.33<266.67 533.33> 300.335 133.33<133.34 266.67 533.33 666.66> 433.665 133.33<0.00976562 133.34 666.66 799.99>
LayerCount: 2
Fore
SplineSet
433.665039062 666.66015625 m 1x09
 433.665039062 799.990234375 l 1
 566.995117188 799.990234375 l 1
 566.995117188 666.66015625 l 1x0480
 433.665039062 666.66015625 l 1x09
300.334960938 533.330078125 m 1x12
 300.334960938 666.66015625 l 1
 433.665039062 666.66015625 l 1
 433.665039062 533.330078125 l 1x09
 300.334960938 533.330078125 l 1x12
167.004882812 400 m 1x22
 167.004882812 533.330078125 l 1
 300.334960938 533.330078125 l 1x12
 300.334960938 400 l 1
 167.004882812 400 l 1x22
167.004882812 266.669921875 m 1x22
 167.004882812 400 l 1
 300.334960938 400 l 1x22
 300.334960938 266.669921875 l 1x42
 167.004882812 266.669921875 l 1x22
300.334960938 133.33984375 m 1x41
 300.334960938 266.669921875 l 1x42
 433.665039062 266.669921875 l 1x41
 433.665039062 133.33984375 l 1x81
 300.334960938 133.33984375 l 1x41
433.665039062 0.009765625 m 1x8080
 433.665039062 133.33984375 l 1x81
 566.995117188 133.33984375 l 1
 566.995117188 0.009765625 l 1
 433.665039062 0.009765625 l 1x8080
EndSplineSet
EndChar

StartChar: parenright
Encoding: 41 41 69
Width: 734
VWidth: 27465
Flags: HW
HStem: 0.00976562 133.33<167.005 300.335> 133.34 133.33<300.335 433.665> 266.67 133.33<433.665 566.995> 400 133.33<433.665 566.995> 533.33 133.33<300.335 433.665> 666.66 133.33<167.005 300.335>
VStem: 167.005 133.33<0.00976562 133.34 666.66 799.99> 300.335 133.33<133.34 266.67 533.33 666.66> 433.665 133.33<266.67 533.33>
LayerCount: 2
Fore
SplineSet
167.004882812 666.66015625 m 1x06
 167.004882812 799.990234375 l 1
 300.334960938 799.990234375 l 1x06
 300.334960938 666.66015625 l 1x0a
 167.004882812 666.66015625 l 1x06
300.334960938 533.330078125 m 1x09
 300.334960938 666.66015625 l 1x0a
 433.665039062 666.66015625 l 1x09
 433.665039062 533.330078125 l 1x11
 300.334960938 533.330078125 l 1x09
433.665039062 400 m 1x2080
 433.665039062 533.330078125 l 1x11
 566.995117188 533.330078125 l 1x1080
 566.995117188 400 l 1
 433.665039062 400 l 1x2080
433.665039062 266.669921875 m 1x41
 433.665039062 400 l 1
 566.995117188 400 l 1
 566.995117188 266.669921875 l 1x2080
 433.665039062 266.669921875 l 1x41
300.334960938 133.33984375 m 1x82
 300.334960938 266.669921875 l 1
 433.665039062 266.669921875 l 1
 433.665039062 133.33984375 l 1x41
 300.334960938 133.33984375 l 1x82
167.004882812 0.009765625 m 1x82
 167.004882812 133.33984375 l 1
 300.334960938 133.33984375 l 1
 300.334960938 0.009765625 l 1
 167.004882812 0.009765625 l 1x82
EndSplineSet
EndChar

StartChar: asterisk
Encoding: 42 42 70
Width: 734
VWidth: 27465
Flags: HW
HStem: 266.67 133.33<500.33 633.66> 400 133.33<100.34 367> 533.33 133.33<367 500.33>
VStem: 233.67 133.33<133.34 266.67> 367 133.33<533.33 666.66>
LayerCount: 2
Fore
SplineSet
367 533.330078125 m 1x48
 367 666.66015625 l 1
 500.330078125 666.66015625 l 1
 500.330078125 533.330078125 l 1x28
 367 533.330078125 l 1x48
100.33984375 400 m 1x50
 100.33984375 533.330078125 l 1
 233.669921875 533.330078125 l 1
 233.669921875 400 l 1
 100.33984375 400 l 1x50
233.669921875 400 m 1
 233.669921875 533.330078125 l 1x50
 367 533.330078125 l 1
 367 400 l 1x48
 233.669921875 400 l 1
367 400 m 1x48
 367 533.330078125 l 1x48
 500.330078125 533.330078125 l 1
 500.330078125 400 l 1xa8
 367 400 l 1x48
233.669921875 266.669921875 m 1x90
 233.669921875 400 l 1x50
 367 400 l 1x48
 367 266.669921875 l 1
 233.669921875 266.669921875 l 1x90
367 266.669921875 m 1x90
 367 400 l 1x48
 500.330078125 400 l 1
 500.330078125 266.669921875 l 1x88
 367 266.669921875 l 1x90
500.330078125 266.669921875 m 1x88
 500.330078125 400 l 1
 633.66015625 400 l 1
 633.66015625 266.669921875 l 1
 500.330078125 266.669921875 l 1x88
233.669921875 133.33984375 m 1x90
 233.669921875 266.669921875 l 1
 367 266.669921875 l 1
 367 133.33984375 l 1
 233.669921875 133.33984375 l 1x90
EndSplineSet
EndChar

StartChar: plus
Encoding: 43 43 71
Width: 734
VWidth: 27532
Flags: HW
HStem: 332.835 133.33<167.005 300.335 433.665 566.995> 466.165 133.33<300.335 433.665>
VStem: 300.335 133.33<199.505 332.835 466.165 599.495>
LayerCount: 2
Fore
SplineSet
300.334960938 466.165039062 m 1xa0
 300.334960938 599.495117188 l 1
 433.665039062 599.495117188 l 1x60
 433.665039062 466.165039062 l 1
 300.334960938 466.165039062 l 1xa0
167.004882812 332.834960938 m 1xa0
 167.004882812 466.165039062 l 1
 300.334960938 466.165039062 l 1
 300.334960938 332.834960938 l 1
 167.004882812 332.834960938 l 1xa0
300.334960938 332.834960938 m 1
 300.334960938 466.165039062 l 1
 433.665039062 466.165039062 l 1
 433.665039062 332.834960938 l 1
 300.334960938 332.834960938 l 1
433.665039062 332.834960938 m 1
 433.665039062 466.165039062 l 1
 566.995117188 466.165039062 l 1
 566.995117188 332.834960938 l 1
 433.665039062 332.834960938 l 1
300.334960938 199.504882812 m 1
 300.334960938 332.834960938 l 1
 433.665039062 332.834960938 l 1
 433.665039062 199.504882812 l 1
 300.334960938 199.504882812 l 1
EndSplineSet
EndChar

StartChar: comma
Encoding: 44 44 72
Width: 517
VWidth: 27328
Flags: HW
HStem: -135.23 133.33<50.3406 183.671> -1.9 133.33<183.671 317.001>
VStem: 50.3406 133.33<-135.23 -1.9> 183.671 133.33<-1.9 131.43>
LayerCount: 2
Fore
SplineSet
183.669921875 -1.8994140625 m 1xa0
 183.669921875 131.430664062 l 1
 317 131.430664062 l 1
 317 -1.8994140625 l 1x50
 183.669921875 -1.8994140625 l 1xa0
50.33984375 -135.229492188 m 1xa0
 50.33984375 -1.8994140625 l 1
 183.669921875 -1.8994140625 l 1
 183.669921875 -135.229492188 l 1
 50.33984375 -135.229492188 l 1xa0
EndSplineSet
EndChar

StartChar: hyphen
Encoding: 45 45 73
Width: 467
VWidth: 27532
Flags: HW
HStem: 332.835 133.33<100.34 367>
VStem: 100.34 266.66<332.835 466.165>
LayerCount: 2
Fore
SplineSet
100.33984375 332.834960938 m 1
 100.33984375 466.165039062 l 1
 233.669921875 466.165039062 l 1
 233.669921875 332.834960938 l 1
 100.33984375 332.834960938 l 1
233.669921875 332.834960938 m 1
 233.669921875 466.165039062 l 1
 367 466.165039062 l 1
 367 332.834960938 l 1
 233.669921875 332.834960938 l 1
EndSplineSet
EndChar

StartChar: period
Encoding: 46 46 74
Width: 734
VWidth: 27796
Flags: HW
HStem: 330.835 133.33<300.335 433.665>
VStem: 300.335 133.33<330.835 464.165>
LayerCount: 2
Fore
SplineSet
300.334960938 330.834960938 m 1
 300.334960938 464.165039062 l 1
 433.665039062 464.165039062 l 1
 433.665039062 330.834960938 l 1
 300.334960938 330.834960938 l 1
EndSplineSet
EndChar

StartChar: slash
Encoding: 47 47 75
Width: 734
VWidth: 27465
Flags: HW
HStem: 0.00976562 133.33<100.34 233.67> 133.34 133.33<233.67 367> 266.67 133.33<233.67 367> 400 133.33<367 500.33> 533.33 133.33<367 500.33> 666.66 133.33<500.33 633.66>
VStem: 100.34 133.33<0.00976562 133.34> 233.67 133.33<133.34 400> 367 133.33<400 666.66> 500.33 133.33<666.66 799.99>
LayerCount: 2
Fore
SplineSet
500.330078125 666.66015625 m 1x0880
 500.330078125 799.990234375 l 1
 633.66015625 799.990234375 l 1
 633.66015625 666.66015625 l 1x0440
 500.330078125 666.66015625 l 1x0880
367 533.330078125 m 1x1080
 367 666.66015625 l 1
 500.330078125 666.66015625 l 1x0880
 500.330078125 533.330078125 l 1
 367 533.330078125 l 1x1080
367 400 m 1x21
 367 533.330078125 l 1
 500.330078125 533.330078125 l 1
 500.330078125 400 l 1x1080
 367 400 l 1x21
233.669921875 266.669921875 m 1x41
 233.669921875 400 l 1
 367 400 l 1x21
 367 266.669921875 l 1
 233.669921875 266.669921875 l 1x41
233.669921875 133.33984375 m 1x82
 233.669921875 266.669921875 l 1
 367 266.669921875 l 1
 367 133.33984375 l 1x41
 233.669921875 133.33984375 l 1x82
100.33984375 0.009765625 m 1x82
 100.33984375 133.33984375 l 1
 233.669921875 133.33984375 l 1
 233.669921875 0.009765625 l 1
 100.33984375 0.009765625 l 1x82
EndSplineSet
EndChar

StartChar: colon
Encoding: 58 58 76
Width: 383
VWidth: 27532
Flags: HW
HStem: 199.505 133.33<49.9986 183.329> 466.165 133.33<49.9986 183.329>
VStem: 49.9986 133.33<199.505 332.835 466.165 599.495>
LayerCount: 2
Fore
SplineSet
50 466.165039062 m 1
 50 599.495117188 l 1
 183.330078125 599.495117188 l 1
 183.330078125 466.165039062 l 1
 50 466.165039062 l 1
50 199.504882812 m 1
 50 332.834960938 l 1
 183.330078125 332.834960938 l 1
 183.330078125 199.504882812 l 1
 50 199.504882812 l 1
EndSplineSet
EndChar

StartChar: semicolon
Encoding: 59 59 77
Width: 517
VWidth: 27465
Flags: HW
HStem: 0.00976562 133.33<51.3413 184.671> 133.34 133.33<184.671 318.001> 266.67 133.33<184.671 318.001> 400 133.33<318.001 451.331> 533.33 133.33<318.001 451.331> 666.66 133.33<451.331 584.661>
VStem: 51.3413 133.33<0.00976562 133.34> 184.671 133.33<133.34 400> 318.001 133.33<400 666.66> 451.331 133.33<666.66 799.99>
LayerCount: 2
Fore
SplineSet
183.669921875 266 m 1
 183.669921875 399.330078125 l 1
 317 399.330078125 l 1
 317 266 l 1
 183.669921875 266 l 1
183.669921875 -0.66015625 m 1
 183.669921875 132.669921875 l 1
 317 132.669921875 l 1
 317 -0.66015625 l 1
 183.669921875 -0.66015625 l 1
50.33984375 -133.990234375 m 1
 50.33984375 -0.66015625 l 1
 183.669921875 -0.66015625 l 1
 183.669921875 -133.990234375 l 1
 50.33984375 -133.990234375 l 1
EndSplineSet
EndChar

StartChar: less
Encoding: 60 60 78
Width: 734
VWidth: 27532
Flags: HW
HStem: 66.1748 133.33<433.665 566.995> 199.505 133.33<300.335 433.665> 332.835 133.33<167.005 300.335> 466.165 133.33<300.335 433.665> 599.495 133.33<433.665 566.995>
VStem: 167.005 133.33<332.835 466.165> 300.335 133.33<199.505 332.835 466.165 599.495> 433.665 133.33<66.1748 199.505 599.495 732.825>
LayerCount: 2
Fore
SplineSet
433.665039062 599.495117188 m 1x12
 433.665039062 732.825195312 l 1
 566.995117188 732.825195312 l 1
 566.995117188 599.495117188 l 1x09
 433.665039062 599.495117188 l 1x12
300.334960938 466.165039062 m 1x24
 300.334960938 599.495117188 l 1
 433.665039062 599.495117188 l 1
 433.665039062 466.165039062 l 1x12
 300.334960938 466.165039062 l 1x24
167.004882812 332.834960938 m 1x24
 167.004882812 466.165039062 l 1
 300.334960938 466.165039062 l 1x24
 300.334960938 332.834960938 l 1x44
 167.004882812 332.834960938 l 1x24
300.334960938 199.504882812 m 1x42
 300.334960938 332.834960938 l 1x44
 433.665039062 332.834960938 l 1x42
 433.665039062 199.504882812 l 1x82
 300.334960938 199.504882812 l 1x42
433.665039062 66.1748046875 m 1x81
 433.665039062 199.504882812 l 1x82
 566.995117188 199.504882812 l 1
 566.995117188 66.1748046875 l 1
 433.665039062 66.1748046875 l 1x81
EndSplineSet
EndChar

StartChar: equal
Encoding: 61 61 79
Width: 734
VWidth: 27532
Flags: HW
HStem: 199.505 133.33<100.34 633.66> 466.165 133.33<100.34 633.66>
LayerCount: 2
Fore
SplineSet
100.33984375 466.165039062 m 1
 100.33984375 599.495117188 l 1
 233.669921875 599.495117188 l 1
 233.669921875 466.165039062 l 1
 100.33984375 466.165039062 l 1
233.669921875 466.165039062 m 1
 233.669921875 599.495117188 l 1
 367 599.495117188 l 1
 367 466.165039062 l 1
 233.669921875 466.165039062 l 1
367 466.165039062 m 1
 367 599.495117188 l 1
 500.330078125 599.495117188 l 1
 500.330078125 466.165039062 l 1
 367 466.165039062 l 1
500.330078125 466.165039062 m 1
 500.330078125 599.495117188 l 1
 633.66015625 599.495117188 l 1
 633.66015625 466.165039062 l 1
 500.330078125 466.165039062 l 1
100.33984375 199.504882812 m 1
 100.33984375 332.834960938 l 1
 233.669921875 332.834960938 l 1
 233.669921875 199.504882812 l 1
 100.33984375 199.504882812 l 1
233.669921875 199.504882812 m 1
 233.669921875 332.834960938 l 1
 367 332.834960938 l 1
 367 199.504882812 l 1
 233.669921875 199.504882812 l 1
367 199.504882812 m 1
 367 332.834960938 l 1
 500.330078125 332.834960938 l 1
 500.330078125 199.504882812 l 1
 367 199.504882812 l 1
500.330078125 199.504882812 m 1
 500.330078125 332.834960938 l 1
 633.66015625 332.834960938 l 1
 633.66015625 199.504882812 l 1
 500.330078125 199.504882812 l 1
EndSplineSet
EndChar

StartChar: greater
Encoding: 62 62 80
Width: 734
VWidth: 27532
Flags: HW
HStem: 66.1748 133.33<167.005 300.335> 199.505 133.33<300.335 433.665> 332.835 133.33<433.665 566.995> 466.165 133.33<300.335 433.665> 599.495 133.33<167.005 300.335>
VStem: 167.005 133.33<66.1748 199.505 599.495 732.825> 300.335 133.33<199.505 332.835 466.165 599.495> 433.665 133.33<332.835 466.165>
LayerCount: 2
Fore
SplineSet
167.004882812 599.495117188 m 1x0c
 167.004882812 732.825195312 l 1
 300.334960938 732.825195312 l 1x0c
 300.334960938 599.495117188 l 1x14
 167.004882812 599.495117188 l 1x0c
300.334960938 466.165039062 m 1x12
 300.334960938 599.495117188 l 1x14
 433.665039062 599.495117188 l 1x12
 433.665039062 466.165039062 l 1x22
 300.334960938 466.165039062 l 1x12
433.665039062 332.834960938 m 1x42
 433.665039062 466.165039062 l 1x22
 566.995117188 466.165039062 l 1
 566.995117188 332.834960938 l 1x21
 433.665039062 332.834960938 l 1x42
300.334960938 199.504882812 m 1x84
 300.334960938 332.834960938 l 1
 433.665039062 332.834960938 l 1
 433.665039062 199.504882812 l 1x42
 300.334960938 199.504882812 l 1x84
167.004882812 66.1748046875 m 1x84
 167.004882812 199.504882812 l 1
 300.334960938 199.504882812 l 1
 300.334960938 66.1748046875 l 1
 167.004882812 66.1748046875 l 1x84
EndSplineSet
EndChar

StartChar: question
Encoding: 63 63 81
Width: 734
VWidth: 27465
Flags: HW
HStem: 0.00976562 133.33<233.67 367> 266.67 133.33<233.67 367> 400 133.33<367 500.33> 533.33 133.33<100.34 233.67 500.33 633.66> 666.66 133.33<233.67 500.33>
VStem: 100.34 133.33<533.33 666.66> 233.67 133.33<0.00976562 133.34 266.67 400> 367 133.33<400 533.33> 500.33 133.33<533.33 666.66>
LayerCount: 2
Fore
SplineSet
233.669921875 666.66015625 m 1x95
 233.669921875 799.990234375 l 1x8a
 367 799.990234375 l 1
 367 666.66015625 l 1x89
 233.669921875 666.66015625 l 1x95
367 666.66015625 m 1x89
 367 799.990234375 l 1x89
 500.330078125 799.990234375 l 1x8880
 500.330078125 666.66015625 l 1x9080
 367 666.66015625 l 1x89
100.33984375 533.330078125 m 1x94
 100.33984375 666.66015625 l 1
 233.669921875 666.66015625 l 1
 233.669921875 533.330078125 l 1
 100.33984375 533.330078125 l 1x94
500.330078125 533.330078125 m 1xa1
 500.330078125 666.66015625 l 1
 633.66015625 666.66015625 l 1
 633.66015625 533.330078125 l 1x9080
 500.330078125 533.330078125 l 1xa1
367 400 m 1xc2
 367 533.330078125 l 1
 500.330078125 533.330078125 l 1
 500.330078125 400 l 1xa1
 367 400 l 1xc2
233.669921875 266.669921875 m 1xc2
 233.669921875 400 l 1
 367 400 l 1
 367 266.669921875 l 1
 233.669921875 266.669921875 l 1xc2
233.669921875 0.009765625 m 1
 233.669921875 133.33984375 l 1
 367 133.33984375 l 1
 367 0.009765625 l 1
 233.669921875 0.009765625 l 1
EndSplineSet
EndChar

StartChar: at
Encoding: 64 64 82
Width: 734
VWidth: 27532
Flags: HW
HStem: 66.1748 133.33<500.33 633.66> 199.505 133.33<233.67 367> 332.835 133.33<500.33 633.66> 466.165 133.33<100.34 233.67 500.33 633.66> 599.495 133.33<233.67 633.66>
VStem: 100.34 133.33<332.835 599.495> 500.33 133.33<332.835 599.495>
LayerCount: 2
Fore
SplineSet
233.669921875 599.495117188 m 1x16
 233.669921875 732.825195312 l 1
 367 732.825195312 l 1
 367 599.495117188 l 1x0e
 233.669921875 599.495117188 l 1x16
367 599.495117188 m 1
 367 732.825195312 l 1
 500.330078125 732.825195312 l 1x0e
 500.330078125 599.495117188 l 1x16
 367 599.495117188 l 1
500.330078125 599.495117188 m 1x16
 500.330078125 732.825195312 l 1
 633.66015625 732.825195312 l 1x0e
 633.66015625 599.495117188 l 1
 500.330078125 599.495117188 l 1x16
100.33984375 466.165039062 m 1x16
 100.33984375 599.495117188 l 1
 233.669921875 599.495117188 l 1
 233.669921875 466.165039062 l 1
 100.33984375 466.165039062 l 1x16
500.330078125 466.165039062 m 1x26
 500.330078125 599.495117188 l 1
 633.66015625 599.495117188 l 1x16
 633.66015625 466.165039062 l 1
 500.330078125 466.165039062 l 1x26
100.33984375 332.834960938 m 1x26
 100.33984375 466.165039062 l 1
 233.669921875 466.165039062 l 1
 233.669921875 332.834960938 l 1x56
 100.33984375 332.834960938 l 1x26
500.330078125 332.834960938 m 1x26
 500.330078125 466.165039062 l 1
 633.66015625 466.165039062 l 1
 633.66015625 332.834960938 l 1
 500.330078125 332.834960938 l 1x26
100.33984375 199.504882812 m 1x46
 100.33984375 332.834960938 l 1x26
 233.669921875 332.834960938 l 1
 233.669921875 199.504882812 l 1
 100.33984375 199.504882812 l 1x46
233.669921875 199.504882812 m 1x46
 233.669921875 332.834960938 l 1
 367 332.834960938 l 1
 367 199.504882812 l 1
 233.669921875 199.504882812 l 1x46
367 199.504882812 m 1
 367 332.834960938 l 1x46
 500.330078125 332.834960938 l 1
 500.330078125 199.504882812 l 1xa6
 367 199.504882812 l 1
367 66.1748046875 m 1x86
 367 199.504882812 l 1x46
 500.330078125 199.504882812 l 1
 500.330078125 66.1748046875 l 1
 367 66.1748046875 l 1x86
500.330078125 66.1748046875 m 1x86
 500.330078125 199.504882812 l 1
 633.66015625 199.504882812 l 1
 633.66015625 66.1748046875 l 1
 500.330078125 66.1748046875 l 1x86
EndSplineSet
EndChar

StartChar: bracketleft
Encoding: 91 91 83
Width: 734
VWidth: 27465
Flags: HW
HStem: 0.00976562 133.33<300.335 566.995> 646.66 20G<167.005 300.335> 646.66 20G<167.005 300.335> 666.66 133.33<300.335 566.995>
VStem: 167.005 133.33<133.34 666.66>
LayerCount: 2
Fore
SplineSet
167.004882812 666.66015625 m 1xc8
 167.004882812 799.990234375 l 1
 300.334960938 799.990234375 l 1x98
 300.334960938 666.66015625 l 1
 167.004882812 666.66015625 l 1xc8
300.334960938 666.66015625 m 1xc8
 300.334960938 799.990234375 l 1
 433.665039062 799.990234375 l 1
 433.665039062 666.66015625 l 1x98
 300.334960938 666.66015625 l 1xc8
433.665039062 666.66015625 m 1
 433.665039062 799.990234375 l 1
 566.995117188 799.990234375 l 1
 566.995117188 666.66015625 l 1
 433.665039062 666.66015625 l 1
167.004882812 533.330078125 m 1
 167.004882812 666.66015625 l 1
 300.334960938 666.66015625 l 1xc8
 300.334960938 533.330078125 l 1
 167.004882812 533.330078125 l 1
167.004882812 400 m 1
 167.004882812 533.330078125 l 1
 300.334960938 533.330078125 l 1
 300.334960938 400 l 1
 167.004882812 400 l 1
167.004882812 266.669921875 m 1
 167.004882812 400 l 1
 300.334960938 400 l 1
 300.334960938 266.669921875 l 1
 167.004882812 266.669921875 l 1
167.004882812 133.33984375 m 1
 167.004882812 266.669921875 l 1
 300.334960938 266.669921875 l 1
 300.334960938 133.33984375 l 1
 167.004882812 133.33984375 l 1
167.004882812 0.009765625 m 1
 167.004882812 133.33984375 l 1
 300.334960938 133.33984375 l 1
 300.334960938 0.009765625 l 1
 167.004882812 0.009765625 l 1
300.334960938 0.009765625 m 1
 300.334960938 133.33984375 l 1
 433.665039062 133.33984375 l 1
 433.665039062 0.009765625 l 1
 300.334960938 0.009765625 l 1
433.665039062 0.009765625 m 1
 433.665039062 133.33984375 l 1
 566.995117188 133.33984375 l 1
 566.995117188 0.009765625 l 1
 433.665039062 0.009765625 l 1
EndSplineSet
EndChar

StartChar: bracketright
Encoding: 93 93 84
Width: 734
VWidth: 27465
Flags: HW
HStem: 0.00976562 133.33<167.005 433.665> 646.66 20G<433.665 566.995> 646.66 20G<433.665 566.995> 666.66 133.33<167.005 433.665>
VStem: 433.665 133.33<133.34 666.66>
LayerCount: 2
Fore
SplineSet
167.004882812 666.66015625 m 1x98
 167.004882812 799.990234375 l 1
 300.334960938 799.990234375 l 1
 300.334960938 666.66015625 l 1
 167.004882812 666.66015625 l 1x98
300.334960938 666.66015625 m 1
 300.334960938 799.990234375 l 1
 433.665039062 799.990234375 l 1x98
 433.665039062 666.66015625 l 1xc8
 300.334960938 666.66015625 l 1
433.665039062 666.66015625 m 1xc8
 433.665039062 799.990234375 l 1
 566.995117188 799.990234375 l 1x98
 566.995117188 666.66015625 l 1
 433.665039062 666.66015625 l 1xc8
433.665039062 533.330078125 m 1
 433.665039062 666.66015625 l 1
 566.995117188 666.66015625 l 1xc8
 566.995117188 533.330078125 l 1
 433.665039062 533.330078125 l 1
433.665039062 400 m 1
 433.665039062 533.330078125 l 1
 566.995117188 533.330078125 l 1
 566.995117188 400 l 1
 433.665039062 400 l 1
433.665039062 266.669921875 m 1
 433.665039062 400 l 1
 566.995117188 400 l 1
 566.995117188 266.669921875 l 1
 433.665039062 266.669921875 l 1
433.665039062 133.33984375 m 1
 433.665039062 266.669921875 l 1
 566.995117188 266.669921875 l 1
 566.995117188 133.33984375 l 1
 433.665039062 133.33984375 l 1
167.004882812 0.009765625 m 1
 167.004882812 133.33984375 l 1
 300.334960938 133.33984375 l 1
 300.334960938 0.009765625 l 1
 167.004882812 0.009765625 l 1
300.334960938 0.009765625 m 1
 300.334960938 133.33984375 l 1
 433.665039062 133.33984375 l 1
 433.665039062 0.009765625 l 1
 300.334960938 0.009765625 l 1
433.665039062 0.009765625 m 1
 433.665039062 133.33984375 l 1
 566.995117188 133.33984375 l 1
 566.995117188 0.009765625 l 1
 433.665039062 0.009765625 l 1
EndSplineSet
EndChar

StartChar: backslash
Encoding: 92 92 85
Width: 734
VWidth: 27465
Flags: HW
HStem: 0.00976562 133.33<500.33 633.66> 133.34 133.33<367 500.33> 266.67 133.33<367 500.33> 400 133.33<233.67 367> 533.33 133.33<233.67 367> 666.66 133.33<100.34 233.67>
VStem: 100.34 133.33<666.66 799.99> 233.67 133.33<400 666.66> 367 133.33<133.34 400> 500.33 133.33<0.00976562 133.34>
LayerCount: 2
Fore
SplineSet
100.33984375 666.66015625 m 1x06
 100.33984375 799.990234375 l 1
 233.669921875 799.990234375 l 1x06
 233.669921875 666.66015625 l 1x0a
 100.33984375 666.66015625 l 1x06
233.669921875 533.330078125 m 1x11
 233.669921875 666.66015625 l 1x0a
 367 666.66015625 l 1x09
 367 533.330078125 l 1
 233.669921875 533.330078125 l 1x11
233.669921875 400 m 1x11
 233.669921875 533.330078125 l 1
 367 533.330078125 l 1x11
 367 400 l 1x21
 233.669921875 400 l 1x11
367 266.669921875 m 1x4080
 367 400 l 1x21
 500.330078125 400 l 1x2080
 500.330078125 266.669921875 l 1
 367 266.669921875 l 1x4080
367 133.33984375 m 1x4080
 367 266.669921875 l 1
 500.330078125 266.669921875 l 1x4080
 500.330078125 133.33984375 l 1x8080
 367 133.33984375 l 1x4080
500.330078125 0.009765625 m 1x8040
 500.330078125 133.33984375 l 1x8080
 633.66015625 133.33984375 l 1
 633.66015625 0.009765625 l 1
 500.330078125 0.009765625 l 1x8040
EndSplineSet
EndChar

StartChar: asciicircum
Encoding: 94 94 86
Width: 734
VWidth: 27400
Flags: HW
HStem: 334.805 133.33<100.34 233.67 500.33 633.66> 468.135 133.33<233.67 367 500.33 633.66> 601.465 133.33<367 500.33>
VStem: 100.34 133.33<334.805 468.135> 233.67 133.33<468.135 601.465> 367 133.33<601.465 734.795> 500.33 133.33<334.805 601.465>
LayerCount: 2
Fore
SplineSet
367 666.46484375 m 1x48
 367 799.794921875 l 1
 500.330078125 799.794921875 l 1x24
 500.330078125 666.46484375 l 1x44
 367 666.46484375 l 1x48
233.669921875 533.134765625 m 1x90
 233.669921875 666.46484375 l 1
 367 666.46484375 l 1
 367 533.134765625 l 1x48
 233.669921875 533.134765625 l 1x90
500.330078125 533.134765625 m 1x82
 500.330078125 666.46484375 l 1x44
 633.66015625 666.46484375 l 1x42
 633.66015625 533.134765625 l 1
 500.330078125 533.134765625 l 1x82
100.33984375 399.8046875 m 1x90
 100.33984375 533.134765625 l 1
 233.669921875 533.134765625 l 1
 233.669921875 399.8046875 l 1
 100.33984375 399.8046875 l 1x90
500.330078125 399.8046875 m 1x82
 500.330078125 533.134765625 l 1
 633.66015625 533.134765625 l 1
 633.66015625 399.8046875 l 1
 500.330078125 399.8046875 l 1x82
EndSplineSet
EndChar

StartChar: underscore
Encoding: 95 95 87
Width: 734
VWidth: 27796
Flags: HW
HStem: 330.835 133.33<100.34 633.66>
LayerCount: 2
Fore
SplineSet
100.33984375 330.834960938 m 1
 100.33984375 464.165039062 l 1
 233.669921875 464.165039062 l 1
 233.669921875 330.834960938 l 1
 100.33984375 330.834960938 l 1
233.669921875 330.834960938 m 1
 233.669921875 464.165039062 l 1
 367 464.165039062 l 1
 367 330.834960938 l 1
 233.669921875 330.834960938 l 1
367 330.834960938 m 1
 367 464.165039062 l 1
 500.330078125 464.165039062 l 1
 500.330078125 330.834960938 l 1
 367 330.834960938 l 1
500.330078125 330.834960938 m 1
 500.330078125 464.165039062 l 1
 633.66015625 464.165039062 l 1
 633.66015625 330.834960938 l 1
 500.330078125 330.834960938 l 1
EndSplineSet
EndChar

StartChar: grave
Encoding: 96 96 88
Width: 400
VWidth: 27334
Flags: HW
HStem: 401.97 133.33<200 333.33> 535.3 133.33<66.6705 200>
VStem: 66.6705 133.33<535.3 668.63> 200 133.33<401.97 535.3>
LayerCount: 2
Fore
SplineSet
66.669921875 666.599609375 m 1x60
 66.669921875 799.9296875 l 1
 200 799.9296875 l 1x60
 200 666.599609375 l 1xa0
 66.669921875 666.599609375 l 1x60
200 533.26953125 m 1x90
 200 666.599609375 l 1xa0
 333.330078125 666.599609375 l 1
 333.330078125 533.26953125 l 1
 200 533.26953125 l 1x90
EndSplineSet
EndChar

StartChar: braceleft
Encoding: 123 123 89
Width: 734
VWidth: 27465
Flags: HW
HStem: 0.00976562 133.33<367 633.66> 400 133.33<100.34 233.67> 646.66 20G<233.67 367> 646.66 20G<233.67 367> 666.66 133.33<367 633.66>
VStem: 233.67 133.33<133.34 400 533.33 666.66>
LayerCount: 2
Fore
SplineSet
233.669921875 666.66015625 m 1xe4
 233.669921875 799.990234375 l 1
 367 799.990234375 l 1xcc
 367 666.66015625 l 1
 233.669921875 666.66015625 l 1xe4
367 666.66015625 m 1xe4
 367 799.990234375 l 1
 500.330078125 799.990234375 l 1
 500.330078125 666.66015625 l 1xcc
 367 666.66015625 l 1xe4
500.330078125 666.66015625 m 1
 500.330078125 799.990234375 l 1
 633.66015625 799.990234375 l 1
 633.66015625 666.66015625 l 1
 500.330078125 666.66015625 l 1
233.669921875 533.330078125 m 1
 233.669921875 666.66015625 l 1
 367 666.66015625 l 1xe4
 367 533.330078125 l 1
 233.669921875 533.330078125 l 1
100.33984375 400 m 1
 100.33984375 533.330078125 l 1
 233.669921875 533.330078125 l 1
 233.669921875 400 l 1
 100.33984375 400 l 1
233.669921875 400 m 1
 233.669921875 533.330078125 l 1
 367 533.330078125 l 1
 367 400 l 1
 233.669921875 400 l 1
233.669921875 266.669921875 m 1
 233.669921875 400 l 1
 367 400 l 1
 367 266.669921875 l 1
 233.669921875 266.669921875 l 1
233.669921875 133.33984375 m 1
 233.669921875 266.669921875 l 1
 367 266.669921875 l 1
 367 133.33984375 l 1
 233.669921875 133.33984375 l 1
233.669921875 0.009765625 m 1
 233.669921875 133.33984375 l 1
 367 133.33984375 l 1
 367 0.009765625 l 1
 233.669921875 0.009765625 l 1
367 0.009765625 m 1
 367 133.33984375 l 1
 500.330078125 133.33984375 l 1
 500.330078125 0.009765625 l 1
 367 0.009765625 l 1
500.330078125 0.009765625 m 1
 500.330078125 133.33984375 l 1
 633.66015625 133.33984375 l 1
 633.66015625 0.009765625 l 1
 500.330078125 0.009765625 l 1
EndSplineSet
EndChar

StartChar: braceright
Encoding: 125 125 90
Width: 734
VWidth: 27465
Flags: HW
HStem: 0.00976562 133.33<100.34 367> 400 133.33<500.33 633.66> 646.66 20G<367 500.33> 646.66 20G<367 500.33> 666.66 133.33<100.34 367>
VStem: 367 133.33<133.34 400 533.33 666.66>
LayerCount: 2
Fore
SplineSet
100.33984375 666.66015625 m 1xcc
 100.33984375 799.990234375 l 1
 233.669921875 799.990234375 l 1
 233.669921875 666.66015625 l 1
 100.33984375 666.66015625 l 1xcc
233.669921875 666.66015625 m 1
 233.669921875 799.990234375 l 1
 367 799.990234375 l 1xcc
 367 666.66015625 l 1xe4
 233.669921875 666.66015625 l 1
367 666.66015625 m 1xe4
 367 799.990234375 l 1
 500.330078125 799.990234375 l 1xcc
 500.330078125 666.66015625 l 1
 367 666.66015625 l 1xe4
367 533.330078125 m 1
 367 666.66015625 l 1
 500.330078125 666.66015625 l 1xe4
 500.330078125 533.330078125 l 1
 367 533.330078125 l 1
367 400 m 1
 367 533.330078125 l 1
 500.330078125 533.330078125 l 1
 500.330078125 400 l 1
 367 400 l 1
500.330078125 400 m 1
 500.330078125 533.330078125 l 1
 633.66015625 533.330078125 l 1
 633.66015625 400 l 1
 500.330078125 400 l 1
367 266.669921875 m 1
 367 400 l 1
 500.330078125 400 l 1
 500.330078125 266.669921875 l 1
 367 266.669921875 l 1
367 133.33984375 m 1
 367 266.669921875 l 1
 500.330078125 266.669921875 l 1
 500.330078125 133.33984375 l 1
 367 133.33984375 l 1
100.33984375 0.009765625 m 1
 100.33984375 133.33984375 l 1
 233.669921875 133.33984375 l 1
 233.669921875 0.009765625 l 1
 100.33984375 0.009765625 l 1
233.669921875 0.009765625 m 1
 233.669921875 133.33984375 l 1
 367 133.33984375 l 1
 367 0.009765625 l 1
 233.669921875 0.009765625 l 1
367 0.009765625 m 1
 367 133.33984375 l 1
 500.330078125 133.33984375 l 1
 500.330078125 0.009765625 l 1
 367 0.009765625 l 1
EndSplineSet
EndChar

StartChar: bar
Encoding: 124 124 91
Width: 734
VWidth: 27465
Flags: HW
HStem: 0.00976562 21G<300.335 433.665> 0.00976562 21G<300.335 433.665> 646.66 20G<300.335 433.665> 646.66 20G<300.335 433.665> 666.66 21G<300.335 433.665> 666.66 21G<300.335 433.665> 779.99 20G<300.335 433.665>
VStem: 300.335 133.33<0.00976562 799.99>
LayerCount: 2
Fore
SplineSet
300.334960938 666.66015625 m 1x23
 300.334960938 799.990234375 l 1
 433.665039062 799.990234375 l 1
 433.665039062 666.66015625 l 1
 300.334960938 666.66015625 l 1x23
300.334960938 533.330078125 m 1
 300.334960938 666.66015625 l 1
 433.665039062 666.66015625 l 1
 433.665039062 533.330078125 l 1
 300.334960938 533.330078125 l 1
300.334960938 400 m 1
 300.334960938 533.330078125 l 1
 433.665039062 533.330078125 l 1
 433.665039062 400 l 1
 300.334960938 400 l 1
300.334960938 266.669921875 m 1
 300.334960938 400 l 1
 433.665039062 400 l 1
 433.665039062 266.669921875 l 1
 300.334960938 266.669921875 l 1
300.334960938 133.33984375 m 1
 300.334960938 266.669921875 l 1
 433.665039062 266.669921875 l 1
 433.665039062 133.33984375 l 1
 300.334960938 133.33984375 l 1
300.334960938 0.009765625 m 1x83
 300.334960938 133.33984375 l 1
 433.665039062 133.33984375 l 1
 433.665039062 0.009765625 l 1
 300.334960938 0.009765625 l 1x83
EndSplineSet
EndChar

StartChar: asciitilde
Encoding: 126 126 92
Width: 734
VWidth: 27333
Flags: HW
HStem: 267.67 133.33<100.34 233.67 367 500.33> 401 133.33<233.67 367 500.33 633.66>
VStem: 100.34 133.33<267.67 401> 233.67 133.33<401 534.33> 367 133.33<267.67 401> 500.33 133.33<401 534.33>
LayerCount: 2
Fore
SplineSet
233.669921875 401 m 1xa0
 233.669921875 534.330078125 l 1
 367 534.330078125 l 1x50
 367 401 l 1x90
 233.669921875 401 l 1xa0
500.330078125 401 m 1x88
 500.330078125 534.330078125 l 1
 633.66015625 534.330078125 l 1
 633.66015625 401 l 1x44
 500.330078125 401 l 1x88
100.33984375 267.669921875 m 1xa0
 100.33984375 401 l 1
 233.669921875 401 l 1
 233.669921875 267.669921875 l 1
 100.33984375 267.669921875 l 1xa0
367 267.669921875 m 1x88
 367 401 l 1x90
 500.330078125 401 l 1
 500.330078125 267.669921875 l 1
 367 267.669921875 l 1x88
EndSplineSet
EndChar

StartChar: nine
Encoding: 57 57 93
Width: 734
VWidth: 27465
Flags: HW
LayerCount: 2
Fore
SplineSet
233.669921875 666.66015625 m 1
 367 666.66015625 l 1
 367 799.990234375 l 1
 233.669921875 799.990234375 l 1
 233.669921875 666.66015625 l 1
367 666.66015625 m 1
 500.330078125 666.66015625 l 1
 500.330078125 799.990234375 l 1
 367 799.990234375 l 1
 367 666.66015625 l 1
100.33984375 533.330078125 m 1
 233.669921875 533.330078125 l 1
 233.669921875 666.66015625 l 1
 100.33984375 666.66015625 l 1
 100.33984375 533.330078125 l 1
500.330078125 533.330078125 m 1
 633.66015625 533.330078125 l 1
 633.66015625 666.66015625 l 1
 500.330078125 666.66015625 l 1
 500.330078125 533.330078125 l 1
100.33984375 400 m 1
 233.669921875 400 l 1
 233.669921875 533.330078125 l 1
 100.33984375 533.330078125 l 1
 100.33984375 400 l 1
500.330078125 400 m 1
 633.66015625 400 l 1
 633.66015625 533.330078125 l 1
 500.330078125 533.330078125 l 1
 500.330078125 400 l 1
233.669921875 266.669921875 m 1
 367 266.669921875 l 1
 367 400 l 1
 233.669921875 400 l 1
 233.669921875 266.669921875 l 1
367 266.669921875 m 1
 500.330078125 266.669921875 l 1
 500.330078125 400 l 1
 367 400 l 1
 367 266.669921875 l 1
500.330078125 266.669921875 m 1
 633.66015625 266.669921875 l 1
 633.66015625 400 l 1
 500.330078125 400 l 1
 500.330078125 266.669921875 l 1
500.330078125 133.33984375 m 1
 633.66015625 133.33984375 l 1
 633.66015625 266.669921875 l 1
 500.330078125 266.669921875 l 1
 500.330078125 133.33984375 l 1
233.669921875 0.009765625 m 1
 367 0.009765625 l 1
 367 133.33984375 l 1
 233.669921875 133.33984375 l 1
 233.669921875 0.009765625 l 1
367 0.009765625 m 1
 500.330078125 0.009765625 l 1
 500.330078125 133.33984375 l 1
 367 133.33984375 l 1
 367 0.009765625 l 1
EndSplineSet
EndChar

